<svg width="100" height="98" viewBox="0 0 100 98" fill="none" xmlns="http://www.w3.org/2000/svg">
<path d="M6.07143 67.9738L8.5 61.9023L10.9286 67.9738L17 70.4023L10.9286 72.8309L8.5 78.9023L6.07143 72.8309L0 70.4023L6.07143 67.9738Z" fill="#FFC200"/>
<path d="M83.6429 32.5452L85.5 27.9023L87.3571 32.5452L92 34.4023L87.3571 36.2595L85.5 40.9023L83.6429 36.2595L79 34.4023L83.6429 32.5452Z" fill="#FFC200"/>
<path d="M94.2143 22.1166L95.5 18.9023L96.7857 22.1166L100 23.4023L96.7857 24.6881L95.5 27.9023L94.2143 24.6881L91 23.4023L94.2143 22.1166Z" fill="#FFC200"/>
<path d="M17.5462 34.2292C17.012 32.9157 17.213 31.4175 18.0747 30.2914L31.7509 12.4176C32.6475 11.2457 34.1165 10.6627 35.5728 10.9006L57.0792 14.4153C58.4548 14.6401 59.6141 15.5647 60.1393 16.8558L84.245 76.119C85.0774 78.1653 84.0933 80.499 82.0469 81.3313L46.8474 95.649C44.8011 96.4813 42.4675 95.4972 41.6351 93.4509L17.5462 34.2292Z" fill="#0544AB"/>
<circle cx="37.217" cy="20.2183" r="3" transform="rotate(-22.1344 37.217 20.2183)" fill="#010713" stroke="#979393"/>
<path fill-rule="evenodd" clip-rule="evenodd" d="M20.0179 8.27353C19.6372 8.29918 19.3241 8.44653 19.0276 8.94008C18.9976 8.99001 18.7984 9.39983 19.6556 10.5235C20.4469 11.5607 21.8476 12.7718 23.7243 13.9788C27.4639 16.384 32.7108 18.5303 37.6073 19.1944L37.2041 22.1672C31.8173 21.4365 26.1594 19.1119 22.1015 16.502C20.0795 15.2015 18.3583 13.769 17.2705 12.3431C16.2487 11.0037 15.4132 9.1309 16.456 7.39516C17.2323 6.10303 18.4074 5.37526 19.8162 5.28032C21.116 5.19273 22.4574 5.65286 23.7101 6.33052C26.2287 7.69309 29.0238 10.2862 31.6375 13.3387L29.3587 15.2899C26.8306 12.3374 24.3202 10.0715 22.2826 8.96914C21.2571 8.41434 20.5076 8.24053 20.0179 8.27353Z" fill="black"/>
<circle cx="76.5" cy="25.4023" r="2.5" fill="#FFC200"/>
<circle cx="80" cy="41.9023" r="1" fill="#FFC200"/>
<path d="M42.377 56.5787L39.8713 57.5846L39.4466 54.6905L41.6516 53.8053C40.6962 48.9131 41.8466 43.9514 46.9581 41.8994C50.8669 40.3303 54.7188 41.4218 57.19 44.9685L53.0685 47.554C51.9102 46.1182 50.3184 45.4383 48.5477 46.1491C46.1423 47.1147 45.9316 49.6821 46.2953 51.9411L52.8434 49.3125L53.2682 52.2066L47.0542 54.7011C47.1683 55.082 47.3158 55.4495 47.4768 55.8504C47.6243 56.2179 47.7584 56.552 47.9125 56.8393L53.6922 54.5191L54.1169 57.4132L49.2727 59.3578C50.9136 61.8025 52.753 62.6158 54.7909 61.7977C56.5949 61.0735 57.4219 59.4614 57.2524 57.5898L62.0177 56.6079C62.6579 60.812 60.4229 64.4246 56.4473 66.0206C51.3692 68.0592 47.2015 65.6978 44.5287 61.2623L41.7892 62.362L41.3644 59.4679L43.2019 58.7303L42.8666 57.8951C42.6923 57.4608 42.5179 57.0265 42.377 56.5787Z" fill="#FFC200"/>
</svg>
