<svg width="90" height="74" viewBox="0 0 90 74" fill="none" xmlns="http://www.w3.org/2000/svg">
<g clip-path="url(#clip0_655_1217)">
<path opacity="0.7" d="M43.7338 73.0255C64.9527 73.0255 82.1541 72.035 82.1541 70.8131C82.1541 69.5911 64.9527 68.6006 43.7338 68.6006C22.5148 68.6006 5.31348 69.5911 5.31348 70.8131C5.31348 72.035 22.5148 73.0255 43.7338 73.0255Z" fill="#01112B"/>
<path d="M70.7689 0.69043H35.1914V10.0617H70.7689V0.69043Z" fill="#0544AB"/>
<path opacity="0.2" d="M70.7689 0.69043H35.1914V10.0617H70.7689V0.69043Z" fill="#010713"/>
<path d="M70.7689 10.0615L65.4351 35.8361V70.531H76.9752V35.8361L70.7689 10.0615Z" fill="#0544AB"/>
<path opacity="0.2" d="M70.7689 10.0615L65.4351 35.8361V70.531H76.9752V35.8361L70.7689 10.0615Z" fill="#010713"/>
<path d="M35.1911 10.0615L30.0684 36.3293V70.531H65.4347V35.8361L70.7685 10.0615H35.1911Z" fill="#0544AB"/>
<path d="M71.3177 10.6252H34.6284V0.140625H71.3177V10.6111V10.6252ZM35.7402 9.52601H70.22V1.25391H35.7402V9.52601Z" fill="#01112B"/>
<path d="M77.5241 71.0948H64.8862V35.7234L70.7267 7.53906L77.5241 35.8361V71.0948ZM65.984 69.9956H76.4123V35.9066L70.797 12.5982L65.9699 35.8925V69.9815L65.984 69.9956Z" fill="#01112B"/>
<path d="M65.9836 71.0951H29.5195V36.231L34.7267 9.52637H71.4441L65.9836 35.9069V71.1092V71.0951ZM30.6173 69.9959H64.8718V35.7378L70.079 10.6396H35.6274L30.6032 36.4001V70.01L30.6173 69.9959Z" fill="#01112B"/>
<path opacity="0.2" d="M42.5516 17.6426H11.7309L10.5347 21.2784L13.8278 70.5305H40.7502L44.0434 21.2784L42.5516 17.6426Z" fill="#010713"/>
<path d="M29.6884 14.5713H18.3452V17.6434H29.6884V14.5713Z" fill="#0544AB"/>
<path d="M39.2586 17.6426H8.43794L7.2417 21.2784H40.7504L39.2586 17.6426Z" fill="white"/>
<path d="M37.4572 70.5305H10.5349L7.2417 21.2783H40.7504L37.4572 70.5305Z" fill="#0544AB"/>
<path d="M23.989 56.4385C29.5696 56.4385 34.0936 51.9084 34.0936 46.3203C34.0936 40.7322 29.5696 36.2021 23.989 36.2021C18.4083 36.2021 13.8843 40.7322 13.8843 46.3203C13.8843 51.9084 18.4083 56.4385 23.989 56.4385Z" fill="#BA8E00"/>
<path d="M34.0935 46.3208C34.0935 42.0368 31.4336 38.3869 27.6901 36.9072C27.2256 36.8368 26.7472 36.8086 26.2546 36.8086C20.6675 36.8086 16.1499 41.3322 16.1499 46.9268C16.1499 51.2108 18.8098 54.8607 22.5533 56.3403C23.0177 56.4108 23.4962 56.439 23.9888 56.439C29.5759 56.439 34.0935 51.9154 34.0935 46.3208Z" fill="#FFC200"/>
<path d="M29.6884 14.5713H18.3452V17.6434H29.6884V14.5713Z" fill="white"/>
<path d="M30.2514 18.1928H17.8105V14.0215H30.2514V18.1928ZM18.9083 17.0936H29.1537V15.1348H18.9083V17.0936Z" fill="#01112B"/>
<path d="M41.5804 21.8287H6.48145L8.04359 17.0938H39.6242L41.5804 21.8287ZM8.00137 20.7295H39.9198L38.8783 18.1929H8.8317L8.00137 20.7295Z" fill="#01112B"/>
<path d="M37.9777 71.0944H10.0139L6.65039 20.7148H41.3413L37.9777 71.0803V71.0944ZM11.0554 69.9952H36.9504L40.1732 21.8422H7.83255L11.0554 69.9952Z" fill="#01112B"/>
<path d="M40.5674 23.9844H7.48096V25.0836H40.5674V23.9844Z" fill="#01112B"/>
<path d="M37.7806 66.2754H10.2812V67.3746H37.7806V66.2754Z" fill="#01112B"/>
<path d="M23.989 56.9879C18.1063 56.9879 13.3354 52.1966 13.3354 46.3201C13.3354 40.4437 18.1204 35.6523 23.989 35.6523C29.8576 35.6523 34.6425 40.4437 34.6425 46.3201C34.6425 52.1966 29.8576 56.9879 23.989 56.9879ZM23.989 36.7515C18.7256 36.7515 14.4332 41.0496 14.4332 46.3201C14.4332 51.5906 18.7256 55.8887 23.989 55.8887C29.2524 55.8887 33.5448 51.5906 33.5448 46.3201C33.5448 41.0496 29.2524 36.7515 23.989 36.7515Z" fill="#01112B"/>
<path d="M25.0724 7.11613L25.0442 14.5709H22.9473L22.9754 7.11613C22.9754 6.67927 22.7362 6.2706 22.3562 6.04512L15.1506 1.95839C14.644 1.67655 14.4611 1.02831 14.7566 0.52099C15.0521 0.013672 15.6854 -0.169526 16.1921 0.126409L23.4117 4.21314C24.4531 4.80501 25.1005 5.91829 25.0864 7.11613H25.0724Z" fill="#01112B"/>
<path d="M81.9848 9.52544C82.0129 9.60999 82.0833 9.66636 82.1677 9.70864L84.5602 10.6246L82.224 11.4702C82.1537 11.4983 82.0833 11.5547 82.0551 11.6252L80.8448 14.1759L79.9582 11.7097C79.9301 11.6252 79.8738 11.5688 79.7893 11.5265L77.2983 10.4555L79.8315 9.72273C79.9301 9.69455 80.0004 9.62409 80.0286 9.53953L81.0137 6.9043L81.9988 9.53953L81.9848 9.52544Z" fill="#FFC200"/>
<path d="M77.4677 7.65149C77.7397 7.65149 77.9602 7.43067 77.9602 7.15827C77.9602 6.88586 77.7397 6.66504 77.4677 6.66504C77.1956 6.66504 76.9751 6.88586 76.9751 7.15827C76.9751 7.43067 77.1956 7.65149 77.4677 7.65149Z" fill="#FFC200"/>
<path d="M88.5292 6.81972C89.0655 6.81972 89.5002 6.38438 89.5002 5.84736C89.5002 5.31034 89.0655 4.875 88.5292 4.875C87.9929 4.875 87.5581 5.31034 87.5581 5.84736C87.5581 6.38438 87.9929 6.81972 88.5292 6.81972Z" fill="#FFC200"/>
<path d="M4.69404 6.89056C4.65182 6.97512 4.65182 7.05967 4.69404 7.14422L5.63695 9.5258L3.44151 8.37024C3.37114 8.32797 3.2867 8.32797 3.21633 8.34206L0.52832 9.1735L1.7527 6.84829C1.79492 6.77783 1.79492 6.69327 1.76678 6.60872L0.852008 4.04395L3.10375 5.42498C3.18819 5.48135 3.2867 5.48135 3.37114 5.45316L5.97472 4.41034L4.69404 6.91875V6.89056Z" fill="#FFC200"/>
<path d="M3.38515 2.46594C3.65718 2.46594 3.87771 2.24512 3.87771 1.97272C3.87771 1.70032 3.65718 1.47949 3.38515 1.47949C3.11311 1.47949 2.89258 1.70032 2.89258 1.97272C2.89258 2.24512 3.11311 2.46594 3.38515 2.46594Z" fill="#FFC200"/>
<path d="M11.8295 10.2162C12.3658 10.2162 12.8005 9.78086 12.8005 9.24384C12.8005 8.70682 12.3658 8.27148 11.8295 8.27148C11.2932 8.27148 10.8584 8.70682 10.8584 9.24384C10.8584 9.78086 11.2932 10.2162 11.8295 10.2162Z" fill="#FFC200"/>
</g>
<defs>
<clipPath id="clip0_655_1217">
<rect width="89" height="73.0256" fill="white" transform="translate(0.5)"/>
</clipPath>
</defs>
</svg>
