<svg width="78" height="97" viewBox="0 0 78 97" fill="none" xmlns="http://www.w3.org/2000/svg">
<path d="M74.0302 45.3208C79.0696 25.9743 67.4714 6.20567 48.1249 1.16628C28.7784 -3.87311 9.00971 7.72511 3.97032 27.0716C-1.06907 46.4181 10.5291 66.1868 29.8757 71.2262C49.2222 76.2656 68.9908 64.6674 74.0302 45.3208Z" fill="#FFC200"/>
<path d="M61.1067 37.9794C62.4802 36.815 62.3607 34.8444 61.6501 33.1963C60.9395 31.5422 59.0765 30.4674 57.291 30.6704C58.7241 29.6612 58.5331 27.6011 57.7209 26.0485C56.9088 24.4959 54.8726 23.7137 53.2304 24.3168C54.7591 23.0986 54.8129 21.0803 53.8156 19.3963C53.3976 18.6917 52.7527 18.1483 52.0122 17.8079C51.5942 16.1897 50.6627 14.7028 49.3072 13.7175C48.2204 12.9233 46.9067 12.4933 45.5691 12.4038C44.0105 11.3528 42.028 10.7377 40.3679 11.5499C35.6565 9.85994 29.9956 11.2573 26.6217 14.9476C26.0544 15.5686 25.5349 16.2792 25.3976 17.1033C25.2602 17.9333 25.6125 18.8888 26.3888 19.2172C24.2869 18.1961 22.4298 18.9962 20.8175 20.6862C19.2112 22.382 18.8529 25.1349 19.9815 27.1831C18.1781 27.2428 16.727 29.3626 16.2971 31.1182C15.8671 32.8739 16.739 34.8564 18.3095 35.7401C16.0881 35.9671 15.264 39.0244 15.9328 41.1562C16.3747 42.5535 17.7302 43.509 19.1694 43.706C17.9333 44.3151 16.8405 45.4915 16.3329 46.65C15.5327 48.4772 16.1777 50.824 17.8019 51.9884C19.4202 53.1528 21.8505 53.0215 23.3314 51.6839C22.8239 53.0872 23.8748 54.9861 25.2005 55.6608C26.5262 56.3416 28.1504 56.1923 29.5298 55.619C30.9032 55.0458 32.0796 54.0963 33.2381 53.1528C32.7603 53.4395 33.4709 54.156 33.6859 54.6696C33.9009 55.1831 34.3607 55.5534 34.8444 55.828C37.5255 57.3687 41.3353 56.461 43.0312 53.8754C42.9416 55.7206 44.3628 57.4523 46.214 57.506C48.0651 57.5598 49.7849 55.8997 49.8028 54.0545C50.9911 55.846 53.1767 56.3058 54.8726 54.9861C56.5685 53.6664 56.8133 50.8538 55.3682 49.2654C56.9327 50.6628 59.6676 51.5107 60.9575 49.8566C62.2473 48.2085 61.8293 45.4975 60.0976 44.3092C62.0263 44.7212 64.2656 43.9628 64.5164 42.0101C64.7672 40.0515 63.0952 38.069 61.1247 37.9794H61.1067Z" fill="#2E2E2E"/>
<path d="M45.7183 60.3905C45.8497 64.3436 42.7505 67.616 38.887 67.616C35.0235 67.616 32.0557 64.475 32.0557 60.6234C32.0557 60.5458 32.0557 60.4682 32.0557 60.3905L32.814 49.9584L32.9096 48.6149L33.3873 42.1299H44.3747L44.8644 48.8537L44.9719 50.3227L45.7123 60.3905H45.7183Z" fill="#F5F5FF" stroke="#2E2E2E" stroke-width="0.298572" stroke-linecap="round" stroke-linejoin="round"/>
<path d="M45.3903 55.2072C41.9269 55.6312 38.0216 53.9651 35.3762 50.5853C34.3014 49.2178 33.5549 47.713 33.125 46.1903L33.4355 41.9805H44.423L44.9126 48.7043L45.0261 50.1733L45.3903 55.2072Z" fill="#2E2E2E"/>
<path d="M49.0496 32.2706C47.6702 34.486 47.8016 37.1134 49.3482 38.1346C50.8948 39.1557 53.2654 38.1883 54.6448 35.9729C56.0242 33.7575 55.8929 31.1301 54.3463 30.1089C52.7996 29.0878 50.429 30.0552 49.0496 32.2706Z" fill="#F5F5FF" stroke="#2E2E2E" stroke-width="0.298572" stroke-linecap="round" stroke-linejoin="round"/>
<path d="M53.1875 31.1709C53.8563 31.4336 54.3639 32.0666 54.4714 32.7772C54.5788 33.4878 54.2862 34.2462 53.7249 34.694" stroke="#2E2E2E" stroke-width="0.298572" stroke-linecap="round" stroke-linejoin="round"/>
<path d="M28.6272 32.2706C30.0066 34.486 29.8753 37.1134 28.3287 38.1346C26.7821 39.1557 24.4114 38.1883 23.032 35.9729C21.6526 33.7575 21.784 31.1301 23.3306 30.1089C24.8772 29.0878 27.2478 30.0552 28.6272 32.2706Z" fill="#F5F5FF" stroke="#2E2E2E" stroke-width="0.298572" stroke-linecap="round" stroke-linejoin="round"/>
<path d="M24.4894 31.1709C23.8206 31.4336 23.3131 32.0666 23.2056 32.7772C23.0981 33.4878 23.3907 34.2462 23.952 34.694" stroke="#2E2E2E" stroke-width="0.298572" stroke-linecap="round" stroke-linejoin="round"/>
<path d="M52.627 28.1264C52.627 28.3294 52.627 28.5265 52.6091 28.7116C52.5852 29.2908 52.5314 29.87 52.4538 30.4373L52.3642 31.2494L52.3224 31.6913L52.2567 32.3303C52.2209 32.7184 52.1911 33.0946 52.1672 33.4768C52.1493 33.7216 52.1373 33.9605 52.1194 34.1993C52.0597 35.1607 52 36.1162 51.8567 37.0656C51.8567 37.0776 51.8507 37.0955 51.8507 37.1134C51.8208 37.2925 51.791 37.4776 51.7551 37.6568C51.7193 37.8538 51.6775 38.0449 51.6238 38.236C51.5581 38.5226 51.4745 38.8093 51.373 39.1019C51.3431 39.2094 51.3073 39.3049 51.2655 39.4124C51.1878 39.6214 51.0983 39.8364 51.0087 40.0513C50.7579 40.6067 50.4593 41.1501 50.113 41.6935C48.6858 43.9507 46.5003 46.0168 44.3088 47.3902C44.3028 47.4022 44.2849 47.4141 44.2789 47.4141C44.0102 47.5873 43.7415 47.7425 43.4787 47.8918C40.8095 49.3668 37.6446 49.4504 34.8739 48.1785C34.3006 47.9157 33.7453 47.6171 33.2138 47.2589C33.2079 47.2589 33.1959 47.2589 33.1899 47.2469C31.0701 45.8735 29.2488 43.885 27.8754 41.6994C27.7798 41.5502 27.6843 41.3949 27.5947 41.2396C27.5469 41.156 27.5051 41.0724 27.4574 40.9948C27.3797 40.8575 27.3081 40.7142 27.2305 40.5708C27.0095 40.1946 26.8184 39.8005 26.6453 39.4184C26.5975 39.3109 26.5497 39.2094 26.5079 39.0959C25.863 37.5612 25.6361 35.8415 25.4808 34.1516C25.4569 33.8888 25.4331 33.6201 25.4092 33.3574C25.3853 33.0648 25.3554 32.7662 25.3315 32.4736L25.2539 31.6794C25.236 31.5898 25.2181 31.5062 25.2061 31.4226C25.1823 31.3271 25.1703 31.2315 25.1584 31.136C25.0927 30.7717 25.0389 30.4134 24.9971 30.0372C24.9314 29.4281 24.8896 28.7892 24.8896 28.1383C24.8896 28.0846 24.8896 28.0249 24.8956 27.9711C24.8956 27.5651 24.9135 27.159 24.9494 26.7649C24.9792 26.4245 25.027 26.0901 25.0807 25.7677C25.3972 23.7613 26.1078 21.8982 27.1289 20.262C27.3857 19.85 27.6604 19.4558 27.953 19.0737C30.879 15.2878 35.8831 13.0843 41.0006 13.9084C45.091 14.5652 48.4171 17.0912 50.4116 20.3336C50.4713 20.4172 50.5191 20.5068 50.5788 20.6024C51.4745 22.149 52.1134 23.8807 52.412 25.7318C52.412 25.7438 52.418 25.7557 52.418 25.7677C52.4717 26.0961 52.5135 26.4305 52.5434 26.7649C52.5792 27.165 52.5971 27.5651 52.5971 27.9711C52.6031 28.0249 52.6031 28.0846 52.6031 28.1383L52.627 28.1264Z" fill="#F5F5FF" stroke="#2E2E2E" stroke-width="0.304543" stroke-linecap="round" stroke-linejoin="round"/>
<path d="M40.4877 11.9142C41.9567 13.2578 42.315 15.5747 41.3177 17.2706C40.3205 18.9665 38.0633 19.8801 36.0927 19.3905C36.7018 20.3041 36.2241 21.7074 35.5672 22.5971C34.9104 23.4809 33.6683 23.9347 32.5576 23.6899C33.4951 26.6159 31.5843 30.0435 28.8016 31.5662C29.554 33.0173 29.1539 35.3282 28.3597 36.7554C27.5655 38.1826 26.0249 39.2156 24.3469 39.4425C25.4576 40.6906 25.8517 42.691 25.2665 44.2257C24.6813 45.7663 23.1884 46.9546 21.4926 47.2353C20.1132 47.4622 17.9993 47.1099 17.4021 45.9036C16.805 44.6974 17.1872 43.115 18.2859 42.2849C17.6529 40.9891 17.2588 39.7769 17.1752 38.3498C17.0737 36.5762 17.4439 34.749 18.4591 33.2621C19.4742 31.7752 21.194 30.6824 23.0511 30.5869C21.4448 28.3118 21.0507 25.6067 22.2211 23.0987C23.3915 20.5907 25.9711 18.7336 28.8195 18.3455C28.7896 16.775 29.3987 15.2642 30.6706 14.2729C31.9426 13.2817 33.7041 12.8756 35.3105 13.216C35.7225 12.2785 37.2034 11.7231 38.2544 11.5559C39.3113 11.3947 40.4399 11.7769 41.1445 12.5472" fill="#2E2E2E"/>
<path d="M41.7174 12.6131C40.6426 14.5001 40.7023 16.9782 41.8727 18.8055C43.0431 20.6328 45.2645 21.7315 47.4261 21.5464C46.417 22.669 46.5961 24.5202 47.5277 25.7025C48.4652 26.8849 50.2865 27.2491 51.6061 26.5206C50.9314 27.0879 50.2447 27.9418 50.179 28.8196C50.1133 29.6974 50.6209 30.6409 51.4569 30.9096C52.2988 31.1783 53.3498 30.5453 53.3617 29.6616C53.3797 27.1834 54.9024 24.8486 54.0664 22.5138C53.2304 20.1789 51.3553 18.2382 49.0444 17.3306C48.2203 14.1358 45.0137 12.5713 41.7174 12.6131Z" fill="#2E2E2E"/>
<path d="M32.2769 38.4327C34.9647 38.4327 37.1436 36.2538 37.1436 33.5659C37.1436 30.8781 34.9647 28.6992 32.2769 28.6992C29.5891 28.6992 27.4102 30.8781 27.4102 33.5659C27.4102 36.2538 29.5891 38.4327 32.2769 38.4327Z" stroke="#2E2E2E" stroke-width="0.298572" stroke-linecap="round" stroke-linejoin="round"/>
<path d="M45.6773 38.4327C48.3651 38.4327 50.544 36.2538 50.544 33.5659C50.544 30.8781 48.3651 28.6992 45.6773 28.6992C42.9895 28.6992 40.8105 30.8781 40.8105 33.5659C40.8105 36.2538 42.9895 38.4327 45.6773 38.4327Z" stroke="#2E2E2E" stroke-width="0.298572" stroke-linecap="round" stroke-linejoin="round"/>
<path d="M37.1494 32.9926C37.6868 32.6821 38.3138 32.5029 38.9826 32.5029C39.6514 32.5029 40.2904 32.688 40.8338 33.0105" stroke="#2E2E2E" stroke-width="0.298572" stroke-linecap="round" stroke-linejoin="round"/>
<path d="M27.4101 33.5659L24.6572 29.8994" stroke="#2E2E2E" stroke-width="0.298572" stroke-linecap="round" stroke-linejoin="round"/>
<path d="M50.459 33.5659L53.2118 29.8994" stroke="#2E2E2E" stroke-width="0.298572" stroke-linecap="round" stroke-linejoin="round"/>
<path d="M41.2705 28.6269C41.5512 27.9401 42.1125 27.4385 42.7335 27.0862C43.3605 26.7399 44.0711 26.5548 44.7937 26.5309C45.5162 26.507 46.2328 26.6503 46.8777 26.9489C47.5166 27.2534 48.1078 27.7132 48.4482 28.3761L46.5313 28.3223C45.9521 28.3104 45.3968 28.3163 44.8534 28.3283C44.304 28.3462 43.7546 28.3761 43.1814 28.4238C42.5962 28.4716 42.005 28.5373 41.2765 28.6209L41.2705 28.6269Z" fill="#2E2E2E"/>
<path d="M36.5945 28.627C35.866 28.5434 35.2749 28.4777 34.6897 28.4299C34.1104 28.3821 33.5611 28.3523 33.0177 28.3344C32.4683 28.3164 31.9189 28.3164 31.3397 28.3284L29.4229 28.3821C29.7573 27.7193 30.3484 27.2595 30.9933 26.955C31.6383 26.6564 32.3608 26.5071 33.0774 26.537C33.7939 26.5608 34.5105 26.746 35.1375 27.0923C35.7585 27.4386 36.3199 27.9462 36.6005 28.6329L36.5945 28.627Z" fill="#2E2E2E"/>
<path d="M41.6094 33.4644C41.7408 33.1778 41.8841 32.8971 42.0214 32.6164L42.0334 32.5985C42.3737 32.085 42.8037 31.5894 43.371 31.2669C43.9323 30.9325 44.6071 30.7653 45.2579 30.8071C45.9088 30.837 46.5478 31.034 47.1031 31.3684C47.3778 31.5356 47.6286 31.7327 47.8615 31.9476C48.0944 32.1566 48.3034 32.4134 48.387 32.7299C48.4049 32.8135 48.3631 32.8911 48.2855 32.909C48.2556 32.915 48.2198 32.909 48.1899 32.9031C47.8854 32.7657 47.6823 32.5926 47.4614 32.4134C47.2405 32.2402 47.0076 32.091 46.7627 31.9715C46.2791 31.7207 45.7536 31.5714 45.2161 31.5296C44.6847 31.4878 44.1473 31.5834 43.6636 31.8163C43.1799 32.0551 42.7499 32.4194 42.3737 32.8553L42.3857 32.8374C42.2006 33.0882 42.0214 33.3509 41.8244 33.5958C41.7826 33.6555 41.699 33.6614 41.6392 33.6196C41.5915 33.5838 41.5736 33.5181 41.5974 33.4644H41.6094Z" fill="#2E2E2E"/>
<path d="M43.8074 32.3596C43.8492 31.7565 44.3746 31.3027 44.9837 31.3445C45.5868 31.3863 46.0407 31.9118 45.9989 32.5208C45.9571 33.124 45.4316 33.5778 44.8225 33.536C44.2194 33.4942 43.7656 32.9687 43.8074 32.3596Z" fill="#2E2E2E"/>
<path d="M47.1221 33.3635C47.5281 33.2739 47.9103 33.0888 48.2328 32.832" stroke="#2E2E2E" stroke-width="0.298572" stroke-linecap="round" stroke-linejoin="round"/>
<path d="M36.031 33.6015C35.8399 33.3507 35.6608 33.0939 35.4697 32.8431L35.4817 32.861C35.1114 32.4251 34.6755 32.0609 34.1918 31.822C33.7081 31.5891 33.1767 31.4936 32.6393 31.5354C32.1018 31.5772 31.5704 31.7265 31.0927 31.9773C30.8478 32.1027 30.6149 32.252 30.394 32.4192C30.1731 32.5923 29.97 32.7715 29.6655 32.9088C29.5938 32.9387 29.5102 32.9088 29.4744 32.8372C29.4625 32.8073 29.4565 32.7715 29.4684 32.7416C29.552 32.4251 29.761 32.1684 29.9939 31.9594C30.2268 31.7444 30.4776 31.5473 30.7523 31.3801C31.3017 31.0457 31.9466 30.8487 32.5975 30.8188C33.2543 30.777 33.9291 30.9442 34.4844 31.2786C35.0577 31.6011 35.4817 32.0967 35.822 32.6102L35.834 32.6282C35.9713 32.9148 36.1146 33.1895 36.246 33.4761C36.2759 33.5418 36.246 33.6194 36.1803 33.6493C36.1266 33.6732 36.0609 33.6552 36.0251 33.6075L36.031 33.6015Z" fill="#2E2E2E"/>
<path d="M34.0545 32.3596C34.0127 31.7565 33.4873 31.3027 32.8782 31.3445C32.2751 31.3863 31.8212 31.9118 31.863 32.5208C31.9048 33.124 32.4303 33.5778 33.0394 33.536C33.6425 33.4942 34.0963 32.9687 34.0545 32.3596Z" fill="#2E2E2E"/>
<path d="M30.7464 33.3635C30.3404 33.2739 29.9582 33.0888 29.6357 32.832" stroke="#2E2E2E" stroke-width="0.298572" stroke-linecap="round" stroke-linejoin="round"/>
<path d="M37.0293 38.3784C37.4831 37.7932 38.1997 37.4289 38.9282 37.4229C39.6508 37.417 40.3733 37.7633 40.8331 38.3425" stroke="#2E2E2E" stroke-width="0.274686" stroke-linecap="round" stroke-linejoin="round"/>
<path d="M39.0491 42.5351C39.5388 42.5351 40.0285 42.4993 40.5121 42.4396C40.6614 42.4216 42.1125 42.2246 42.1065 42.129C42.1065 42.129 41.3601 41.5558 41.0973 41.3348L40.9839 41.2333C40.7032 40.9825 40.4166 40.7258 40.0583 40.5944C39.706 40.475 39.2283 40.5287 38.9536 40.8392C38.6908 40.5227 38.2191 40.457 37.8548 40.5645C37.4906 40.684 37.198 40.9348 36.9114 41.1736L36.7919 41.2751C36.5232 41.4901 35.7589 42.0454 35.7589 42.0454C35.7469 42.1649 37.0129 42.3858 37.1562 42.4037C37.6876 42.4814 38.2251 42.5232 38.7625 42.5351C38.858 42.5351 38.9476 42.5351 39.0432 42.5351H39.0491Z" fill="#2E2E2E"/>
<path d="M37.1797 43.4854C38.2844 44.1362 39.7295 44.1601 40.8521 43.5391L37.1797 43.4854Z" fill="#F5F5FF"/>
<path d="M37.1797 43.4854C38.2844 44.1362 39.7295 44.1601 40.8521 43.5391" stroke="#2E2E2E" stroke-width="0.304543" stroke-linecap="round" stroke-linejoin="round"/>
<path d="M8.54016 93.442C13.389 95.6275 17.8198 96.3023 18.4289 94.9468C19.0379 93.5913 15.6044 90.719 10.7556 88.5275C5.90676 86.3419 1.47595 85.6672 0.866867 87.0227C0.257781 88.3782 3.69136 91.2505 8.54016 93.442Z" fill="#012251"/>
<path d="M15.0428 96.8521L19.9632 85.154L20.7753 83.2133L22.1189 80.0186L23.0086 77.9047L24.5194 74.298L25.8212 71.2047C27.6246 66.9113 25.9108 62.1341 22.101 60.7965C21.4382 60.5636 20.7514 60.4502 20.0767 60.4502C19.4736 60.4502 18.8764 60.5398 18.2912 60.707C15.9325 61.3698 13.8306 63.3344 12.8691 66.0753L10.0267 74.1964L8.61749 78.2212L2.15639 96.6789C2.13848 96.7386 2.11459 96.7924 2.09668 96.8521" fill="#F5F5FF"/>
<path d="M15.0428 96.8521L19.9632 85.154L20.7753 83.2133L22.1189 80.0186L23.0086 77.9047L24.5194 74.298L25.8212 71.2047C27.6246 66.9113 25.9108 62.1341 22.101 60.7965C21.4382 60.5636 20.7514 60.4502 20.0767 60.4502C19.4736 60.4502 18.8764 60.5398 18.2912 60.707C15.9325 61.3698 13.8306 63.3344 12.8691 66.0753L10.0267 74.1964L8.61749 78.2212L2.15639 96.6789C2.13848 96.7386 2.11459 96.7924 2.09668 96.8521" stroke="#2E2E2E" stroke-width="0.298572" stroke-linecap="round" stroke-linejoin="round"/>
<path d="M0.920898 86.873C1.81661 85.7384 6.06828 86.455 10.7021 88.539C15.5509 90.7305 18.9905 93.6028 18.3754 94.9643C18.3635 94.9941 18.3455 95.018 18.3217 95.0479L18.3754 95.0718L28.8612 70.1171C30.9632 65.1847 28.694 59.5656 23.9169 57.8936C23.0152 57.5771 22.0956 57.4219 21.176 57.4219C17.9037 57.4219 14.7687 59.3626 13.1564 62.5095L0.920898 86.873Z" fill="#0544A8"/>
<path d="M9.04159 78.2209C9.37468 78.2209 9.64471 77.9509 9.64471 77.6178C9.64471 77.2847 9.37468 77.0146 9.04159 77.0146C8.7085 77.0146 8.43848 77.2847 8.43848 77.6178C8.43848 77.9509 8.7085 78.2209 9.04159 78.2209Z" fill="#F5F5FF"/>
<path d="M10.1758 84.7407C10.1758 85.2125 10.558 85.6006 11.0357 85.6006C11.5134 85.6006 11.8956 85.2185 11.8956 84.7407C11.8956 84.263 11.5134 83.8809 11.0357 83.8809C10.558 83.8809 10.1758 84.263 10.1758 84.7407Z" fill="#F5F5FF"/>
<path d="M13.6094 73.4971C13.6094 73.8972 13.2809 74.2256 12.8809 74.2256C12.4808 74.2256 12.1523 73.8972 12.1523 73.4971C12.1523 73.097 12.4808 72.7686 12.8809 72.7686C13.2809 72.7686 13.6094 73.097 13.6094 73.4971Z" fill="#3F9BF2"/>
<path d="M69.4597 93.442C64.6109 95.6275 60.1801 96.3023 59.571 94.9468C58.9619 93.5913 62.3955 90.719 67.2443 88.5275C72.0931 86.3419 76.5239 85.6672 77.133 87.0227C77.742 88.3782 74.3085 91.2505 69.4597 93.442Z" fill="#012251"/>
<path d="M62.9579 96.8521L58.0375 85.154L57.2253 83.2133L55.8818 80.0186L54.992 77.9047L53.4812 74.298L52.1795 71.2047C50.3761 66.9113 52.0899 62.1341 55.8997 60.7965C56.5625 60.5636 57.2492 60.4502 57.924 60.4502C58.5271 60.4502 59.1243 60.5398 59.7095 60.707C62.0682 61.3698 64.1701 63.3344 65.1315 66.0753L67.9739 74.1964L69.3832 78.2212L75.8443 96.6789C75.8622 96.7386 75.8861 96.7924 75.904 96.8521" fill="#F5F5FF"/>
<path d="M62.9579 96.8521L58.0375 85.154L57.2253 83.2133L55.8818 80.0186L54.992 77.9047L53.4812 74.298L52.1795 71.2047C50.3761 66.9113 52.0899 62.1341 55.8997 60.7965C56.5625 60.5636 57.2492 60.4502 57.924 60.4502C58.5271 60.4502 59.1243 60.5398 59.7095 60.707C62.0682 61.3698 64.1701 63.3344 65.1315 66.0753L67.9739 74.1964L69.3832 78.2212L75.8443 96.6789C75.8622 96.7386 75.8861 96.7924 75.904 96.8521" stroke="#2E2E2E" stroke-width="0.298572" stroke-linecap="round" stroke-linejoin="round"/>
<path d="M77.0799 86.873C76.1842 85.7384 71.9326 86.455 67.2987 88.539C62.4499 90.7305 59.0104 93.6028 59.6254 94.9643C59.6374 94.9941 59.6553 95.018 59.6792 95.0479L59.6254 95.0718L49.1456 70.1171C47.0436 65.1847 49.3128 59.5656 54.0899 57.8936C54.9916 57.5771 55.9112 57.4219 56.8308 57.4219C60.1032 57.4219 63.2382 59.3626 64.8504 62.5095L77.0799 86.879V86.873Z" fill="#0544A8"/>
<path d="M62.5332 63.9897C62.5332 64.3182 62.2644 64.5869 61.936 64.5869C61.6076 64.5869 61.3389 64.3182 61.3389 63.9897C61.3389 63.6613 61.6076 63.3926 61.936 63.3926C62.2644 63.3926 62.5332 63.6613 62.5332 63.9897Z" fill="#F5F5FF"/>
<path d="M68.9586 78.2189C69.2917 78.2189 69.5617 77.9489 69.5617 77.6158C69.5617 77.2827 69.2917 77.0127 68.9586 77.0127C68.6255 77.0127 68.3555 77.2827 68.3555 77.6158C68.3555 77.9489 68.6255 78.2189 68.9586 78.2189Z" fill="#F5F5FF"/>
<path d="M64.5156 73.2383C64.5156 73.6384 64.1872 73.9668 63.7871 73.9668C63.387 73.9668 63.0586 73.6384 63.0586 73.2383C63.0586 72.8382 63.387 72.5098 63.7871 72.5098C64.1872 72.5098 64.5156 72.8382 64.5156 73.2383Z" fill="#3F9BF2"/>
<path d="M67.8243 84.7398C67.8243 85.2115 67.4421 85.5997 66.9644 85.5997C66.4867 85.5997 66.1045 85.2175 66.1045 84.7398C66.1045 84.2621 66.4867 83.8799 66.9644 83.8799C67.4421 83.8799 67.8243 84.2621 67.8243 84.7398Z" fill="#F5F5FF"/>
<path d="M60.8134 86.5913C60.8134 86.9197 60.5447 87.1884 60.2163 87.1884C59.8879 87.1884 59.6191 86.9197 59.6191 86.5913C59.6191 86.2629 59.8879 85.9941 60.2163 85.9941C60.5447 85.9941 60.8134 86.2629 60.8134 86.5913Z" fill="#3F9BF2"/>
<path d="M60.9224 68.3559L59.3937 75.6649C59.6982 76.3337 59.9371 77.0383 60.0983 77.7728C60.2655 78.5372 60.3551 79.3254 60.3551 80.1375C60.3551 81.1049 60.2297 82.0484 59.9849 82.9441C59.7818 83.7204 59.4952 84.4608 59.1309 85.1535C58.5338 86.3 57.7456 87.3331 56.7961 88.1989L54.9987 96.8516H22.6514L20.854 87.9541C20.2031 87.3211 19.6299 86.5986 19.1522 85.8163C18.5849 84.8848 18.149 83.8637 17.8803 82.7769C17.6713 81.9349 17.5578 81.0511 17.5578 80.1375C17.5578 79.2239 17.6772 78.3102 17.8922 77.4504C18.0295 76.907 18.2027 76.3815 18.4117 75.8739L16.895 68.3559C16.2441 65.5851 16.3695 62.8741 17.3488 60.8319C18.1549 59.136 19.5523 57.9058 21.5825 57.4699C22.0961 57.3624 22.6574 57.3027 23.2605 57.3027H55.351C55.9482 57.3027 56.4975 57.3624 56.9991 57.4699C58.9219 57.8879 60.1461 59.0763 60.8029 60.7065C61.6449 62.7666 61.5852 65.5314 60.9224 68.3559Z" fill="#0544A8"/>
<path d="M60.971 68.3557C60.7441 69.5798 60.541 70.81 60.2962 72.0281C60.0633 73.2523 59.8304 74.4704 59.5737 75.6886V75.605C60.0454 76.656 60.3619 77.7786 60.4873 78.9311C60.6067 80.0836 60.541 81.248 60.3022 82.3766C60.0693 83.5052 59.6214 84.5861 59.0422 85.5773C58.457 86.5686 57.6986 87.4464 56.8447 88.1988C57.6628 87.4046 58.3495 86.485 58.8929 85.4937C59.4423 84.5025 59.8185 83.4276 60.0454 82.3229C60.4873 80.1135 60.2305 77.7726 59.3169 75.7125C59.305 75.6886 59.305 75.6588 59.3109 75.6289C59.5677 74.4107 59.8424 73.1985 60.1171 71.9804C60.3858 70.7622 60.6844 69.556 60.965 68.3438L60.971 68.3557Z" fill="white"/>
<path d="M20.9033 87.9597C20.1091 87.2133 19.4045 86.3593 18.867 85.3979C18.3296 84.4425 17.9235 83.4035 17.7026 82.3227C17.4817 81.2418 17.416 80.1252 17.5235 79.0264C17.625 77.9277 17.9116 76.8469 18.3415 75.8257V75.9034C17.834 73.3954 17.3801 70.8754 16.9502 68.3555C17.5294 70.8456 18.0907 73.3476 18.5983 75.8496C18.5983 75.8795 18.5983 75.9034 18.5923 75.9272C17.7743 77.9217 17.5414 80.149 17.9534 82.2629C18.1624 83.3199 18.5087 84.3529 19.0163 85.3084C19.5179 86.2638 20.1509 87.1655 20.9093 87.9477L20.9033 87.9597Z" fill="white"/>
<path d="M45.3668 56.9269L48.6212 57.4166C47.1761 61.1666 43.4678 64.0628 39.4192 64.236C35.072 64.427 30.8442 61.4533 29.3096 57.4166L32.4685 56.6582" fill="#F5F5FF"/>
<path d="M45.3668 56.9269L48.6212 57.4166C47.1761 61.1666 43.4678 64.0628 39.4192 64.236C35.072 64.427 30.8442 61.4533 29.3096 57.4166L32.4685 56.6582" stroke="#2E2E2E" stroke-width="0.298572" stroke-linecap="round" stroke-linejoin="round"/>
<path d="M24.4609 72.582C24.4609 72.9821 24.1325 73.3105 23.7324 73.3105C23.3323 73.3105 23.0039 72.9821 23.0039 72.582C23.0039 72.1819 23.3323 71.8535 23.7324 71.8535C24.1325 71.8535 24.4609 72.1819 24.4609 72.582Z" fill="#F5F5FF"/>
<path d="M31.5959 90.4244C31.5959 91.1888 30.9749 91.8098 30.2106 91.8098C29.4462 91.8098 28.8252 91.1888 28.8252 90.4244C28.8252 89.6601 29.4462 89.0391 30.2106 89.0391C30.9749 89.0391 31.5959 89.6601 31.5959 90.4244Z" fill="#3F9BF2"/>
<path d="M52.8775 78.7264C52.8775 79.2399 52.4655 79.6519 51.9519 79.6519C51.4384 79.6519 51.0264 79.2399 51.0264 78.7264C51.0264 78.2128 51.4384 77.8008 51.9519 77.8008C52.4655 77.8008 52.8775 78.2128 52.8775 78.7264Z" fill="#F5F5FF"/>
<path d="M40.2547 77.9323C41.3134 77.9323 42.1716 77.0741 42.1716 76.0155C42.1716 74.9568 41.3134 74.0986 40.2547 74.0986C39.1961 74.0986 38.3379 74.9568 38.3379 76.0155C38.3379 77.0741 39.1961 77.9323 40.2547 77.9323Z" fill="#3F9BF2"/>
<path d="M56.3174 61.875C56.3174 62.2751 55.989 62.6035 55.5889 62.6035C55.1888 62.6035 54.8604 62.2751 54.8604 61.875C54.8604 61.4749 55.1888 61.1465 55.5889 61.1465C55.989 61.1465 56.3174 61.4749 56.3174 61.875Z" fill="#F5F5FF"/>
<path d="M24.4602 62.8004C24.4602 63.5648 23.8392 64.1858 23.0748 64.1858C22.3105 64.1858 21.6895 63.5648 21.6895 62.8004C21.6895 62.0361 22.3105 61.415 23.0748 61.415C23.8392 61.415 24.4602 62.0361 24.4602 62.8004Z" fill="#3F9BF2"/>
<path d="M47.5279 92.6046C48.1479 92.6046 48.6505 92.102 48.6505 91.482C48.6505 90.862 48.1479 90.3594 47.5279 90.3594C46.9079 90.3594 46.4053 90.862 46.4053 91.482C46.4053 92.102 46.9079 92.6046 47.5279 92.6046Z" fill="#F5F5FF"/>
<path d="M24.0667 85.2057C24.6504 85.2057 25.1237 84.7325 25.1237 84.1487C25.1237 83.565 24.6504 83.0918 24.0667 83.0918C23.483 83.0918 23.0098 83.565 23.0098 84.1487C23.0098 84.7325 23.483 85.2057 24.0667 85.2057Z" fill="#F5F5FF"/>
<path d="M50.7642 68.9451C50.7642 69.4586 50.3522 69.8707 49.8387 69.8707C49.3251 69.8707 48.9131 69.4586 48.9131 68.9451C48.9131 68.4316 49.3251 68.0195 49.8387 68.0195C50.3522 68.0195 50.7642 68.4316 50.7642 68.9451Z" fill="#F5F5FF"/>
<path d="M34.9046 70.3961C35.4883 70.3961 35.9615 69.9229 35.9615 69.3392C35.9615 68.7554 35.4883 68.2822 34.9046 68.2822C34.3209 68.2822 33.8477 68.7554 33.8477 69.3392C33.8477 69.9229 34.3209 70.3961 34.9046 70.3961Z" fill="#F5F5FF"/>
<path d="M40.9828 93.2668C40.9828 93.5594 40.744 93.7983 40.4514 93.7983C40.1588 93.7983 39.9199 93.5594 39.9199 93.2668C39.9199 92.9742 40.1588 92.7354 40.4514 92.7354C40.744 92.7354 40.9828 92.9742 40.9828 93.2668Z" fill="#F5F5FF"/>
</svg>
