<svg width="344" height="178" viewBox="0 0 344 178" fill="none" xmlns="http://www.w3.org/2000/svg">
<g clip-path="url(#clip0_242_1784)">
<path d="M335.906 0H8.09412C3.62386 0 0 3.15617 0 7.0495V170.95C0 174.844 3.62386 178 8.09412 178H335.906C340.376 178 344 174.844 344 170.95V7.0495C344 3.15617 340.376 0 335.906 0Z" fill="url(#paint0_linear_242_1784)"/>
<mask id="mask0_242_1784" style="mask-type:alpha" maskUnits="userSpaceOnUse" x="0" y="0" width="344" height="178">
<path d="M335.906 0H8.09412C3.62386 0 0 3.15617 0 7.0495V170.95C0 174.844 3.62386 178 8.09412 178H335.906C340.376 178 344 174.844 344 170.95V7.0495C344 3.15617 340.376 0 335.906 0Z" fill="#0544AB"/>
</mask>
<g mask="url(#mask0_242_1784)">
<g style="mix-blend-mode:lighten" opacity="0.7">
<path d="M223.255 321.648C298.106 321.648 358.785 273.413 358.785 213.912C358.785 154.41 298.106 106.175 223.255 106.175C148.404 106.175 87.7251 154.41 87.7251 213.912C87.7251 273.413 148.404 321.648 223.255 321.648Z" fill="#5D85C8"/>
</g>
<g style="mix-blend-mode:overlay" opacity="0.7">
<path d="M305.066 291.982C371.752 291.982 425.811 249.165 425.811 196.346C425.811 143.528 371.752 100.71 305.066 100.71C238.381 100.71 184.321 143.528 184.321 196.346C184.321 249.165 238.381 291.982 305.066 291.982Z" fill="#01112B"/>
</g>
</g>
</g>
<defs>
<linearGradient id="paint0_linear_242_1784" x1="109.903" y1="31.6184" x2="237.128" y2="282.846" gradientUnits="userSpaceOnUse">
<stop stop-color="#022867"/>
<stop offset="1" stop-color="#086CE2"/>
</linearGradient>
<clipPath id="clip0_242_1784">
<rect width="344" height="178" fill="white"/>
</clipPath>
</defs>
</svg>
