<svg width="16" height="16" viewBox="0 0 16 16" fill="none" xmlns="http://www.w3.org/2000/svg">
<path d="M6.66683 3.99967H9.3335C9.3335 3.64605 9.19302 3.30691 8.94297 3.05687C8.69292 2.80682 8.35379 2.66634 8.00016 2.66634C7.64654 2.66634 7.3074 2.80682 7.05735 3.05687C6.80731 3.30691 6.66683 3.64605 6.66683 3.99967ZM5.3335 3.99967C5.3335 3.29243 5.61445 2.61415 6.11454 2.11406C6.61464 1.61396 7.29292 1.33301 8.00016 1.33301C8.70741 1.33301 9.38568 1.61396 9.88578 2.11406C10.3859 2.61415 10.6668 3.29243 10.6668 3.99967H14.0002C14.177 3.99967 14.3465 4.06991 14.4716 4.19494C14.5966 4.31996 14.6668 4.48953 14.6668 4.66634C14.6668 4.84315 14.5966 5.01272 14.4716 5.13775C14.3465 5.26277 14.177 5.33301 14.0002 5.33301H13.4122L12.8215 12.2263C12.7647 12.892 12.4601 13.5121 11.9681 13.9639C11.476 14.4157 10.8322 14.6664 10.1642 14.6663H5.83616C5.1681 14.6664 4.52435 14.4157 4.03226 13.9639C3.54018 13.5121 3.23561 12.892 3.17883 12.2263L2.58816 5.33301H2.00016C1.82335 5.33301 1.65378 5.26277 1.52876 5.13775C1.40373 5.01272 1.3335 4.84315 1.3335 4.66634C1.3335 4.48953 1.40373 4.31996 1.52876 4.19494C1.65378 4.06991 1.82335 3.99967 2.00016 3.99967H5.3335ZM10.0002 7.99967C10.0002 7.82286 9.92992 7.65329 9.8049 7.52827C9.67988 7.40325 9.51031 7.33301 9.3335 7.33301C9.15669 7.33301 8.98712 7.40325 8.86209 7.52827C8.73707 7.65329 8.66683 7.82286 8.66683 7.99967V10.6663C8.66683 10.8432 8.73707 11.0127 8.86209 11.1377C8.98712 11.2628 9.15669 11.333 9.3335 11.333C9.51031 11.333 9.67988 11.2628 9.8049 11.1377C9.92992 11.0127 10.0002 10.8432 10.0002 10.6663V7.99967ZM6.66683 7.33301C6.84364 7.33301 7.01321 7.40325 7.13823 7.52827C7.26326 7.65329 7.3335 7.82286 7.3335 7.99967V10.6663C7.3335 10.8432 7.26326 11.0127 7.13823 11.1377C7.01321 11.2628 6.84364 11.333 6.66683 11.333C6.49002 11.333 6.32045 11.2628 6.19543 11.1377C6.0704 11.0127 6.00016 10.8432 6.00016 10.6663V7.99967C6.00016 7.82286 6.0704 7.65329 6.19543 7.52827C6.32045 7.40325 6.49002 7.33301 6.66683 7.33301ZM4.50683 12.113C4.53523 12.4459 4.68761 12.7561 4.93379 12.982C5.17997 13.208 5.50202 13.3332 5.83616 13.333H10.1642C10.4981 13.3329 10.8198 13.2075 11.0657 12.9816C11.3116 12.7557 11.4638 12.4457 11.4922 12.113L12.0735 5.33301H3.92683L4.50683 12.113Z" fill="#1B1F24"/>
</svg>
