<svg width="48" height="48" viewBox="0 0 48 48" fill="none" xmlns="http://www.w3.org/2000/svg">
<g clip-path="url(#clip0_42_730)">
<path d="M44.0004 23.7529V42.9951C43.7862 43.5058 43.259 43.8353 42.6989 43.8024C31.0185 43.8024 19.3546 43.8024 7.67417 43.8024C7.04814 43.8847 6.47153 43.4564 6.38916 42.8304C6.38916 42.7315 6.38916 42.6162 6.38916 42.5173V23.7529H43.5885C43.7203 23.7529 43.8521 23.7529 44.0004 23.7529Z" fill="#ECF5FE"/>
<path d="M44.0002 17.3602C44.0002 17.3602 43.9013 17.2284 43.8519 17.1625C42.6657 14.7902 41.4631 12.4014 40.2769 10.0126C40.244 9.94671 40.211 9.86434 40.1616 9.74902C41.1501 9.74902 42.1221 9.71607 43.0776 9.74902C43.5718 9.76549 43.8354 10.1609 44.0002 10.5892V17.3437V17.3602Z" fill="#ECF5FE"/>
<path d="M6.83398 21.5117L7.77303 19.6172C9.66759 15.828 11.5622 12.0389 13.4567 8.23329C13.6874 7.67316 14.264 7.31072 14.8735 7.36015C21.7598 7.36015 28.6462 7.36015 35.5325 7.36015C36.1256 7.31072 36.6857 7.65669 36.9164 8.21682C39.058 12.5331 41.1997 16.833 43.3743 21.1328C43.4238 21.2481 43.4732 21.347 43.5391 21.4952H6.83398V21.5117ZM25.203 17.9203C27.147 17.9203 29.091 17.9203 31.035 17.9203C32.3365 17.9368 33.4073 16.9153 33.4402 15.6139C33.4567 14.3124 32.4353 13.2415 31.1338 13.2086C27.18 13.1921 23.2261 13.1921 19.2887 13.2086C18.3332 13.1756 17.4765 13.7687 17.147 14.6583C16.6363 15.8445 17.1964 17.2284 18.3991 17.7391C18.7121 17.8709 19.0416 17.9368 19.3875 17.9203C21.3315 17.9368 23.2755 17.9203 25.2195 17.9203" fill="#ECF5FE"/>
<path d="M6.38916 17.2779V10.8199C6.38916 10.2597 6.80102 9.79844 7.36115 9.74902C8.3002 9.71607 9.23924 9.74902 10.2442 9.74902L6.47153 17.3108L6.38916 17.2779Z" fill="#ECF5FE"/>
<path d="M41.6112 40.6221C41.397 41.1328 40.8699 41.4623 40.3097 41.4293C28.6293 41.4293 16.9654 41.4293 5.28501 41.4293C4.65898 41.5117 4.08237 41.0833 4 40.4573C4 40.3585 4 40.2431 4 40.1443V21.3799C4 21.3799 41.4629 21.3799 41.5947 21.3799V40.6221H41.6112Z" stroke="#0544AB" stroke-linejoin="round"/>
<path d="M41.611 15.0057C41.611 15.0057 41.5122 14.8739 41.4627 14.808C40.2766 12.4357 39.0739 10.0469 37.8878 7.65812C37.8548 7.59222 37.8219 7.50985 37.7725 7.39453C38.7609 7.39453 39.7329 7.36158 40.6884 7.39453C41.1827 7.411 41.4463 7.80639 41.611 8.23472V14.9893V15.0057Z" fill="#FFC200"/>
<path d="M5.54834 16.9651C7.39348 13.2749 9.23862 9.56811 11.0838 5.87782C11.3144 5.31769 11.891 4.95526 12.5006 5.00468C19.3869 5.00468 26.2732 5.00468 33.1595 5.00468C33.7526 4.95526 34.3128 5.30122 34.5434 5.86135C36.4709 9.74933 38.4149 13.6373 40.3589 17.5253M22.8136 15.5483C24.7576 15.5483 26.7016 15.5483 28.6455 15.5483C29.947 15.5648 31.0179 14.5434 31.0508 13.2419C31.0673 11.9404 30.0459 10.8696 28.7444 10.8366C24.7905 10.8202 20.8366 10.8202 16.8992 10.8366C15.9437 10.8037 15.0871 11.3968 14.7576 12.2864C14.2469 13.4726 14.807 14.8564 16.0096 15.3671C16.3226 15.4989 16.6521 15.5648 16.9981 15.5483C18.9421 15.5648 20.8861 15.5483 22.8301 15.5483" stroke="#0544AB" stroke-miterlimit="10" stroke-linecap="round"/>
<path d="M4.01611 14.9048V8.44681C4.01611 7.88668 4.42798 7.4254 4.98811 7.37597C5.92715 7.34302 6.8662 7.37597 7.87114 7.37597L4.09849 14.9378L4.01611 14.9048Z" fill="#FFC200"/>
</g>
<defs>
<clipPath id="clip0_42_730">
<rect width="48" height="48" fill="white"/>
</clipPath>
</defs>
</svg>
