<svg width="88" height="69" viewBox="0 0 88 69" fill="none" xmlns="http://www.w3.org/2000/svg">
<g clip-path="url(#clip0_712_1288)">
<path opacity="0.8" d="M43.0434 69.0002C64.987 69.0002 82.7758 67.7223 82.7758 66.1459C82.7758 64.5694 64.987 63.2915 43.0434 63.2915C21.0998 63.2915 3.31104 64.5694 3.31104 66.1459C3.31104 67.7223 21.0998 69.0002 43.0434 69.0002Z" fill="#021126"/>
<path d="M30.1074 10.7007L32.8924 15.7317C33.6863 17.1654 35.2089 18.0647 36.8487 18.0647H75.0454C77.5441 18.0647 79.5744 20.0979 79.5744 22.6004V58.3386C79.5744 60.841 77.5441 62.8743 75.0454 62.8743H11.3148C8.81611 62.8743 6.78589 60.841 6.78589 58.3386V12.9034C6.78589 10.4009 8.81611 8.36768 11.3148 8.36768H26.151C27.7908 8.36768 29.3135 9.267 30.1074 10.7007Z" fill="#0544A8" stroke="#021126" stroke-miterlimit="10"/>
<path opacity="0.2" d="M30.1074 10.7007L32.8924 15.7317C33.6863 17.1654 35.2089 18.0647 36.8487 18.0647H75.0454C77.5441 18.0647 79.5744 20.0979 79.5744 22.6004V58.3386C79.5744 60.841 77.5441 62.8743 75.0454 62.8743H11.3148C8.81611 62.8743 6.78589 60.841 6.78589 58.3386V12.9034C6.78589 10.4009 8.81611 8.36768 11.3148 8.36768H26.151C27.7908 8.36768 29.3135 9.267 30.1074 10.7007Z" fill="black"/>
<path d="M74.1344 14.8325H12.8635V55.0543H74.1344V14.8325Z" fill="#FFC200"/>
<path d="M56.2529 14.0892L53.4679 19.1202C52.674 20.5539 51.1513 21.4532 49.5115 21.4532H11.3148C8.81611 21.4532 6.78589 23.4865 6.78589 25.9889V61.7271C6.78589 64.2296 8.81611 66.2628 11.3148 66.2628H75.0454C77.5441 66.2628 79.5744 64.2296 79.5744 61.7271V16.2789C79.5744 13.7764 77.5441 11.7432 75.0454 11.7432H60.2092C58.5694 11.7432 57.0468 12.6425 56.2529 14.0762V14.0892Z" fill="#0544A8" stroke="#021126" stroke-miterlimit="10"/>
<path d="M4.85976 5.16121C4.85976 5.16121 4.76866 5.29155 4.76866 5.36975L4.83373 7.72883L3.29806 6.02143C3.29806 6.02143 3.18093 5.93019 3.10284 5.93019L0.5 5.78682L2.29596 4.15762C2.29596 4.15762 2.38706 4.02728 2.38706 3.94908L2.4261 1.43359L3.93575 3.34954C3.98781 3.4147 4.07891 3.45381 4.17001 3.45381L6.75984 3.3756L4.84675 5.13514L4.85976 5.16121Z" fill="#FFC200"/>
<path d="M5.28924 0.912354C5.5408 0.912354 5.74474 0.708116 5.74474 0.456177C5.74474 0.204237 5.5408 0 5.28924 0C5.03767 0 4.83374 0.204237 4.83374 0.456177C4.83374 0.708116 5.03767 0.912354 5.28924 0.912354Z" fill="#FFC200"/>
<path d="M10.5601 6.38653C11.056 6.38653 11.4581 5.98389 11.4581 5.48721C11.4581 4.99053 11.056 4.58789 10.5601 4.58789C10.0641 4.58789 9.66211 4.99053 9.66211 5.48721C9.66211 5.98389 10.0641 6.38653 10.5601 6.38653Z" fill="#FFC200"/>
<path d="M2.36095 17.4648C2.86407 17.4648 3.27194 17.0564 3.27194 16.5525C3.27194 16.0486 2.86407 15.6401 2.36095 15.6401C1.85782 15.6401 1.44995 16.0486 1.44995 16.5525C1.44995 17.0564 1.85782 17.4648 2.36095 17.4648Z" fill="#FFC200"/>
<path d="M80.5505 5.50043C80.5766 5.57863 80.6416 5.63076 80.7197 5.66986L82.9321 6.51705L80.7718 7.29907C80.7067 7.32513 80.6416 7.37727 80.6156 7.44244L79.4964 9.80152L78.6765 7.52064C78.6505 7.44244 78.5984 7.3903 78.5203 7.3512L76.2168 6.36065L78.5594 5.6829C78.6505 5.65683 78.7155 5.59166 78.7416 5.51346L79.6525 3.07617L80.5635 5.51346L80.5505 5.50043Z" fill="#FFC200"/>
<path d="M76.373 3.76685C76.6245 3.76685 76.8285 3.56261 76.8285 3.31067C76.8285 3.05873 76.6245 2.85449 76.373 2.85449C76.1214 2.85449 75.9175 3.05873 75.9175 3.31067C75.9175 3.56261 76.1214 3.76685 76.373 3.76685Z" fill="#FFC200"/>
<path d="M86.6021 2.99786C87.098 2.99786 87.5001 2.59522 87.5001 2.09854C87.5001 1.60186 87.098 1.19922 86.6021 1.19922C86.1061 1.19922 85.7041 1.60186 85.7041 2.09854C85.7041 2.59522 86.1061 2.99786 86.6021 2.99786Z" fill="#FFC200"/>
<path d="M47.5725 4.65309L49.1211 5.55241L47.5334 6.37353L46.6354 7.92453L45.8155 6.33443L44.2668 5.43511L45.8546 4.61399L46.7526 3.06299L47.5725 4.65309Z" fill="#FFC200"/>
</g>
<defs>
<clipPath id="clip0_712_1288">
<rect width="87" height="69" fill="white" transform="translate(0.5)"/>
</clipPath>
</defs>
</svg>
