<svg width="258" height="290" viewBox="0 0 258 290" fill="none" xmlns="http://www.w3.org/2000/svg">
<g clip-path="url(#clip0_1078_2135)">
<path d="M41.3 62.5896C40.93 63.1996 40.56 63.8496 40.48 64.5896C40.4 65.3296 40.7 66.1696 41.31 66.4296C41.73 66.6096 42.21 66.4796 42.63 66.2996C45.14 65.2596 47.41 62.7096 49.43 60.7696C50.74 59.5196 60.39 51.2396 57.53 48.8996C56.47 48.0396 53.13 50.2696 52.18 50.9596C48.07 53.9496 44.1 58.0196 41.3 62.5796V62.5896Z" fill="#FFE48C"/>
<path d="M209.16 285.9C208.79 286.44 208.42 287.02 208.4 287.67C208.35 288.94 209.67 289.93 210.95 289.98C212.22 290.03 213.42 289.41 214.53 288.78C220.55 285.32 226.01 280.9 230.63 275.73C232.79 273.31 234.87 270.45 234.8 267.21C234.74 264.38 223.25 272.49 222.01 273.38C217.13 276.87 212.58 280.92 209.17 285.89H209.16V285.9Z" fill="#FFE48C"/>
<path d="M240.4 15.7394C239.52 16.9994 238.79 18.8694 239.9 19.9394C240.34 20.3594 240.97 20.5294 241.57 20.6094C245.87 21.2194 250 18.7594 253.28 15.9194C256.26 13.3394 261.03 4.43937 253.59 5.16937C248.7 5.64937 242.95 12.0794 240.4 15.7394Z" fill="#FFE48C"/>
<path d="M25.23 249.05C24.65 249.88 24.17 251.1 24.9 251.81C25.19 252.09 25.6 252.19 26 252.25C28.82 252.65 31.54 251.03 33.69 249.17C35.65 247.48 38.78 241.63 33.89 242.11C30.68 242.42 26.9 246.65 25.22 249.05H25.23Z" fill="#FFE48C"/>
<path d="M96.33 266.02C108.16 257.8 117.76 247.72 128.51 238.32C132.24 235.06 135.99 231.78 140.25 229.25C141.22 228.67 142.27 228.12 143.41 228.09C154.12 227.84 138.53 246.86 136.82 248.86C130.19 256.6 122.67 263.67 117.31 272.41C114.56 276.89 114.79 280.96 119.49 283.5C125.29 286.63 131.1 282.41 136.33 279.96C149.57 273.78 162.58 267.13 175.35 260.04C192.34 250.61 208.9 240.38 224.94 229.42C232.02 224.58 241.1 219.81 247.04 213.62C251.4 209.08 252.34 200.7 243.82 200.59C237.18 200.5 230.8 203.21 224.18 203.77C223.23 203.85 222.15 203.84 221.51 203.14C220.45 201.99 221.46 200.17 222.47 198.97C227.95 192.45 233.84 186.28 239.62 180.02C241.84 177.61 252.65 168.84 246.23 165.49C244.13 164.39 241.58 165.41 239.45 166.44C229.16 171.39 218.68 178.7 207.73 181.74C206.79 182 205.79 182.25 204.84 181.98C202.34 181.28 202.12 177.8 202.86 175.31C204.37 170.24 207.63 165.91 210.85 161.71C217.09 153.59 223.45 145.56 229.93 137.63C235.34 131 241.84 124.71 245.99 117.21C247.1 115.21 248.13 112.95 247.7 110.71C246.9 106.55 241.61 104.87 237.43 105.64C233.25 106.4 229.46 108.72 225.25 109.27C221.04 109.82 215.84 107.51 215.68 103.28C215.47 97.6797 223.98 92.9097 220.91 88.2197C219.09 85.4397 214.9 86.0797 211.71 87.0497C205.55 88.9297 199.39 90.8097 193.23 92.6897C189.03 93.9697 183.9 95.0697 180.69 92.0697C177.27 88.8797 178.4 83.2897 180.01 78.8997C183.61 69.0997 188.33 59.6997 194.04 50.9597C201.46 39.6097 210.91 28.3697 211.46 14.8297C211.7 8.79973 209.12 1.73973 203.25 0.269727C198.28 -0.970273 193.42 2.30973 189.34 5.41973C178.03 14.0397 166.73 22.6597 155.42 31.2797C153.4 32.8197 150.3 34.2897 148.62 32.3897C147.41 31.0197 148 28.8997 148.65 27.1897C150.54 22.2097 159.96 10.7097 154.46 5.81973C151.32 3.02973 146.41 4.86973 142.72 6.88973C102.36 28.9897 66.67 58.9997 35.68 92.9697C19.39 110.86 3.73004 131.17 0.35004 155.13C-0.33996 160 -0.29996 165.51 3.05004 169.12C5.17004 171.41 8.28004 172.52 11.34 173.19C20.85 175.3 31.08 173.95 39.71 169.44C44.79 166.79 48.54 162.95 54.14 160.98C56 160.33 58.28 159.89 59.78 161.17C60.85 162.09 61.16 163.67 60.88 165.05C59.77 170.45 55.18 175.35 51.95 179.59C48.02 184.76 44.51 191.4 46.77 197.48C48.69 202.64 54.36 205.63 59.86 206.04C64.78 206.41 71.84 205.48 76.09 202.84C80.51 200.09 83.38 197.01 88.89 195.92C91.35 195.44 94.39 195.56 95.73 197.67C99.48 203.62 85.49 216.94 82.53 221.3C76.29 230.5 70.58 240.06 65.43 249.9C62.71 255.11 60.08 261.16 62.15 266.66C64.47 272.84 72.11 275.65 78.66 274.64C85.2 273.63 90.89 269.76 96.32 265.98V266.02H96.33Z" fill="#FFE48C"/>
<path d="M40.8299 46.7196C37.7599 47.6996 37.1899 48.4996 36.4999 52.8396C35.8099 48.4996 35.2399 47.6996 32.1699 46.7196C35.2399 45.7396 35.8099 44.9396 36.4999 40.5996C37.1899 44.9396 37.7599 45.7396 40.8299 46.7196Z" fill="#0544A8"/>
<path d="M253.84 262.899C251.84 263.539 251.47 264.059 251.02 266.889C250.57 264.059 250.2 263.539 248.2 262.899C250.2 262.259 250.57 261.739 251.02 258.909C251.47 261.739 251.84 262.259 253.84 262.899Z" fill="#0544A8"/>
<path d="M22.5299 211.099C20.5299 211.739 20.1599 212.259 19.7099 215.089C19.2599 212.259 18.8899 211.739 16.8899 211.099C18.8899 210.459 19.2599 209.939 19.7099 207.109C20.1599 209.939 20.5299 210.459 22.5299 211.099Z" fill="#0544A8"/>
<path d="M244.17 80.5995C240.74 81.6995 240.11 82.5795 239.34 87.4295C238.57 82.5795 237.94 81.6895 234.51 80.5995C237.94 79.4995 238.57 78.6195 239.34 73.7695C240.11 78.6195 240.74 79.5095 244.17 80.5995Z" fill="#0544A8"/>
<path d="M31.27 70.8695C22.77 72.9995 21.69 74.7295 20.37 88.4695C19.05 74.7295 17.98 72.9995 9.46997 70.8695C17.97 68.7395 19.05 67.0095 20.37 53.2695C21.69 67.0095 22.76 68.7395 31.27 70.8695Z" fill="#0544A8"/>
<path d="M139.62 149.99H30.8201V233.57H139.62V149.99Z" fill="#0544A8"/>
<path d="M139.61 149.99H95.3V233.57H139.61V149.99Z" fill="#042A60"/>
<path d="M70.0901 182.43L68.0901 180.4L64.8201 182.43L61.0601 178.72L57.1501 182.43V149.99H70.0901V182.43Z" fill="#FFC200"/>
<path d="M190.59 66.4102H81.79V149.99H190.59V66.4102Z" fill="#0544A8"/>
<path d="M108.45 66.4102H81.79V87.8602H108.45V66.4102Z" fill="#E2EAFF"/>
<path d="M104.26 83.2402H85.99V83.8802H104.26V83.2402Z" fill="#3A6BEA"/>
<path d="M104.26 77.8604H85.99V78.5004H104.26V77.8604Z" fill="#3A6BEA"/>
<path d="M190.59 66.4102H164.3V149.99H190.59V66.4102Z" fill="#042A60"/>
<path d="M143.58 98.8401L141.58 96.8202L138.31 98.8401L134.55 95.1402L130.64 98.8401V66.4102H143.58V98.8401Z" fill="#FFC200"/>
<path d="M126.78 129.57H115.84V140.51H126.78V129.57Z" fill="#FFC200"/>
<path d="M142.83 129.57H131.89V140.51H142.83V129.57Z" fill="#FFC200"/>
<path d="M158.89 129.57H147.95V140.51H158.89V129.57Z" fill="#FFC200"/>
<path d="M227.7 149.99H118.9V233.57H227.7V149.99Z" fill="#0544A8"/>
<path d="M227.7 149.99H201.41V233.57H227.7V149.99Z" fill="#042A60"/>
<path d="M169.14 182.43L167.15 180.4L163.87 182.43L160.12 178.72L156.2 182.43V149.99H169.14V182.43Z" fill="#FFC200"/>
</g>
<defs>
<clipPath id="clip0_1078_2135">
<rect width="257.56" height="289.98" fill="white"/>
</clipPath>
</defs>
</svg>
