<?xml version="1.0" standalone="no"?>
<!DOCTYPE svg PUBLIC "-//W3C//DTD SVG 20010904//EN"
 "http://www.w3.org/TR/2001/REC-SVG-20010904/DTD/svg10.dtd">
<svg version="1.0" xmlns="http://www.w3.org/2000/svg"
 width="28.000000pt" height="28.000000pt" viewBox="0 0 28.000000 28.000000"
 preserveAspectRatio="xMidYMid meet">

<g transform="translate(0.000000,28.000000) scale(0.100000,-0.100000)"
fill="#000000" stroke="none">
<path d="M17 223 c-4 -3 -7 -35 -7 -70 0 -45 5 -68 17 -83 20 -23 61 -27 69
-5 8 20 80 20 88 0 14 -36 86 2 86 45 0 25 -39 80 -57 80 -7 0 -13 9 -13 20 0
18 -7 20 -88 20 -49 0 -92 -3 -95 -7z m163 -63 l0 -60 -42 0 c-24 0 -50 4 -57
9 -9 6 -22 6 -33 0 -16 -9 -18 -4 -18 51 l0 60 75 0 75 0 0 -60z m58 -18 c14
-21 13 -22 -12 -22 -21 0 -26 5 -26 26 0 30 16 28 38 -4z m-158 -63 c0 -5 -7
-9 -15 -9 -15 0 -20 12 -9 23 8 8 24 -1 24 -14z m150 0 c0 -5 -7 -9 -15 -9
-15 0 -20 12 -9 23 8 8 24 -1 24 -14z"/>
</g>
</svg>
