<svg width="24" height="24" viewBox="0 0 24 24" fill="none" xmlns="http://www.w3.org/2000/svg">
<path d="M18.6637 11.9961H5.3325C3.89438 11.9961 2.71875 13.2486 2.71875 14.7805C2.71875 16.3123 3.89438 17.5648 5.3325 17.5648H18.6656C20.1038 17.5648 21.2794 16.3123 21.2794 14.7805C21.2794 13.2486 20.1019 11.9961 18.6637 11.9961Z" fill="#E59600"/>
<path d="M12.0001 2.32324C7.75512 2.32324 3.82324 6.86262 3.82324 13.397C3.82324 19.8957 7.87512 23.1076 12.0001 23.1076C16.1251 23.1076 20.177 19.8957 20.177 13.397C20.177 6.86449 16.2451 2.32324 12.0001 2.32324Z" fill="#FFCA28"/>
<path d="M7.99094 15.2156C8.65471 15.2156 9.19281 14.6582 9.19281 13.9706C9.19281 13.283 8.65471 12.7256 7.99094 12.7256C7.32716 12.7256 6.78906 13.283 6.78906 13.9706C6.78906 14.6582 7.32716 15.2156 7.99094 15.2156Z" fill="#404040"/>
<path d="M16.0085 15.2156C16.6723 15.2156 17.2104 14.6582 17.2104 13.9706C17.2104 13.283 16.6723 12.7256 16.0085 12.7256C15.3447 12.7256 14.8066 13.283 14.8066 13.9706C14.8066 14.6582 15.3447 15.2156 16.0085 15.2156Z" fill="#404040"/>
<path d="M12.9409 16.2247C12.9157 16.2144 12.8892 16.2074 12.8622 16.2041H11.1372C11.1109 16.2079 11.0847 16.2135 11.0584 16.2247C10.9028 16.2885 10.8165 16.4497 10.8897 16.6222C10.9647 16.7947 11.3078 17.2785 11.9997 17.2785C12.6915 17.2785 13.0347 16.7947 13.1097 16.6222C13.1828 16.4516 13.0965 16.2885 12.9409 16.2247Z" fill="#E59600"/>
<path d="M14.0528 18.178C13.2765 18.6392 10.7284 18.6392 9.95214 18.178C9.50589 17.9117 9.05026 18.3186 9.23589 18.7236C9.41776 19.123 10.8071 20.0473 12.009 20.0473C13.2109 20.0473 14.5834 19.123 14.7653 18.7236C14.949 18.3186 14.499 17.9136 14.0528 18.178Z" fill="#795548"/>
<path d="M12.0003 0.862305H11.9928C1.22277 0.92043 3.42965 13.2204 3.42965 13.2204C3.42965 13.2204 3.9134 14.4898 4.13277 15.0486C4.16465 15.1292 4.2809 15.1198 4.29965 15.0354C4.53027 14.0061 5.35715 10.3592 5.77527 9.25105C6.0209 8.59668 6.69965 8.21793 7.3859 8.34168C8.44152 8.53293 10.1234 8.76918 11.9778 8.76918H12.019C13.8734 8.76918 15.5553 8.53293 16.6109 8.34168C17.2971 8.21793 17.9759 8.59668 18.2215 9.25105C18.6378 10.3554 19.459 13.9817 19.6915 15.0261C19.7103 15.1104 19.8284 15.1198 19.8603 15.0392L20.5671 13.2223C20.5653 13.2204 22.7721 0.92043 12.0003 0.862305Z" fill="#543930"/>
<path d="M20.5651 13.2204C20.5651 13.2204 22.772 0.918555 12.0001 0.862305H11.9926C11.8257 0.86418 11.6607 0.86793 11.4995 0.873555C11.1789 0.88668 10.8695 0.911055 10.5714 0.94668C10.5676 0.94668 10.5657 0.94668 10.562 0.948555C10.5414 0.95043 10.5226 0.95418 10.5001 0.95793C1.4345 2.09793 3.4295 13.2204 3.4295 13.2204L4.1345 15.0392C4.16637 15.1198 4.28262 15.1123 4.30137 15.0279C4.53387 13.9892 5.35887 10.3573 5.77512 9.25105C6.02075 8.59668 6.6995 8.21793 7.38575 8.34168C8.44137 8.53293 10.1232 8.76918 11.9776 8.76918H12.0189C13.8732 8.76918 15.5551 8.53293 16.6107 8.34168C17.297 8.21793 17.9757 8.59668 18.2214 9.25105C18.6395 10.3611 19.4664 14.0154 19.6951 15.0392C19.7139 15.1236 19.8301 15.1329 19.8601 15.0523C20.0795 14.4954 20.5651 13.2204 20.5651 13.2204Z" fill="url(#paint0_radial_3685_4201)"/>
<path d="M17.8466 12.0075C17.8485 12.0056 17.2916 11.1318 16.0035 11.1318C14.7154 11.1318 14.1585 12.0056 14.1585 12.0056L14.1604 12.0075C14.1154 12.0693 14.0872 12.1462 14.0872 12.2306C14.0872 12.4406 14.2579 12.6131 14.4697 12.6131C14.5129 12.6131 14.6197 12.5812 14.631 12.5775C15.4016 12.2587 16.0072 12.2568 16.0072 12.2568C16.0072 12.2568 16.6072 12.2587 17.3779 12.5775C17.3872 12.5812 17.4941 12.6131 17.5391 12.6131C17.7491 12.6131 17.9216 12.4425 17.9216 12.2306C17.9197 12.1462 17.8916 12.0693 17.8466 12.0075ZM9.83848 12.0075C9.84035 12.0056 9.28348 11.1318 7.99535 11.1318C6.70723 11.1318 6.15035 12.0056 6.15035 12.0056L6.15223 12.0075C6.10723 12.0693 6.0791 12.1462 6.0791 12.2306C6.0791 12.4406 6.24973 12.6131 6.4616 12.6131C6.50473 12.6131 6.6116 12.5812 6.62098 12.5775C7.39348 12.2587 7.99723 12.2568 7.99723 12.2568C7.99723 12.2568 8.59723 12.2587 9.36785 12.5775C9.37723 12.5812 9.4841 12.6131 9.52723 12.6131C9.73723 12.6131 9.90973 12.4425 9.90973 12.2306C9.9116 12.1462 9.88348 12.0693 9.83848 12.0075Z" fill="#6D4C41"/>
<defs>
<radialGradient id="paint0_radial_3685_4201" cx="0" cy="0" r="1" gradientUnits="userSpaceOnUse" gradientTransform="translate(11.9971 11.0712) scale(9.02925 10.1868)">
<stop offset="0.794" stop-color="#6D4C41" stop-opacity="0"/>
<stop offset="1" stop-color="#6D4C41"/>
</radialGradient>
</defs>
</svg>
