<svg width="28" height="28" viewBox="0 0 28 28" fill="none" xmlns="http://www.w3.org/2000/svg">
<path d="M15.75 15.7503C14.7778 15.7503 13.9514 15.41 13.2709 14.7295C12.5903 14.0489 12.25 13.2225 12.25 12.2503C12.25 11.2781 12.5903 10.4517 13.2709 9.77116C13.9514 9.0906 14.7778 8.75033 15.75 8.75033C16.7222 8.75033 17.5486 9.0906 18.2292 9.77116C18.9097 10.4517 19.25 11.2781 19.25 12.2503C19.25 13.2225 18.9097 14.0489 18.2292 14.7295C17.5486 15.41 16.7222 15.7503 15.75 15.7503ZM6.41669 19.8337C5.93058 19.8337 5.51738 19.6635 5.1771 19.3232C4.83683 18.983 4.66669 18.5698 4.66669 18.0837V6.41699C4.66669 5.93088 4.83683 5.51769 5.1771 5.17741C5.51738 4.83713 5.93058 4.66699 6.41669 4.66699H25.0834C25.5695 4.66699 25.9827 4.83713 26.3229 5.17741C26.6632 5.51769 26.8334 5.93088 26.8334 6.41699V18.0837C26.8334 18.5698 26.6632 18.983 26.3229 19.3232C25.9827 19.6635 25.5695 19.8337 25.0834 19.8337H6.41669ZM9.33335 18.0837H22.1667C22.1667 17.267 22.4486 16.5767 23.0125 16.0128C23.5764 15.4489 24.2667 15.167 25.0834 15.167V9.33366C24.2667 9.33366 23.5764 9.05171 23.0125 8.48783C22.4486 7.92394 22.1667 7.23366 22.1667 6.41699H9.33335C9.33335 7.23366 9.05141 7.92394 8.48752 8.48783C7.92363 9.05171 7.23335 9.33366 6.41669 9.33366V15.167C7.23335 15.167 7.92363 15.4489 8.48752 16.0128C9.05141 16.5767 9.33335 17.267 9.33335 18.0837ZM23.3334 23.3337H2.91669C2.43058 23.3337 2.01738 23.1635 1.6771 22.8232C1.33683 22.483 1.16669 22.0698 1.16669 21.5837V8.16699H2.91669V21.5837H23.3334V23.3337ZM6.41669 18.0837V6.41699V18.0837Z" fill="black"/>
</svg>
