<svg width="24" height="24" viewBox="0 0 24 24" fill="none" xmlns="http://www.w3.org/2000/svg">
<g clip-path="url(#clip0_40_394)">
<path d="M14.8896 10.7502V8.16016" stroke="#565E6B" stroke-linecap="round" stroke-linejoin="round"/>
<path d="M16.3696 8.16016V10.7502" stroke="#565E6B" stroke-linecap="round" stroke-linejoin="round"/>
<path d="M18.0098 8.16C18.0098 8.16 18.0498 11.26 18.0098 12.29C17.9898 13 17.8898 14.06 16.3698 14.62L16.6798 19.69C19.2698 18.11 20.9998 15.26 20.9998 12C20.9998 7.03 16.9698 3 11.9998 3C10.3998 3 8.81977 3.43 7.44977 4.24C6.07977 5.05 4.97977 6.16 4.20977 7.51C3.43977 8.86 3.00977 10.43 3.00977 12.01C3.00977 15.26 4.72977 18.11 7.32977 19.7L7.61977 15.16C7.61977 15.16 4.72977 14.28 5.70977 10.77C6.63977 7.47 8.35977 7.73 8.35977 7.73C8.35977 7.73 10.2898 7.52 10.9798 10.77C11.6698 14.02 10.1298 14.95 9.17977 15.22C9.22977 16.17 9.49977 20.66 9.49977 20.66H9.52977C10.3198 20.89 11.1498 21.02 12.0098 21.02C12.8698 21.02 13.7198 20.9 14.5198 20.66L14.8898 14.61C14.8898 14.61 14.0198 14.27 13.6198 13.74C13.2498 13.25 13.2498 12.58 13.2498 12.18C13.2498 11.18 13.2498 8.18 13.2498 8.18" stroke="#565E6B" stroke-linecap="round" stroke-linejoin="round"/>
</g>
<defs>
<clipPath id="clip0_40_394">
<rect width="24" height="24" fill="white"/>
</clipPath>
</defs>
</svg>
