<svg width="24" height="24" viewBox="0 0 24 24" fill="none" xmlns="http://www.w3.org/2000/svg">
<g clip-path="url(#clip0_40_392)">
<path d="M13.2398 10.4201C13.2398 11.0301 13.2398 11.6401 13.2398 12.2601C13.2298 13.3301 13.8398 14.0901 14.6698 14.3401C14.7898 14.3801 14.8198 14.4601 14.8098 14.5701C14.7598 15.2201 14.7198 15.8801 14.6798 16.5301C14.6398 17.1501 14.5898 17.7701 14.5398 18.4001C14.4898 19.1201 14.4298 19.8301 14.3898 20.5501C14.3898 20.6901 14.2898 20.7101 14.1898 20.7401C13.7698 20.8501 13.3398 20.9201 12.9098 20.9701C11.8798 21.0801 10.8598 21.0001 9.85982 20.7601C9.68982 20.7201 9.62983 20.6501 9.61982 20.4701C9.54982 19.4101 9.46982 18.3501 9.39982 17.2901C9.34982 16.5801 9.29982 15.8701 9.23982 15.1601C9.22982 15.0201 9.26982 14.9601 9.40982 14.9201C10.4598 14.5501 11.1598 13.5901 11.1598 12.4701C11.1598 11.2901 10.9398 10.1501 10.3298 9.12015C10.0398 8.62015 9.64983 8.23015 9.07982 8.06015C8.23982 7.81015 7.42983 8.13015 6.87983 8.93015C6.38983 9.63015 6.15983 10.4301 6.01982 11.2601C5.92983 11.8101 5.84983 12.3601 5.95983 12.9101C6.14983 13.8901 6.72982 14.5601 7.65982 14.9101C7.80982 14.9701 7.85983 15.0401 7.84982 15.2001C7.76982 16.1701 7.69983 17.1401 7.62983 18.1101C7.59982 18.5401 7.56983 18.9601 7.54983 19.3901C7.54983 19.4501 7.54983 19.5001 7.54983 19.5601C7.52983 19.8001 7.50982 19.8101 7.30982 19.6901C6.63982 19.2801 6.02982 18.7901 5.48982 18.2101C4.40982 17.0501 3.64983 15.7101 3.28983 14.1601C2.59983 11.1101 3.28983 8.38015 5.33983 6.03015C6.71983 4.46015 8.46982 3.52015 10.5298 3.16015C14.8398 2.41015 19.0998 4.95015 20.5198 9.09015C20.8898 10.1701 21.0698 11.2801 21.0098 12.4201C20.8998 14.5501 20.1398 16.4201 18.7298 18.0301C18.1598 18.6801 17.4898 19.2201 16.7598 19.6901C16.5298 19.8301 16.5098 19.8201 16.4898 19.5501C16.4198 18.5501 16.3598 17.5601 16.2898 16.5601C16.2498 15.9501 16.1998 15.3401 16.1498 14.7301C16.1298 14.4501 16.1198 14.4501 16.3898 14.3501C17.1898 14.0501 17.7098 13.3201 17.7098 12.4701C17.7098 11.1301 17.7098 9.79015 17.7098 8.45015C17.7098 8.13015 17.5298 7.96015 17.2498 8.01015C17.0498 8.04015 16.9298 8.21015 16.9298 8.47015C16.9298 8.95015 16.9298 9.43015 16.9298 9.90015C16.9298 10.1701 16.9298 10.4401 16.9298 10.7001C16.9298 11.0201 16.7198 11.2501 16.4198 11.2501C16.1298 11.2501 15.8798 11.0201 15.8798 10.7001C15.8798 9.94015 15.8798 9.18015 15.8798 8.42015C15.8798 8.11015 15.6498 7.93015 15.3798 8.01015C15.2098 8.06015 15.0998 8.22015 15.0998 8.46015C15.0998 9.04015 15.0998 9.62015 15.0998 10.2001C15.0998 10.3701 15.0998 10.5301 15.0998 10.7001C15.0998 11.0201 14.8798 11.2401 14.5798 11.2501C14.2998 11.2501 14.0498 11.0201 14.0498 10.7101C14.0498 10.3301 14.0498 9.95015 14.0498 9.56015C14.0498 9.19015 14.0498 8.82015 14.0498 8.45015C14.0498 8.16015 13.9198 8.00015 13.6798 7.99015C13.4298 7.99015 13.2798 8.15015 13.2798 8.44015C13.2798 9.11015 13.2798 9.78015 13.2798 10.4501L13.2398 10.4201Z" fill="#0544AB"/>
</g>
<defs>
<clipPath id="clip0_40_392">
<rect width="24" height="24" fill="white"/>
</clipPath>
</defs>
</svg>
