<svg width="44" height="44" viewBox="0 0 44 44" fill="none" xmlns="http://www.w3.org/2000/svg">
<g clip-path="url(#clip0_260_1048)">
<path d="M22 44C34.1503 44 44 34.1503 44 22C44 9.84974 34.1503 0 22 0C9.84974 0 0 9.84974 0 22C0 34.1503 9.84974 44 22 44Z" fill="#0544AB"/>
<path d="M31.78 16.7498V27.8898C31.78 28.0798 31.68 28.2598 31.51 28.3598L27.79 30.5098L21.66 34.0498L18.01 31.9398L15.1 30.2598L11.8 28.3598C11.63 28.2598 11.53 28.0798 11.53 27.8898V16.7298C11.53 16.5398 11.63 16.3598 11.8 16.2598L15.1 14.3598L18.01 12.6798L21.64 10.5898L21.67 10.6098L24.49 12.2398C24.85 12.4498 24.85 12.9698 24.49 13.1798L21.67 14.8098L18.02 16.9198L15.11 18.5998H15.1L15.11 18.6098V22.8798C15.11 23.0698 15.21 23.2498 15.38 23.3498L17.2 24.3998C17.56 24.6098 18.02 24.3498 18.02 23.9298V20.2998H18.03L21.67 18.1898L27.97 14.5498C28.14 14.4498 28.35 14.4498 28.51 14.5498L31.53 16.2898C31.7 16.3898 31.8 16.5698 31.8 16.7598L31.78 16.7498Z" fill="#FFC200"/>
<path d="M14.45 23.7396L17.73 25.6396L17.75 20.4696L29.28 13.8096L25.97 11.8896L14.45 18.5596V23.7396Z" fill="white"/>
<path d="M17.7298 26.0101C17.6698 26.0101 17.5998 25.9901 17.5498 25.9601L14.2698 24.0601C14.1598 23.9901 14.0898 23.8701 14.0898 23.7401V18.5601C14.0898 18.4301 14.1598 18.3101 14.2698 18.2401L25.7898 11.5701C25.8998 11.5001 26.0398 11.5001 26.1598 11.5701L29.4698 13.4801C29.5798 13.5501 29.6498 13.6701 29.6498 13.8001C29.6498 13.9301 29.5798 14.0501 29.4698 14.1201L18.1198 20.6701L18.0998 25.6301C18.0998 25.7601 18.0298 25.8801 17.9198 25.9501C17.8598 25.9801 17.7998 26.0001 17.7398 26.0001L17.7298 26.0101ZM14.8098 23.5301L17.3598 25.0001V20.4601C17.3798 20.3301 17.4398 20.2101 17.5598 20.1401L28.5398 13.8001L25.9598 12.3101L14.8098 18.7601V23.5201V23.5301Z" fill="#0544AB"/>
<path d="M17.73 26.1301C17.64 26.1301 17.56 26.1101 17.48 26.0601L14.2 24.1701C14.05 24.0801 13.95 23.9201 13.95 23.7401V18.5601C13.95 18.3801 14.04 18.2201 14.2 18.1301L25.72 11.4601C25.87 11.3701 26.06 11.3701 26.21 11.4601L29.52 13.3701C29.67 13.4601 29.77 13.6201 29.77 13.8001C29.77 13.9801 29.68 14.1401 29.52 14.2301L18.23 20.7501L18.21 25.6401C18.21 25.8201 18.11 25.9801 17.96 26.0701C17.88 26.1101 17.8 26.1401 17.71 26.1401L17.73 26.1301ZM25.97 11.6501C25.97 11.6501 25.89 11.6601 25.85 11.6801L14.33 18.3501C14.25 18.3901 14.21 18.4701 14.21 18.5601V23.7401C14.21 23.8301 14.26 23.9101 14.33 23.9501L17.61 25.8501C17.68 25.8901 17.78 25.8901 17.85 25.8501C17.92 25.8101 17.97 25.7301 17.97 25.6401L17.99 20.6101L29.4 14.0201C29.47 13.9801 29.52 13.9001 29.52 13.8101C29.52 13.7201 29.47 13.6401 29.4 13.6001L26.08 11.6901C26.08 11.6901 26 11.6601 25.96 11.6601L25.97 11.6501ZM17.49 25.2201L14.69 23.6001V18.7001L25.97 12.1701L28.8 13.8001L17.63 20.2501C17.55 20.2901 17.51 20.3701 17.51 20.4601L17.49 25.2101V25.2201ZM14.94 23.4601L17.24 24.7901V20.4701C17.25 20.2901 17.35 20.1301 17.5 20.0401L28.29 13.8101L25.96 12.4701L14.93 18.8501V23.4601H14.94Z" fill="#0544AB"/>
<path d="M21.86 34.2699C24.2459 34.2699 26.18 32.3358 26.18 29.9499C26.18 27.564 24.2459 25.6299 21.86 25.6299C19.4742 25.6299 17.54 27.564 17.54 29.9499C17.54 32.3358 19.4742 34.2699 21.86 34.2699Z" fill="white"/>
<path d="M21.86 34.7699C19.2 34.7699 17.04 32.6099 17.04 29.9499C17.04 27.2899 19.2 25.1299 21.86 25.1299C24.52 25.1299 26.68 27.2899 26.68 29.9499C26.68 32.6099 24.52 34.7699 21.86 34.7699ZM21.86 26.1399C19.76 26.1399 18.04 27.8499 18.04 29.9599C18.04 32.0699 19.75 33.7799 21.86 33.7799C23.97 33.7799 25.68 32.0699 25.68 29.9599C25.68 27.8499 23.97 26.1399 21.86 26.1399Z" fill="#0544AB"/>
<path d="M21.0701 31.8396L19.3201 30.2096L20.1201 29.3396L21.1001 30.2496L23.6401 28.0596L24.4101 28.9596L21.0701 31.8396Z" fill="#0544AB"/>
</g>
<defs>
<clipPath id="clip0_260_1048">
<rect width="44" height="44" fill="white"/>
</clipPath>
</defs>
</svg>
