<svg width="116" height="91" viewBox="0 0 116 91" fill="none" xmlns="http://www.w3.org/2000/svg">
<g clip-path="url(#clip0_374_1338)">
<path opacity="0.8" d="M55.0137 90.4999C82.0159 90.4999 103.906 88.7473 103.906 86.5854C103.906 84.4235 82.0159 82.6709 55.0137 82.6709C28.0115 82.6709 6.12183 84.4235 6.12183 86.5854C6.12183 88.7473 28.0115 90.4999 55.0137 90.4999Z" fill="#021126"/>
<path d="M93.8519 29.3877H22.4634C19.9162 29.3877 17.8513 31.4435 17.8513 33.9794V81.5312C17.8513 84.0671 19.9162 86.1229 22.4634 86.1229H93.8519C96.3991 86.1229 98.464 84.0671 98.464 81.5312V33.9794C98.464 31.4435 96.3991 29.3877 93.8519 29.3877Z" fill="#0544A8"/>
<path d="M95.1958 86.4206H21.1197C19.1454 86.4206 17.5527 84.8185 17.5527 82.8695V32.6419C17.5527 30.6764 19.162 29.0908 21.1197 29.0908H95.1792C97.1534 29.0908 98.7461 30.6929 98.7461 32.6419V82.8695C98.7461 84.835 97.1368 86.4206 95.1792 86.4206H95.1958ZM21.1197 29.6854C19.4772 29.6854 18.1334 31.0233 18.1334 32.6584V82.886C18.1334 84.5212 19.4772 85.859 21.1197 85.859H95.1792C96.8216 85.859 98.1654 84.5212 98.1654 82.886V32.6584C98.1654 31.0233 96.8216 29.6854 95.1792 29.6854H21.1197Z" fill="#021126"/>
<path opacity="0.2" d="M93.8519 29.3877H22.4634C19.9162 29.3877 17.8513 31.4435 17.8513 33.9794V81.5312C17.8513 84.0671 19.9162 86.1229 22.4634 86.1229H93.8519C96.3991 86.1229 98.464 84.0671 98.464 81.5312V33.9794C98.464 31.4435 96.3991 29.3877 93.8519 29.3877Z" fill="black"/>
<path d="M83.21 0.877986L17.4255 23.6465L27.1608 51.5253L92.9452 28.7568L83.21 0.877986Z" fill="#FFC200"/>
<path d="M26.976 51.9003L17.0549 23.4749L17.337 23.3758L83.3833 0.5L93.3044 28.9254L93.0223 29.0245L26.9594 51.9003H26.976ZM17.8015 23.8382L27.341 51.157L92.5744 28.5785L83.0349 1.24326L17.8015 23.8217V23.8382Z" fill="#021126"/>
<path d="M82.3381 28.7442L35.4869 44.9637C34.2758 41.5116 30.4932 39.6948 27.0424 40.9005L23.9565 32.064C27.4239 30.8583 29.2489 27.0925 28.0378 23.657L74.889 7.4375C76.1001 10.8895 79.8827 12.7064 83.3335 11.5006L86.4194 20.3371C82.952 21.5428 81.127 25.3087 82.3381 28.7442Z" fill="#FFDD70"/>
<path d="M55.611 31.6837C58.7171 31.6837 61.2351 29.1769 61.2351 26.0845C61.2351 22.9922 58.7171 20.4854 55.611 20.4854C52.5048 20.4854 49.9868 22.9922 49.9868 26.0845C49.9868 29.1769 52.5048 31.6837 55.611 31.6837Z" fill="#FFC200"/>
<path d="M43.7019 29.0769L32.2311 33.047C31.6859 33.2357 31.3976 33.8287 31.5871 34.3715C31.7767 34.9143 32.3723 35.2014 32.9176 35.0127L44.3883 31.0426C44.9335 30.8539 45.2219 30.2609 45.0323 29.718C44.8428 29.1752 44.2471 28.8882 43.7019 29.0769Z" fill="#FFC200"/>
<path d="M78.1045 16.9323L66.6337 20.9025C66.0885 21.0912 65.8001 21.6842 65.9897 22.227C66.1792 22.7698 66.7749 23.0569 67.3201 22.8682L78.7909 18.8981C79.3361 18.7093 79.6245 18.1163 79.4349 17.5735C79.2454 17.0307 78.6497 16.7436 78.1045 16.9323Z" fill="#FFC200"/>
<path opacity="0.2" d="M50.5343 12.1777C50.5343 12.1777 71.4548 18.7019 88.4267 22.0878L44.9102 14.3414L50.5343 12.1777Z" fill="black"/>
<path d="M88.416 22.0888L19.8552 9.89355L14.6408 38.949L83.2016 51.1442L88.416 22.0888Z" fill="#FFC200"/>
<path d="M83.4498 51.4713L14.3176 39.1663L19.6431 9.53516L88.7753 21.8402L83.4498 51.4713ZM14.9978 38.6873L82.9853 50.7776L88.0951 22.3026L20.1077 10.2289L14.9978 38.7038V38.6873Z" fill="#021126"/>
<path d="M73.9601 45.9713L25.1346 37.2834C25.7816 33.6993 23.376 30.2638 19.7759 29.6197L21.4349 20.4033C25.035 21.0474 28.4858 18.6525 29.1329 15.0684L77.9584 23.7562C77.3113 27.3403 79.717 30.7758 83.3171 31.42L81.658 40.6364C78.0579 39.9922 74.6071 42.3871 73.9601 45.9713Z" fill="#FFDD70"/>
<path d="M51.9613 36.2267C55.0674 36.2267 57.5854 33.7199 57.5854 30.6275C57.5854 27.5352 55.0674 25.0283 51.9613 25.0283C48.8552 25.0283 46.3372 27.5352 46.3372 30.6275C46.3372 33.7199 48.8552 36.2267 51.9613 36.2267Z" fill="#FFC200"/>
<path d="M40.1044 27.4198L28.1495 25.2934C27.5813 25.1923 27.0383 25.569 26.9368 26.1347C26.8352 26.7004 27.2136 27.241 27.7818 27.342L39.7367 29.4685C40.3049 29.5696 40.8479 29.1929 40.9494 28.6272C41.051 28.0615 40.6726 27.5209 40.1044 27.4198Z" fill="#FFC200"/>
<path d="M76.0765 33.6054L64.1217 31.4789C63.5534 31.3778 63.0105 31.7545 62.9089 32.3202C62.8074 32.886 63.1858 33.4265 63.754 33.5276L75.7089 35.6541C76.2771 35.7551 76.8201 35.3785 76.9216 34.8127C77.0231 34.247 76.6448 33.7065 76.0765 33.6054Z" fill="#FFC200"/>
<path opacity="0.2" d="M16.9553 26.0844L62.6287 17.2148L65.7311 19.9071L15.8936 32.0469L16.9553 26.0844Z" fill="black"/>
<path d="M83.0754 12.7408L15.6504 30.1133L23.0784 58.6874L90.5034 41.3149L83.0754 12.7408Z" fill="#FFC200"/>
<path d="M22.8616 59.036L15.2798 29.9004L15.5618 29.8343L83.2838 12.3926L90.849 41.5282L90.567 41.5943L22.8616 59.036ZM16.0098 30.3133L23.2929 58.3093L90.1522 41.0822L82.869 13.0863L16.0098 30.3298V30.3133Z" fill="#021126"/>
<path d="M79.9326 40.4543L31.92 52.8253C31.0075 49.2907 27.3742 47.1766 23.8405 48.085L21.4846 39.0173C25.035 38.1089 27.1585 34.4917 26.2461 30.9736L74.2586 18.6025C75.1711 22.1371 78.8044 24.2513 82.3382 23.3429L84.694 32.4106C81.1437 33.319 79.0201 36.9362 79.9326 40.4543Z" fill="#FFDD70"/>
<path d="M53.5206 41.2306C56.6267 41.2306 59.1448 38.7238 59.1448 35.6314C59.1448 32.5391 56.6267 30.0322 53.5206 30.0322C50.4145 30.0322 47.8965 32.5391 47.8965 35.6314C47.8965 38.7238 50.4145 41.2306 53.5206 41.2306Z" fill="#FFC200"/>
<path d="M41.3863 37.6554L29.6295 40.6846C29.0707 40.8286 28.7349 41.3963 28.8795 41.9527C29.0242 42.509 29.5944 42.8433 30.1533 42.6993L41.9101 39.6701C42.4689 39.5261 42.8047 38.9584 42.6601 38.4021C42.5154 37.8457 41.9452 37.5114 41.3863 37.6554Z" fill="#FFC200"/>
<path d="M76.6715 28.3409L64.9147 31.3701C64.3559 31.5141 64.0201 32.0819 64.1647 32.6382C64.3093 33.1946 64.8796 33.5289 65.4384 33.3849L77.1952 30.3557C77.7541 30.2117 78.0899 29.6439 77.9452 29.0876C77.8006 28.5312 77.2303 28.197 76.6715 28.3409Z" fill="#FFC200"/>
<path d="M89.4222 29.3877H18.0338C15.4866 29.3877 13.4216 31.4435 13.4216 33.9794V81.5312C13.4216 84.0671 15.4866 86.1229 18.0338 86.1229H89.4222C91.9694 86.1229 94.0343 84.0671 94.0343 81.5312V33.9794C94.0343 31.4435 91.9694 29.3877 89.4222 29.3877Z" fill="#0544A8"/>
<path d="M90.7661 86.4206H16.69C14.7157 86.4206 13.123 84.8185 13.123 82.8695V32.6419C13.123 30.6764 14.7323 29.0908 16.69 29.0908H90.7495C92.7237 29.0908 94.3164 30.6929 94.3164 32.6419V82.8695C94.3164 84.835 92.7072 86.4206 90.7495 86.4206H90.7661ZM16.69 29.6854C15.0475 29.6854 13.7037 31.0233 13.7037 32.6584V82.886C13.7037 84.5212 15.0475 85.859 16.69 85.859H90.7495C92.3919 85.859 93.7358 84.5212 93.7358 82.886V32.6584C93.7358 31.0233 92.3919 29.6854 90.7495 29.6854H16.69Z" fill="#021126"/>
<path d="M16.9554 79.4336H13.4216V80.0282H16.9554V79.4336Z" fill="#021126"/>
<path d="M85.4238 80.0283H78.572V79.4337H85.4238V80.0283ZM71.7368 80.0283H64.8849V79.4337H71.7368V80.0283ZM58.0497 80.0283H51.1979V79.4337H58.0497V80.0283ZM44.3626 80.0283H37.5108V79.4337H44.3626V80.0283ZM30.6756 80.0283H23.8237V79.4337H30.6756V80.0283ZM88.941 74.809H88.3438V67.9876H88.941V74.809ZM88.941 61.1826H88.3438V54.3612H88.941V61.1826ZM88.941 47.5563H88.3438V40.7348H88.941V47.5563ZM85.4736 36.0936H78.6218V35.499H85.4736V36.0936ZM71.7865 36.0936H64.9347V35.499H71.7865V36.0936ZM58.0995 36.0936H51.2476V35.499H58.0995V36.0936ZM44.4124 36.0936H37.5606V35.499H44.4124V36.0936ZM30.7253 36.0936H23.8735V35.499H30.7253V36.0936Z" fill="#021126"/>
<path d="M16.9554 35.4824H13.4216V36.077H16.9554V35.4824Z" fill="#021126"/>
<path opacity="0.2" d="M84.0799 50.3477H98.5799C99.426 50.3477 100.106 51.0248 100.106 51.8672V62.2397C100.106 63.0821 99.426 63.7593 98.5799 63.7593H84.0799C80.3637 63.7593 77.3442 60.7532 77.3442 57.0535C77.3442 53.3537 80.3637 50.3477 84.0799 50.3477Z" fill="black"/>
<path d="M84.0799 49.1758H98.5799C99.426 49.1758 100.106 49.853 100.106 50.6953V61.0679C100.106 61.9102 99.426 62.5874 98.5799 62.5874H84.0799C80.3637 62.5874 77.3442 59.5814 77.3442 55.8816C77.3442 52.1818 80.3637 49.1758 84.0799 49.1758Z" fill="#0544A8"/>
<path d="M98.7625 62.8843H83.3002C79.8494 62.8843 77.0457 60.0929 77.0457 56.6574V55.1214C77.0457 51.6859 79.8494 48.8945 83.3002 48.8945H98.7625C99.6749 48.8945 100.422 49.6378 100.422 50.5462V61.2656C100.422 62.174 99.6749 62.9173 98.7625 62.9173V62.8843ZM83.3002 49.4726C80.1812 49.4726 77.6263 51.9997 77.6263 55.1214V56.6574C77.6263 59.7626 80.1646 62.3062 83.3002 62.3062H98.7625C99.3431 62.3062 99.8243 61.8272 99.8243 61.2491V50.5297C99.8243 49.9516 99.3431 49.4726 98.7625 49.4726H83.3002Z" fill="#021126"/>
<path opacity="0.2" d="M85.009 59.3829C86.6399 59.3829 87.9621 58.0666 87.9621 56.4429C87.9621 54.8192 86.6399 53.5029 85.009 53.5029C83.3781 53.5029 82.0559 54.8192 82.0559 56.4429C82.0559 58.0666 83.3781 59.3829 85.009 59.3829Z" fill="black"/>
<path d="M84.3288 58.5899C85.9598 58.5899 87.2819 57.2737 87.2819 55.6499C87.2819 54.0262 85.9598 52.71 84.3288 52.71C82.6979 52.71 81.3757 54.0262 81.3757 55.6499C81.3757 57.2737 82.6979 58.5899 84.3288 58.5899Z" fill="white"/>
<path d="M84.3289 58.8703C82.5371 58.8703 81.0938 57.4168 81.0938 55.6495C81.0938 53.8822 82.5537 52.4287 84.3289 52.4287C86.104 52.4287 87.564 53.8822 87.564 55.6495C87.564 57.4168 86.104 58.8703 84.3289 58.8703ZM84.3289 53.0068C82.8689 53.0068 81.6744 54.196 81.6744 55.6495C81.6744 57.103 82.8689 58.2922 84.3289 58.2922C85.7888 58.2922 86.9833 57.103 86.9833 55.6495C86.9833 54.196 85.7888 53.0068 84.3289 53.0068Z" fill="#021126"/>
<path opacity="0.2" d="M86.3529 53.5195C86.6017 53.949 86.7511 54.428 86.7511 54.9565C86.7511 56.5751 85.4404 57.8965 83.798 57.8965C83.0182 57.8965 82.3214 57.5827 81.7905 57.1037C82.2882 57.9956 83.2505 58.6067 84.3454 58.6067C85.9713 58.6067 87.2985 57.3019 87.2985 55.6667C87.2985 54.8244 86.9336 54.0646 86.3695 53.5361L86.3529 53.5195Z" fill="black"/>
<path opacity="0.2" d="M29.3151 26.5967C29.3151 26.5967 62.8775 29.6193 87.3151 29.0246L19.4438 29.388L29.3317 26.5967H29.3151Z" fill="black"/>
<path opacity="0.2" d="M13.4216 60.7861C13.4216 60.7861 16.7397 85.9247 63.7569 86.1394H17.0052C15.0309 86.1394 13.4216 84.5373 13.4216 82.5718V60.7861Z" fill="black"/>
<path d="M44.3626 5.02579L46.3369 6.16545L44.3129 7.20601L43.1681 9.17151L42.1229 7.15646L40.1487 6.0168L42.1727 4.97624L43.3174 3.01074L44.3626 5.02579Z" fill="#FFC200"/>
<path d="M107.141 26.3983C107.174 26.4974 107.257 26.5635 107.356 26.613L110.177 27.6866L107.423 28.6776C107.34 28.7106 107.257 28.7767 107.224 28.8593L105.797 31.8488L104.752 28.9584C104.719 28.8593 104.652 28.7932 104.553 28.7437L101.616 27.4884L104.602 26.6295C104.719 26.5965 104.802 26.5139 104.835 26.4148L105.996 23.3262L107.157 26.4148L107.141 26.3983Z" fill="#FFC200"/>
<path d="M101.815 24.2021C102.136 24.2021 102.396 23.9433 102.396 23.624C102.396 23.3047 102.136 23.0459 101.815 23.0459C101.495 23.0459 101.235 23.3047 101.235 23.624C101.235 23.9433 101.495 24.2021 101.815 24.2021Z" fill="#FFC200"/>
<path d="M114.872 23.2276C115.504 23.2276 116.017 22.7173 116.017 22.0879C116.017 21.4585 115.504 20.9482 114.872 20.9482C114.24 20.9482 113.727 21.4585 113.727 22.0879C113.727 22.7173 114.24 23.2276 114.872 23.2276Z" fill="#FFC200"/>
<path d="M5.55778 19.1144C5.55778 19.1144 5.44165 19.2796 5.44165 19.3787L5.5246 22.3682L3.56693 20.2045C3.56693 20.2045 3.41762 20.0889 3.31808 20.0889L0 19.9072L2.28947 17.8426C2.28947 17.8426 2.40561 17.6775 2.40561 17.5784L2.45538 14.3906L4.37986 16.8186C4.44622 16.9012 4.56236 16.9507 4.67849 16.9507L7.97998 16.8516L5.54119 19.0814L5.55778 19.1144Z" fill="#FFC200"/>
<path d="M6.10532 13.746C6.42601 13.746 6.68599 13.4872 6.68599 13.1679C6.68599 12.8487 6.42601 12.5898 6.10532 12.5898C5.78463 12.5898 5.52466 12.8487 5.52466 13.1679C5.52466 13.4872 5.78463 13.746 6.10532 13.746Z" fill="#FFC200"/>
<path d="M12.5092 25.7207C13.1415 25.7207 13.654 25.2105 13.654 24.5811C13.654 23.9516 13.1415 23.4414 12.5092 23.4414C11.877 23.4414 11.3645 23.9516 11.3645 24.5811C11.3645 25.2105 11.877 25.7207 12.5092 25.7207Z" fill="#FFC200"/>
<path d="M2.37251 34.7225C3.01389 34.7225 3.53384 34.2049 3.53384 33.5663C3.53384 32.9278 3.01389 32.4102 2.37251 32.4102C1.73113 32.4102 1.21118 32.9278 1.21118 33.5663C1.21118 34.2049 1.73113 34.7225 2.37251 34.7225Z" fill="#FFC200"/>
</g>
<defs>
<clipPath id="clip0_374_1338">
<rect width="116" height="90" fill="white" transform="translate(0 0.5)"/>
</clipPath>
</defs>
</svg>
