<svg width="26" height="32" viewBox="0 0 26 32" fill="none" xmlns="http://www.w3.org/2000/svg">
<path d="M4.32548 28.9597L1.96884 30.6527C1.54829 30.9548 1 30.6111 1 30.0453V2.61328C1 1.81978 1.56553 1.17651 2.26316 1.17651H23.7368C24.4345 1.17651 25 1.81978 25 2.61328V30.0453C25 30.6111 24.4517 30.9548 24.0312 30.6527L21.6745 28.9597C21.2625 28.6637 20.7375 28.6637 20.3255 28.9597L18.349 30.3796C17.525 30.9716 16.475 30.9716 15.651 30.3796L13.6745 28.9597C13.2625 28.6637 12.7375 28.6637 12.3255 28.9597L10.349 30.3796C9.52498 30.9716 8.47503 30.9716 7.65097 30.3796L5.67452 28.9597C5.26249 28.6637 4.73751 28.6637 4.32548 28.9597Z" stroke="#C9CACF" stroke-width="1.41176"/>
<path d="M8.24954 19.939C6.41707 19.939 4.77095 18.914 4.36719 17.035L6.78978 16.6933C7.00719 17.33 7.56625 17.6872 8.21848 17.6872C9.01048 17.6872 9.67825 17.1592 9.67825 16.3206C9.67825 15.7926 9.42978 15.3578 8.97942 15.0938C8.76201 14.9851 8.51354 14.923 8.24954 14.923C7.78366 14.923 7.25566 15.1093 6.92954 15.4355L4.89519 15.2336V8.99075H11.4797V11.2736H7.34883V13.1837C7.7526 12.9197 8.23401 12.7799 8.8086 12.7799C10.7964 12.7799 12.2717 14.2397 12.2717 16.274C12.2717 18.4948 10.4237 19.939 8.24954 19.939Z" fill="#C9CACF"/>
<path d="M17.4305 19.939C15.4893 19.939 13.3152 18.9917 13.3152 16.7244C13.3152 15.5286 13.9674 14.5658 15.07 14.0999C14.1848 13.6496 13.6568 12.7955 13.6568 11.8016C13.6568 9.75169 15.629 8.75781 17.4926 8.75781C19.3095 8.75781 21.2662 9.68958 21.2662 11.7705C21.2662 12.7955 20.7537 13.6185 19.853 14.0844C20.9712 14.5348 21.6079 15.4665 21.6079 16.6778C21.6079 18.9451 19.4648 19.939 17.4305 19.939ZM17.4615 15.2802C16.7006 15.2802 15.8775 15.6684 15.8775 16.538C15.8775 17.3922 16.7006 17.7649 17.4615 17.7649C18.2069 17.7649 19.0455 17.4077 19.0455 16.538C19.0455 15.6839 18.238 15.2802 17.4615 15.2802ZM16.7938 11.0717C16.4055 11.2891 16.1415 11.5842 16.1415 12.05C16.1415 12.4849 16.4055 12.842 16.7938 13.0284C16.9956 13.1371 17.213 13.1837 17.4615 13.1837C17.71 13.1837 17.9429 13.1371 18.1448 13.0284C18.533 12.8576 18.7815 12.4693 18.7815 12.05C18.7815 11.5997 18.533 11.2736 18.1448 11.0717C17.9429 10.9785 17.71 10.9319 17.4615 10.9319C17.213 10.9319 16.9956 10.9785 16.7938 11.0717Z" fill="#C9CACF"/>
</svg>
