<svg width="37" height="32" viewBox="0 0 37 32" fill="none" xmlns="http://www.w3.org/2000/svg">
<path d="M5.78368 28.6768L2.39367 30.3329C1.78871 30.6284 1 30.2921 1 29.7387V2.90541C1 2.12922 1.81352 1.5 2.81704 1.5H33.7068C34.7103 1.5 35.5238 2.12922 35.5238 2.90541V29.7387C35.5238 30.2921 34.7351 30.6284 34.1301 30.3329L30.7401 28.6768C30.1474 28.3873 29.3923 28.3873 28.7996 28.6768L25.9565 30.0657C24.771 30.6448 23.2607 30.6448 22.0753 30.0657L19.2322 28.6768C18.6395 28.3873 17.8843 28.3873 17.2916 28.6768L14.4485 30.0657C13.2631 30.6448 11.7528 30.6448 10.5674 30.0657L7.72426 28.6768C7.13156 28.3873 6.37638 28.3873 5.78368 28.6768Z" stroke="#C9CACF" stroke-width="1.38095"/>
<path d="M13.6485 19.58C11.7497 19.58 9.62305 18.6533 9.62305 16.4355C9.62305 15.2659 10.261 14.3241 11.3396 13.8683C10.4737 13.4278 9.95724 12.5923 9.95724 11.6202C9.95724 9.61501 11.8864 8.64282 13.7093 8.64282C15.4866 8.64282 17.4006 9.55425 17.4006 11.5898C17.4006 12.5923 16.8993 13.3974 16.0182 13.8532C17.112 14.2937 17.7348 15.2051 17.7348 16.39C17.7348 18.6078 15.6385 19.58 13.6485 19.58ZM13.6789 15.0228C12.9346 15.0228 12.1295 15.4026 12.1295 16.2533C12.1295 17.0887 12.9346 17.4533 13.6789 17.4533C14.408 17.4533 15.2283 17.1039 15.2283 16.2533C15.2283 15.4178 14.4384 15.0228 13.6789 15.0228ZM13.0257 10.9062C12.646 11.1189 12.3877 11.4075 12.3877 11.8632C12.3877 12.2885 12.646 12.6379 13.0257 12.8202C13.2232 12.9265 13.4359 12.9721 13.6789 12.9721C13.922 12.9721 14.1498 12.9265 14.3473 12.8202C14.727 12.6531 14.9701 12.2733 14.9701 11.8632C14.9701 11.4227 14.727 11.1037 14.3473 10.9062C14.1498 10.8151 13.922 10.7695 13.6789 10.7695C13.4359 10.7695 13.2232 10.8151 13.0257 10.9062Z" fill="#C9CACF"/>
<path d="M18.2213 14.1418C18.2213 11.5594 19.2695 8.65801 22.338 8.65801C25.3305 8.65801 26.409 11.4683 26.409 14.1114C26.409 16.6938 25.3609 19.5952 22.2924 19.5952C19.2999 19.5952 18.2213 16.7697 18.2213 14.1418ZM22.3076 10.9822C20.9252 10.9822 20.7885 13.1544 20.7885 14.1266C20.7885 15.0988 20.9252 17.271 22.3076 17.271C23.7203 17.271 23.8418 15.114 23.8418 14.1266C23.8418 13.1392 23.7203 10.9822 22.3076 10.9822Z" fill="#C9CACF"/>
</svg>
