<svg width="36" height="36" viewBox="0 0 36 36" fill="none" xmlns="http://www.w3.org/2000/svg">
<path d="M7.3125 5.625C5.96984 5.625 4.68217 6.15837 3.73277 7.10777C2.78337 8.05717 2.25 9.34484 2.25 10.6875V12.375H33.75V10.6875C33.75 9.34484 33.2166 8.05717 32.2672 7.10777C31.3178 6.15837 30.0302 5.625 28.6875 5.625H7.3125ZM2.25 25.3125V14.625H33.75V25.3125C33.75 26.6552 33.2166 27.9428 32.2672 28.8922C31.3178 29.8416 30.0302 30.375 28.6875 30.375H7.3125C5.96984 30.375 4.68217 29.8416 3.73277 28.8922C2.78337 27.9428 2.25 26.6552 2.25 25.3125ZM23.625 21.375C23.3266 21.375 23.0405 21.4935 22.8295 21.7045C22.6185 21.9155 22.5 22.2016 22.5 22.5C22.5 22.7984 22.6185 23.0845 22.8295 23.2955C23.0405 23.5065 23.3266 23.625 23.625 23.625H27C27.2984 23.625 27.5845 23.5065 27.7955 23.2955C28.0065 23.0845 28.125 22.7984 28.125 22.5C28.125 22.2016 28.0065 21.9155 27.7955 21.7045C27.5845 21.4935 27.2984 21.375 27 21.375H23.625Z" fill="#02010E"/>
</svg>
