<svg width="36" height="36" viewBox="0 0 36 36" fill="none" xmlns="http://www.w3.org/2000/svg">
<path fill-rule="evenodd" clip-rule="evenodd" d="M3.879 8.379C3 9.258 3 10.671 3 13.5V22.5C3 25.329 3 26.742 3.879 27.621C4.758 28.5 6.171 28.5 9 28.5H27C29.829 28.5 31.242 28.5 32.121 27.621C33 26.742 33 25.329 33 22.5V13.5C33 10.671 33 9.258 32.121 8.379C31.242 7.5 29.829 7.5 27 7.5H9C6.171 7.5 4.758 7.5 3.879 8.379ZM7.5 10.5C7.10218 10.5 6.72064 10.658 6.43934 10.9393C6.15804 11.2206 6 11.6022 6 12C6 12.3978 6.15804 12.7794 6.43934 13.0607C6.72064 13.342 7.10218 13.5 7.5 13.5H10.5C10.8978 13.5 11.2794 13.342 11.5607 13.0607C11.842 12.7794 12 12.3978 12 12C12 11.6022 11.842 11.2206 11.5607 10.9393C11.2794 10.658 10.8978 10.5 10.5 10.5H7.5ZM24 24C24 23.6022 24.158 23.2206 24.4393 22.9393C24.7206 22.658 25.1022 22.5 25.5 22.5H28.5C28.8978 22.5 29.2794 22.658 29.5607 22.9393C29.842 23.2206 30 23.6022 30 24C30 24.3978 29.842 24.7794 29.5607 25.0607C29.2794 25.342 28.8978 25.5 28.5 25.5H25.5C25.1022 25.5 24.7206 25.342 24.4393 25.0607C24.158 24.7794 24 24.3978 24 24ZM19.5 18C19.5 18.3978 19.342 18.7794 19.0607 19.0607C18.7794 19.342 18.3978 19.5 18 19.5C17.6022 19.5 17.2206 19.342 16.9393 19.0607C16.658 18.7794 16.5 18.3978 16.5 18C16.5 17.6022 16.658 17.2206 16.9393 16.9393C17.2206 16.658 17.6022 16.5 18 16.5C18.3978 16.5 18.7794 16.658 19.0607 16.9393C19.342 17.2206 19.5 17.6022 19.5 18ZM22.5 18C22.5 19.1935 22.0259 20.3381 21.182 21.182C20.3381 22.0259 19.1935 22.5 18 22.5C16.8065 22.5 15.6619 22.0259 14.818 21.182C13.9741 20.3381 13.5 19.1935 13.5 18C13.5 16.8065 13.9741 15.6619 14.818 14.818C15.6619 13.9741 16.8065 13.5 18 13.5C19.1935 13.5 20.3381 13.9741 21.182 14.818C22.0259 15.6619 22.5 16.8065 22.5 18Z" fill="#0C0C0E"/>
</svg>
