<svg width="24" height="24" viewBox="0 0 24 24" fill="none" xmlns="http://www.w3.org/2000/svg">
<path d="M10.2231 20.2894C10.6182 20.5166 11.1111 20.2314 11.1111 19.7757V13.0086C11.1111 12.797 10.9983 12.6014 10.8151 12.4955L4.88919 9.06962C4.49412 8.84122 4 9.12631 4 9.58264V16.3683C4 16.5804 4.11334 16.7763 4.2972 16.882L10.2231 20.2894ZM12.8889 19.7757C12.8889 20.2314 13.3818 20.5166 13.7769 20.2894L19.7028 16.882C19.8867 16.7763 20 16.5804 20 16.3683V9.58264C20 9.12631 19.5059 8.84122 19.1108 9.06962L13.1849 12.4955C13.0017 12.6014 12.8889 12.797 12.8889 13.0086V19.7757ZM16.1243 8.40632C16.3085 8.51235 16.5355 8.51156 16.719 8.40425L18.3823 7.43163C18.6771 7.25924 18.6754 6.83258 18.3792 6.66253L12.2944 3.169C12.112 3.06431 11.8879 3.06408 11.7053 3.1684L10.0285 4.12658C9.73041 4.29691 9.72976 4.72646 10.0273 4.89768L16.1243 8.40632ZM11.7055 10.9638C11.8879 11.0688 12.1123 11.0692 12.295 10.9647L13.9744 10.0051C14.2718 9.83514 14.2733 9.40679 13.977 9.23482L7.89609 5.70519C7.71288 5.59886 7.48685 5.59839 7.30321 5.70399L5.60313 6.68153C5.30599 6.85239 5.30591 7.28108 5.60299 7.45204L11.7055 10.9638Z" fill="#C9CACF"/>
</svg>
