<svg width="24" height="25" viewBox="0 0 24 25" fill="none" xmlns="http://www.w3.org/2000/svg">
<path d="M12 1.91992C9.66525 1.91992 7.52325 2.47642 6.02325 4.14667C4.52325 5.81617 3.75 8.45617 3.75 12.4199C3.75 16.3837 4.52325 19.0237 6.02325 20.6932C7.52325 22.3634 9.66525 22.9199 12 22.9199C14.3348 22.9199 16.4797 22.3634 17.9767 20.6932C19.4737 19.0237 20.25 16.3837 20.25 12.4199C20.25 8.45617 19.4737 5.81617 17.9767 4.14667C16.4797 2.47642 14.3348 1.91992 12 1.91992Z" fill="#F2F7FF"/>
<path d="M4.64518 3.98084L4.64525 3.98076C6.0113 2.45967 7.98559 1.91992 10.25 1.91992C12.5148 1.91992 14.4916 2.45984 15.8544 3.98039L15.8545 3.98047C17.2304 5.51489 18 8.00502 18 11.9199C18 15.8348 17.2304 18.325 15.8545 19.8594L15.8544 19.8595C14.4916 21.38 12.5148 21.9199 10.25 21.9199C7.98559 21.9199 6.0113 21.3802 4.64525 19.8591L4.64518 19.859C3.26684 18.3249 2.5 15.8353 2.5 11.9199C2.5 8.00452 3.26684 5.51493 4.64518 3.98084Z" stroke="black"/>
<path d="M9.80646 5.04163C9.89566 5.00276 9.99427 4.99076 10.0902 5.0071C10.1861 5.02344 10.2752 5.06742 10.3465 5.13363L13.8465 8.38363C13.8969 8.43043 13.9371 8.48714 13.9646 8.5502C13.9922 8.61327 14.0063 8.68133 14.0063 8.75013C14.0063 8.81893 13.9922 8.887 13.9646 8.95006C13.9371 9.01312 13.8969 9.06983 13.8465 9.11663L10.7415 12.0001L13.8465 14.8836C13.8969 14.9304 13.9371 14.9871 13.9646 15.0502C13.9922 15.1133 14.0063 15.1813 14.0063 15.2501C14.0063 15.3189 13.9922 15.387 13.9646 15.4501C13.9371 15.5131 13.8969 15.5698 13.8465 15.6166L10.3465 18.8666C10.2751 18.9328 10.1861 18.9767 10.0902 18.993C9.99425 19.0093 9.89568 18.9972 9.80651 18.9583C9.71735 18.9194 9.64147 18.8553 9.58818 18.774C9.53488 18.6926 9.50648 18.5974 9.50646 18.5001V13.1466L6.84646 15.6166C6.79859 15.6626 6.74202 15.6987 6.68008 15.7226C6.61813 15.7465 6.55204 15.7578 6.48567 15.7559C6.41929 15.754 6.35396 15.7389 6.29348 15.7115C6.23301 15.6841 6.1786 15.6449 6.13344 15.5962C6.08828 15.5475 6.05327 15.4903 6.03045 15.428C6.00763 15.3656 5.99746 15.2993 6.00054 15.233C6.00361 15.1666 6.01987 15.1016 6.04835 15.0416C6.07684 14.9816 6.11699 14.9279 6.16646 14.8836L9.27146 12.0001L6.16646 9.11663C6.07195 9.0258 6.01689 8.90149 6.01313 8.77046C6.00938 8.63944 6.05722 8.51217 6.14637 8.41608C6.23552 8.31998 6.35884 8.26273 6.48978 8.25666C6.62072 8.2506 6.74881 8.29619 6.84646 8.38363L9.50646 10.8536V5.50013C9.50642 5.4028 9.53478 5.30757 9.58807 5.22613C9.64136 5.14468 9.71726 5.08056 9.80646 5.04163ZM10.5065 13.1466V17.3536L12.7715 15.2501L10.5065 13.1466ZM10.5065 10.8536L12.7715 8.75013L10.5065 6.64663V10.8536Z" fill="#565E6B"/>
</svg>
