<svg width="16" height="17" viewBox="0 0 16 17" fill="none" xmlns="http://www.w3.org/2000/svg">
<g id="ic:round-phone">
<path id="Vector" d="M12.82 10.6735L11.1267 10.4802C10.9276 10.4568 10.7258 10.4788 10.5364 10.5446C10.347 10.6105 10.175 10.7183 10.0334 10.8602L8.80669 12.0868C6.91415 11.1243 5.37588 9.58604 4.41336 7.6935L5.64669 6.46017C5.93336 6.1735 6.07336 5.7735 6.02669 5.36684L5.83336 3.68684C5.79556 3.36162 5.63949 3.06166 5.39485 2.84407C5.15021 2.62648 4.8341 2.50645 4.50669 2.50684H3.35336C2.60003 2.50684 1.97336 3.1335 2.02003 3.88684C2.37336 9.58017 6.92669 14.1268 12.6134 14.4802C13.3667 14.5268 13.9934 13.9002 13.9934 13.1468V11.9935C14 11.3202 13.4934 10.7535 12.82 10.6735Z" fill="#565E6B"/>
</g>
</svg>
