<svg width="16" height="16" viewBox="0 0 16 16" fill="none" xmlns="http://www.w3.org/2000/svg">
<path d="M14 1.5L13 1L12 1.5L11 1L10 1.5L9 1L8 1.5L7 1L6 1.5L4.5 1V9.00156H11.5V13.25C11.5 14.2166 12.5334 15 13.5 15H13.875C14.8416 15 15.5 14.2166 15.5 13.25V1L14 1.5ZM8.51562 7.5L8.5 6.5H13.4844L13.5 7.5H8.51562ZM6.51562 5L6.5 4H13.4844L13.5 5H6.51562Z" fill="#0544AB"/>
<path d="M10.5 13.25V10H0.5V11C0.5 12.5797 0.680625 13.2381 0.951875 13.7384C1.41219 14.5875 2.24563 15 3.5 15H11.5C11.5 15 10.5 14.375 10.5 13.25Z" fill="#0544AB"/>
</svg>
