<svg width="28" height="28" viewBox="0 0 28 28" fill="none" xmlns="http://www.w3.org/2000/svg">
<path d="M14 13.7085C14.5639 13.7085 15.0452 13.5092 15.4438 13.1106C15.8424 12.712 16.0417 12.2307 16.0417 11.6668C16.0417 11.1029 15.8424 10.6217 15.4438 10.2231C15.0452 9.82447 14.5639 9.62516 14 9.62516C13.4361 9.62516 12.9549 9.82447 12.5563 10.2231C12.1577 10.6217 11.9584 11.1029 11.9584 11.6668C11.9584 12.2307 12.1577 12.712 12.5563 13.1106C12.9549 13.5092 13.4361 13.7085 14 13.7085ZM14 23.3627C16.5861 21.0099 18.4965 18.8759 19.7313 16.9606C20.966 15.0453 21.5834 13.3585 21.5834 11.9002C21.5834 9.60572 20.8493 7.72933 19.3813 6.271C17.9132 4.81266 16.1195 4.0835 14 4.0835C11.8806 4.0835 10.0868 4.81266 8.61877 6.271C7.15071 7.72933 6.41669 9.60572 6.41669 11.9002C6.41669 13.3585 7.04863 15.0453 8.31252 16.9606C9.57641 18.8759 11.4722 21.0099 14 23.3627ZM14 25.6668C10.8695 23.0029 8.53127 20.5286 6.98544 18.2439C5.4396 15.9592 4.66669 13.8446 4.66669 11.9002C4.66669 8.9835 5.60488 6.65989 7.48127 4.92933C9.35766 3.19877 11.5306 2.3335 14 2.3335C16.4695 2.3335 18.6424 3.19877 20.5188 4.92933C22.3952 6.65989 23.3334 8.9835 23.3334 11.9002C23.3334 13.8446 22.5604 15.9592 21.0146 18.2439C19.4688 20.5286 17.1306 23.0029 14 25.6668Z" fill="black"/>
</svg>
