<svg width="36" height="36" viewBox="0 0 36 36" fill="none" xmlns="http://www.w3.org/2000/svg">
<path d="M24.2474 3H11.7224C10.6947 3.01187 9.7135 3.43054 8.99378 4.16433C8.27405 4.89811 7.87444 5.8872 7.88244 6.915V29.085C7.87444 30.1128 8.27405 31.1019 8.99378 31.8357C9.7135 32.5695 10.6947 32.9881 11.7224 33H24.2774C25.3052 32.9881 26.2864 32.5695 27.0061 31.8357C27.7258 31.1019 28.1254 30.1128 28.1174 29.085V6.915C28.1214 6.40356 28.0243 5.89636 27.8318 5.42252C27.6393 4.94869 27.3551 4.51753 26.9955 4.15379C26.6359 3.79005 26.2081 3.50088 25.7365 3.30289C25.2649 3.10489 24.7589 3.00196 24.2474 3ZM17.9774 29.655C17.678 29.657 17.3812 29.5999 17.1038 29.4872C16.8264 29.3744 16.574 29.2081 16.3608 28.9978C16.1477 28.7875 15.9781 28.5372 15.8617 28.2614C15.7453 27.9855 15.6844 27.6894 15.6824 27.39C15.6805 27.0906 15.7375 26.7937 15.8503 26.5163C15.963 26.239 16.1293 25.9865 16.3396 25.7734C16.55 25.5603 16.8002 25.3907 17.0761 25.2743C17.3519 25.1579 17.648 25.097 17.9474 25.095C18.5521 25.091 19.1336 25.3274 19.564 25.7522C19.9944 26.177 20.2385 26.7553 20.2424 27.36C20.2464 27.9647 20.01 28.5462 19.5853 28.9766C19.1605 29.407 18.5821 29.651 17.9774 29.655ZM20.9774 9.405H14.9774C14.5796 9.405 14.1981 9.24696 13.9168 8.96566C13.6355 8.68436 13.4774 8.30282 13.4774 7.905C13.4774 7.50718 13.6355 7.12564 13.9168 6.84434C14.1981 6.56304 14.5796 6.405 14.9774 6.405H20.9774C21.3753 6.405 21.7568 6.56304 22.0381 6.84434C22.3194 7.12564 22.4774 7.50718 22.4774 7.905C22.4774 8.30282 22.3194 8.68436 22.0381 8.96566C21.7568 9.24696 21.3753 9.405 20.9774 9.405Z" fill="#0C0C0E"/>
</svg>
