<svg width="43" height="43" viewBox="0 0 43 43" fill="none" xmlns="http://www.w3.org/2000/svg">
<g clip-path="url(#clip0_282_730)">
<path d="M42.7668 0.100098H0.100098V42.7668H42.7668V0.100098Z" fill="black"/>
<path d="M18.9267 15.6468H10.6956C9.77112 15.629 9.00668 16.3579 8.9889 17.2824C8.97112 18.2068 9.70001 18.9712 10.6245 18.989C10.6511 18.989 10.6778 18.989 10.7045 18.989H14.9L8.14446 25.7446C7.50446 26.4112 7.53112 27.469 8.19779 28.109C8.84668 28.7224 9.86001 28.7224 10.5089 28.109L17.2645 21.3535V25.549C17.2822 26.4735 18.0467 27.2024 18.9711 27.1846C19.86 27.1668 20.58 26.4468 20.6067 25.549V17.3179C20.6067 16.3935 19.86 15.6468 18.9356 15.6468" fill="white"/>
<path d="M23.94 27.2201H32.1711C33.0956 27.2378 33.86 26.509 33.8778 25.5845C33.8956 24.6601 33.1667 23.8956 32.2422 23.8778C32.2156 23.8778 32.1889 23.8778 32.1622 23.8778H27.9667L34.7222 17.1223C35.3889 16.4823 35.4156 15.4245 34.7756 14.7578C34.1356 14.0912 33.0778 14.0645 32.4111 14.7045C32.3933 14.7223 32.3756 14.7401 32.3578 14.7578L25.6022 21.5134V17.3178C25.5845 16.3934 24.82 15.6645 23.8956 15.6823C23.0067 15.7001 22.2867 16.4201 22.26 17.3178V25.549C22.26 26.4734 23.0067 27.2201 23.9311 27.2201" fill="#FF7900"/>
</g>
<defs>
<clipPath id="clip0_282_730">
<rect width="42.6667" height="42.6667" fill="white" transform="translate(0.100098 0.100098)"/>
</clipPath>
</defs>
</svg>
