<svg width="268" height="271" viewBox="0 0 268 271" fill="none" xmlns="http://www.w3.org/2000/svg">
<g clip-path="url(#clip0_1078_2018)">
<path d="M109.06 67.0397C66.52 73.7497 34.15 35.0697 69.12 6.34968C89.99 -10.7903 98.24 12.1497 125.18 12.8397C137.69 13.1597 153.07 -6.50032 162.89 10.8897C172.71 28.2797 170.16 57.4097 109.06 67.0497V67.0397Z" fill="#FFE48C"/>
<path d="M121.43 257.53C136.3 282.27 226.41 231.65 200.54 210.65C182.03 195.63 102.35 225.79 121.43 257.53Z" fill="#FFE48C"/>
<path d="M4.65 221.479C19.83 252.049 104.58 251.859 142.06 185.699C152.99 166.409 160.99 216.809 197.48 199.669C233.98 182.539 269.52 143.879 255.91 106.549C238.48 58.7494 160.26 57.1094 97.74 81.2094C31.99 106.549 -15.4 181.099 4.65 221.479Z" fill="#FFE48C"/>
<path d="M12.6099 263.44C15.9199 262.38 16.5199 261.53 17.2699 256.85C18.0199 261.53 18.6199 262.38 21.9299 263.44C18.6199 264.5 18.0199 265.35 17.2699 270.03C16.5199 265.35 15.9199 264.5 12.6099 263.44Z" fill="#0544A8"/>
<path d="M152.57 105.85C154.73 105.16 155.12 104.6 155.61 101.55C156.1 104.6 156.49 105.16 158.65 105.85C156.49 106.54 156.1 107.1 155.61 110.15C155.12 107.1 154.73 106.54 152.57 105.85Z" fill="#0544A8"/>
<path d="M179.71 120.99C187.31 118.56 188.7 116.59 190.42 105.85C192.14 116.59 193.53 118.56 201.13 120.99C193.53 123.42 192.14 125.39 190.42 136.13C188.7 125.38 187.31 123.42 179.71 120.99Z" fill="#0544A8"/>
<path d="M25.1399 242.67C34.2899 240.37 35.4499 238.51 36.8699 223.72C38.2899 238.51 39.4399 240.37 48.5999 242.67C39.4499 244.97 38.2899 246.83 36.8699 261.62C35.4499 246.83 34.2999 244.97 25.1399 242.67Z" fill="#0544A8"/>
<path d="M113.07 241.52C113.07 240.81 113.66 240.229 114.39 240.229C115.12 240.229 115.71 240.81 115.71 241.52C115.71 242.23 115.12 242.809 114.39 242.809C113.66 242.809 113.07 242.23 113.07 241.52Z" fill="#0544A8"/>
<path d="M232.84 218.18C232.84 217.84 233.12 217.56 233.48 217.56C233.84 217.56 234.12 217.84 234.12 218.18C234.12 218.52 233.84 218.8 233.48 218.8C233.12 218.8 232.84 218.52 232.84 218.18Z" fill="#0544A8"/>
<path d="M102.81 247.09C102.81 246.75 103.09 246.47 103.45 246.47C103.81 246.47 104.09 246.75 104.09 247.09C104.09 247.43 103.81 247.71 103.45 247.71C103.09 247.71 102.81 247.43 102.81 247.09Z" fill="#0544A8"/>
<path d="M153.55 246.47C153.55 246.13 153.83 245.85 154.19 245.85C154.55 245.85 154.83 246.13 154.83 246.47C154.83 246.81 154.55 247.09 154.19 247.09C153.83 247.09 153.55 246.81 153.55 246.47Z" fill="#0544A8"/>
<path d="M227.15 249.7C228.332 249.7 229.29 248.218 229.29 246.39C229.29 244.562 228.332 243.08 227.15 243.08C225.968 243.08 225.01 244.562 225.01 246.39C225.01 248.218 225.968 249.7 227.15 249.7Z" fill="#FFE48C"/>
<path d="M38.9999 32.7397C40.9771 32.7397 42.5799 30.2548 42.5799 27.1896C42.5799 24.1245 40.9771 21.6396 38.9999 21.6396C37.0227 21.6396 35.4199 24.1245 35.4199 27.1896C35.4199 30.2548 37.0227 32.7397 38.9999 32.7397Z" fill="#FFE48C"/>
<path d="M87.1199 250.77C89.7046 250.77 91.7999 248.733 91.7999 246.22C91.7999 243.707 89.7046 241.67 87.1199 241.67C84.5352 241.67 82.4399 243.707 82.4399 246.22C82.4399 248.733 84.5352 250.77 87.1199 250.77Z" fill="#FFE48C"/>
<path d="M222.02 24.1301C222.815 24.1301 223.46 23.5033 223.46 22.7301C223.46 21.9569 222.815 21.3301 222.02 21.3301C221.225 21.3301 220.58 21.9569 220.58 22.7301C220.58 23.5033 221.225 24.1301 222.02 24.1301Z" fill="#FFE48C"/>
<path d="M136.91 264.83C137.291 264.83 137.6 264.525 137.6 264.15C137.6 263.774 137.291 263.47 136.91 263.47C136.529 263.47 136.22 263.774 136.22 264.15C136.22 264.525 136.529 264.83 136.91 264.83Z" fill="#FFE48C"/>
<path d="M5.70996 224.92C5.70996 224.55 6.01996 224.24 6.39996 224.24C6.77996 224.24 7.08996 224.54 7.08996 224.92C7.08996 225.3 6.77996 225.59 6.39996 225.59C6.01996 225.59 5.70996 225.29 5.70996 224.92Z" fill="#FFE48C"/>
<path d="M213.96 15.72C213.96 15.35 214.27 15.04 214.65 15.04C215.03 15.04 215.34 15.34 215.34 15.72C215.34 16.1 215.03 16.39 214.65 16.39C214.27 16.39 213.96 16.09 213.96 15.72Z" fill="#FFE48C"/>
<path d="M265.13 102.24C265.13 101.48 265.76 100.87 266.54 100.87C267.32 100.87 267.95 101.48 267.95 102.24C267.95 103 267.32 103.61 266.54 103.61C265.76 103.61 265.13 103 265.13 102.24Z" fill="#FFE48C"/>
<path d="M42.75 121.66C42.75 121.29 43.06 120.98 43.44 120.98C43.82 120.98 44.13 121.28 44.13 121.66C44.13 122.04 43.82 122.33 43.44 122.33C43.06 122.33 42.75 122.03 42.75 121.66Z" fill="#FFE48C"/>
<path opacity="0.2" d="M129.23 49.8691H13.2399C8.51791 49.8691 4.68994 53.6971 4.68994 58.4191V141.629C4.68994 146.351 8.51791 150.179 13.2399 150.179H129.23C133.952 150.179 137.78 146.351 137.78 141.629V58.4191C137.78 53.6971 133.952 49.8691 129.23 49.8691Z" fill="black"/>
<path d="M125.94 44.5996H9.9499C5.22787 44.5996 1.3999 48.4276 1.3999 53.1496V136.36C1.3999 141.082 5.22787 144.91 9.9499 144.91H125.94C130.662 144.91 134.49 141.082 134.49 136.36V53.1496C134.49 48.4276 130.662 44.5996 125.94 44.5996Z" fill="#0544A8"/>
<path d="M44.4398 90.4498L15.9698 99.6998C10.8598 83.9798 19.4698 67.0898 35.1898 61.9798C38.3298 60.9598 41.1298 60.5098 44.4398 60.5098V90.4498Z" fill="#FFC200"/>
<path d="M44.4397 90.4502L62.0397 114.67C48.6597 124.39 29.9397 121.42 20.2297 108.05C18.2897 105.37 16.9997 102.85 15.9797 99.7102L44.4497 90.4602L44.4397 90.4502Z" fill="#042A60"/>
<path d="M44.4399 90.4502L72.9099 81.2002C76.9999 93.7802 72.7399 106.89 62.0399 114.67L44.4399 90.4502Z" fill="#3F9BF2"/>
<path d="M44.4399 90.4498V60.5098C57.6699 60.5098 68.8199 68.6198 72.9099 81.1898L44.4399 90.4398V90.4498Z" fill="#042A60"/>
<path d="M44.4698 109.11C54.7754 109.11 63.1298 100.756 63.1298 90.45C63.1298 80.1444 54.7754 71.79 44.4698 71.79C34.1642 71.79 25.8098 80.1444 25.8098 90.45C25.8098 100.756 34.1642 109.11 44.4698 109.11Z" fill="#0544A8"/>
<path d="M123.81 58.6992H82.7998V62.0892H123.81V58.6992Z" fill="#FFC200"/>
<path d="M114.99 65.9688H82.7998V69.3587H114.99V65.9688Z" fill="#3F9BF2"/>
<path d="M106.46 73.2393H82.7998V76.6293H106.46V73.2393Z" fill="#042A60"/>
<path d="M116.41 80.5088H82.7998V83.8988H116.41V80.5088Z" fill="#FFC200"/>
<path d="M98.7798 87.7891H82.7998V91.1791H98.7798V87.7891Z" fill="#3F9BF2"/>
<path d="M123.81 95.0596H82.7998V98.4496H123.81V95.0596Z" fill="#042A60"/>
<path d="M113 102.329H82.7998V105.719H113V102.329Z" fill="#FFC200"/>
<path d="M109.19 109.6H82.7998V112.99H109.19V109.6Z" fill="#3F9BF2"/>
<path d="M123.81 116.869H82.7998V120.259H123.81V116.869Z" fill="#042A60"/>
<path d="M29.2 126.779H60.99" stroke="#E2EAFF" stroke-miterlimit="10"/>
<path d="M24.7 131.26H65.4899" stroke="#E2EAFF" stroke-miterlimit="10"/>
<path d="M83.8799 126.779H115.68" stroke="#E2EAFF" stroke-miterlimit="10"/>
<path d="M79.3799 131.26H120.17" stroke="#E2EAFF" stroke-miterlimit="10"/>
<path opacity="0.2" d="M242.35 159.489H126.36C121.638 159.489 117.81 163.317 117.81 168.039V251.249C117.81 255.971 121.638 259.799 126.36 259.799H242.35C247.072 259.799 250.9 255.971 250.9 251.249V168.039C250.9 163.317 247.072 159.489 242.35 159.489Z" fill="black"/>
<path d="M237.73 154.22H121.74C117.018 154.22 113.19 158.048 113.19 162.77V245.98C113.19 250.702 117.018 254.53 121.74 254.53H237.73C242.452 254.53 246.28 250.702 246.28 245.98V162.77C246.28 158.048 242.452 154.22 237.73 154.22Z" fill="#0544A8"/>
<path d="M237.9 232.7H231V240.35H237.9V232.7Z" fill="#FFC200"/>
<path d="M230.23 194.431H223.33V240.351H230.23V194.431Z" fill="#3F9BF2"/>
<path d="M222.55 210.91H215.65V240.35H222.55V210.91Z" fill="#042A60"/>
<path d="M214.88 187.95H207.98V240.35H214.88V187.95Z" fill="#FFC200"/>
<path d="M207.21 226.811H200.31V240.351H207.21V226.811Z" fill="#3F9BF2"/>
<path d="M199.54 222.69H192.64V240.35H199.54V222.69Z" fill="#042A60"/>
<path d="M191.87 205.03H184.97V240.36H191.87V205.03Z" fill="#FFC200"/>
<path d="M184.2 234.46H177.3V240.35H184.2V234.46Z" fill="#3F9BF2"/>
<path d="M176.53 194.431H169.63V240.351H176.53V194.431Z" fill="#042A60"/>
<path d="M168.86 203.26H161.96V240.35H168.86V203.26Z" fill="#FFC200"/>
<path d="M161.19 238.58H154.29V240.35H161.19V238.58Z" fill="#3F9BF2"/>
<path d="M153.52 238H146.62V240.36H153.52V238Z" fill="#042A60"/>
<path d="M145.85 210.91H138.95V240.35H145.85V210.91Z" fill="#FFC200"/>
<path d="M138.18 234.46H131.28V240.35H138.18V234.46Z" fill="#3F9BF2"/>
<path d="M130.51 228.58H123.61V240.36H130.51V228.58Z" fill="#042A60"/>
<path d="M154.49 175.17H124.5V181H154.49V175.17Z" fill="#FFC200"/>
<path d="M154.5 181.01H235.35V175.18H154.5V181.01Z" fill="#FFC200"/>
<path d="M172.96 175.17H154.5V181H172.96V175.17Z" fill="#3F9BF2"/>
<path d="M207.76 175.17H173.08V181H207.76V175.17Z" fill="#042A60"/>
<path opacity="0.2" d="M258.72 6.64941H168.12C163.398 6.64941 159.57 10.4774 159.57 15.1994V79.2694C159.57 83.9914 163.398 87.8194 168.12 87.8194H258.72C263.442 87.8194 267.27 83.9914 267.27 79.2694V15.1994C267.27 10.4774 263.442 6.64941 258.72 6.64941Z" fill="black"/>
<path d="M254.76 1.37988H164.16C159.438 1.37988 155.61 5.20785 155.61 9.92988V73.9999C155.61 78.7219 159.438 82.5499 164.16 82.5499H254.76C259.482 82.5499 263.31 78.7219 263.31 73.9999V9.92988C263.31 5.20785 259.482 1.37988 254.76 1.37988Z" fill="#0544A8"/>
<path d="M160.61 74.9502H261.72" stroke="#1A2E35" stroke-width="0.5" stroke-miterlimit="10"/>
<path d="M160.61 74.9502V76.4402" stroke="#1A2E35" stroke-width="0.5" stroke-miterlimit="10"/>
<path d="M167.35 74.9502V76.4402" stroke="#1A2E35" stroke-width="0.5" stroke-miterlimit="10"/>
<path d="M174.09 74.9502V76.4402" stroke="#1A2E35" stroke-width="0.5" stroke-miterlimit="10"/>
<path d="M180.83 74.9502V76.4402" stroke="#1A2E35" stroke-width="0.5" stroke-miterlimit="10"/>
<path d="M187.57 74.9502V76.4402" stroke="#1A2E35" stroke-width="0.5" stroke-miterlimit="10"/>
<path d="M194.31 74.9502V76.4402" stroke="#1A2E35" stroke-width="0.5" stroke-miterlimit="10"/>
<path d="M201.05 74.9502V76.4402" stroke="#1A2E35" stroke-width="0.5" stroke-miterlimit="10"/>
<path d="M207.79 74.9502V76.4402" stroke="#1A2E35" stroke-width="0.5" stroke-miterlimit="10"/>
<path d="M214.53 74.9502V76.4402" stroke="#1A2E35" stroke-width="0.5" stroke-miterlimit="10"/>
<path d="M221.27 74.9502V76.4402" stroke="#1A2E35" stroke-width="0.5" stroke-miterlimit="10"/>
<path d="M228.02 74.9502V76.4402" stroke="#1A2E35" stroke-width="0.5" stroke-miterlimit="10"/>
<path d="M234.76 74.9502V76.4402" stroke="#1A2E35" stroke-width="0.5" stroke-miterlimit="10"/>
<path d="M241.5 74.9502V76.4402" stroke="#1A2E35" stroke-width="0.5" stroke-miterlimit="10"/>
<path d="M248.24 74.9502V76.4402" stroke="#1A2E35" stroke-width="0.5" stroke-miterlimit="10"/>
<path d="M254.98 74.9502V76.4402" stroke="#1A2E35" stroke-width="0.5" stroke-miterlimit="10"/>
<path d="M261.72 74.9502V76.4402" stroke="#1A2E35" stroke-width="0.5" stroke-miterlimit="10"/>
<path d="M163.98 73.73H258.35V60.68L251.68 47.77C251.63 47.68 251.6 47.58 251.59 47.48L245.66 9.19996C245.51 8.25996 244.35 8.27996 244.22 9.21996L238.18 55.96C238.15 56.2 238.03 56.41 237.86 56.54L232.04 61.04C231.69 61.31 231.21 61.18 231 60.75L225.14 48.66C224.9 48.16 224.3 48.08 223.96 48.51L217.9 56.33L211.16 65.03L204.42 56.33L198.48 48.67C198.11 48.2 197.45 48.34 197.26 48.94L190.94 68.51L184.2 33.63L177.46 71.99L170.72 66.77L165.38 51.62C165.08 50.76 163.98 51.01 163.98 51.94V73.73Z" fill="#FFC200"/>
<path d="M258.35 73.7497H163.98V62.5297L170.65 51.4297C170.7 51.3497 170.73 51.2697 170.74 51.1797L176.67 18.2597C176.82 17.4497 177.99 17.4697 178.11 18.2797L184.15 58.4697C184.18 58.6697 184.3 58.8497 184.47 58.9697L190.29 62.8397C190.64 63.0697 191.12 62.9597 191.33 62.5897L197.19 52.1897C197.43 51.7597 198.03 51.6897 198.37 52.0597L204.43 58.7897L211.17 66.2697L217.91 58.7897L223.85 52.1997C224.22 51.7897 224.88 51.9197 225.07 52.4297L231.39 69.2597H238.13L244.87 72.2497L251.61 67.7597L256.95 54.7297C257.25 53.9897 258.35 54.2097 258.35 55.0097V73.7497Z" fill="#042A60"/>
<path d="M215.08 12.2002H235.97" stroke="#E2EAFF" stroke-miterlimit="10" stroke-linecap="round"/>
<path d="M215.08 17.0898H235.97" stroke="#E2EAFF" stroke-miterlimit="10" stroke-linecap="round"/>
<path d="M215.08 21.9805H235.97" stroke="#E2EAFF" stroke-miterlimit="10" stroke-linecap="round"/>
<path d="M215.08 26.8701H235.97" stroke="#E2EAFF" stroke-miterlimit="10" stroke-linecap="round"/>
<path d="M215.08 31.7598H235.97" stroke="#E2EAFF" stroke-miterlimit="10" stroke-linecap="round"/>
<path d="M215.08 36.6504H235.97" stroke="#E2EAFF" stroke-miterlimit="10" stroke-linecap="round"/>
<path d="M210.34 12.2002H212.95" stroke="#E2EAFF" stroke-miterlimit="10" stroke-linecap="round"/>
<path d="M210.34 17.0898H212.95" stroke="#E2EAFF" stroke-miterlimit="10" stroke-linecap="round"/>
<path d="M210.34 21.9805H212.95" stroke="#E2EAFF" stroke-miterlimit="10" stroke-linecap="round"/>
<path d="M210.34 26.8701H212.95" stroke="#E2EAFF" stroke-miterlimit="10" stroke-linecap="round"/>
<path d="M210.34 31.7598H212.95" stroke="#E2EAFF" stroke-miterlimit="10" stroke-linecap="round"/>
<path d="M210.34 36.6504H212.95" stroke="#E2EAFF" stroke-miterlimit="10" stroke-linecap="round"/>
</g>
<defs>
<clipPath id="clip0_1078_2018">
<rect width="267.96" height="270.03" fill="white"/>
</clipPath>
</defs>
</svg>
