<svg width="17" height="12" viewBox="0 0 17 12" fill="none" xmlns="http://www.w3.org/2000/svg">
<path fill-rule="evenodd" clip-rule="evenodd" d="M6.60909 10.5636C7.28788 10.8182 7.91818 11.1758 8.5 11.6364C9.08182 11.1758 9.71212 10.8182 10.3909 10.5636C11.0697 10.3091 11.7727 10.1818 12.5 10.1818C13.0096 10.1818 13.5097 10.2485 14.0004 10.3818C14.491 10.5152 14.9606 10.703 15.4091 10.9455C15.6641 11.0788 15.9097 11.0727 16.1458 10.9273C16.3819 10.7818 16.5 10.5697 16.5 10.2909V1.52727C16.5005 1.39394 16.4673 1.26667 16.4004 1.14546C16.3335 1.02424 16.2333 0.933335 16.1 0.872729C15.5308 0.594426 14.9461 0.379396 14.3458 0.227639C13.7456 0.0758812 13.1303 2.31616e-06 12.5 2.31616e-06C11.7975 2.31616e-06 11.1097 0.0909114 10.4367 0.272729C9.76376 0.454548 9.11818 0.727275 8.5 1.09091C7.8823 0.727275 7.23697 0.454548 6.564 0.272729C5.89103 0.0909114 5.20303 2.31616e-06 4.5 2.31616e-06C3.87018 -0.000482532 3.25515 0.0751537 2.65491 0.226911C2.05467 0.378669 1.4697 0.593941 0.9 0.872729C0.767151 0.933335 0.667273 1.02424 0.600364 1.14546C0.533455 1.26667 0.5 1.39394 0.5 1.52727V10.2909C0.500485 10.5697 0.618788 10.7818 0.854909 10.9273C1.09103 11.0727 1.33636 11.0788 1.59091 10.9455C2.03988 10.703 2.5097 10.5152 3.00036 10.3818C3.49103 10.2485 3.99091 10.1818 4.5 10.1818C5.22727 10.1818 5.9303 10.3091 6.60909 10.5636ZM2.36667 3.59599C2.31757 3.59599 2.27778 3.63579 2.27778 3.68488V7.06266C2.27778 7.11175 2.31757 7.15154 2.36667 7.15154H3.18626C3.23536 7.15154 3.27515 7.11175 3.27515 7.06266V5.52101C3.27515 5.42773 3.40049 5.39742 3.44311 5.48039L3.89603 6.36211C3.91125 6.39175 3.94177 6.41039 3.97509 6.41039H4.58036C4.61374 6.41039 4.6443 6.39169 4.6595 6.36198L5.11238 5.47682C5.1549 5.39371 5.2804 5.42395 5.2804 5.5173V7.06266C5.2804 7.11175 5.3202 7.15154 5.36929 7.15154H6.18889C6.23798 7.15154 6.27778 7.11175 6.27778 7.06266V3.68488C6.27778 3.63579 6.23798 3.59599 6.18889 3.59599H5.29763C5.26447 3.59599 5.23406 3.61445 5.21876 3.64388L4.36715 5.28214C4.33395 5.34599 4.2426 5.34599 4.20941 5.28214L3.35779 3.64388C3.34249 3.61445 3.31209 3.59599 3.27892 3.59599H2.36667Z" fill="#777986"/>
</svg>
