<svg width="16" height="18" viewBox="0 0 16 18" fill="none" xmlns="http://www.w3.org/2000/svg">
<path d="M6.22313 17.2894C6.61819 17.5166 7.11111 17.2314 7.11111 16.7757V10.0086C7.11111 9.79698 6.99829 9.60144 6.81511 9.49554L0.889187 6.06962C0.494125 5.84122 0 6.12631 0 6.58264V13.3683C0 13.5804 0.113343 13.7763 0.297202 13.882L6.22313 17.2894ZM8.88889 16.7757C8.88889 17.2314 9.38181 17.5166 9.77687 17.2894L15.7028 13.882C15.8867 13.7763 16 13.5804 16 13.3683V6.58264C16 6.12631 15.5059 5.84122 15.1108 6.06962L9.18489 9.49554C9.00171 9.60144 8.88889 9.79698 8.88889 10.0086V16.7757ZM12.1243 5.40632C12.3085 5.51235 12.5355 5.51156 12.719 5.40425L14.3823 4.43163C14.6771 4.25924 14.6754 3.83258 14.3792 3.66253L8.29436 0.169002C8.11202 0.0643124 7.88785 0.0640842 7.7053 0.168402L6.02848 1.12658C5.73041 1.29691 5.72976 1.72646 6.0273 1.89768L12.1243 5.40632ZM7.70547 7.96384C7.88789 8.06882 8.11231 8.06916 8.29505 7.96474L9.97442 7.00509C10.2718 6.83514 10.2733 6.40679 9.97703 6.23482L3.89609 2.70519C3.71288 2.59886 3.48685 2.59839 3.30321 2.70399L1.60313 3.68153C1.30599 3.85239 1.30591 4.28108 1.60299 4.45204L7.70547 7.96384Z" fill="#777986"/>
</svg>
