<svg width="22" height="24" viewBox="0 0 22 24" fill="none" xmlns="http://www.w3.org/2000/svg">
<g clip-path="url(#clip0_206_848)">
<path d="M11.39 1.21039L8.86998 2.67039C8.54998 2.85039 8.54998 3.31039 8.86998 3.49039L18.05 8.79039V12.8704C18.05 12.9704 18 13.0704 17.91 13.1204L15.3 14.6204L15.18 14.6904V10.4504L11.63 8.40039L5.96998 5.13039C5.54998 4.89039 5.02998 4.89039 4.60998 5.13039L1.72998 6.79039V17.0804C1.72998 17.5704 1.98998 18.0104 2.40998 18.2604L11.63 23.5804L20.82 18.2804C21.24 18.0404 21.5 17.5904 21.5 17.1004V6.79039L11.84 1.21039C11.7 1.13039 11.52 1.13039 11.38 1.21039H11.39Z" fill="#E6ECF7"/>
<path d="M6.8999 2.41L10.2199 0.5L19.9399 6.11C19.9399 6.11 17.1399 7.73 16.6199 8.02" stroke="#1B1F24" stroke-linecap="round" stroke-linejoin="round"/>
<path d="M19.9402 6.11035H19.9302" stroke="#1B1F24" stroke-linecap="round" stroke-linejoin="round"/>
<circle cx="0.5" cy="6.11035" r="0.5" fill="#1B1F24"/>
<path d="M16.54 8.07035L19.93 6.11035V17.0104L10.23 22.6104V11.7104L13.52 9.81035" stroke="#1B1F24" stroke-linecap="round" stroke-linejoin="round"/>
<path d="M19.9402 6.11035H19.9302" stroke="#1B1F24" stroke-linecap="round" stroke-linejoin="round"/>
<path d="M13.72 9.70039C13.72 9.70039 10.23 11.7104 10.22 11.7204L0.5 6.11039L3.9 4.15039" stroke="#1B1F24" stroke-linecap="round" stroke-linejoin="round"/>
<path d="M10.23 11.7304V22.6104L0.5 17.0004V6.11035L10.22 11.7204L10.23 11.7304Z" stroke="#1B1F24" stroke-linecap="round" stroke-linejoin="round"/>
<circle cx="0.5" cy="6.11035" r="0.5" fill="#1B1F24"/>
<path d="M16.5398 8.45043V12.3504L14.0098 13.8104L13.8998 13.8704V9.97043L10.6398 8.08043L4.7998 4.71043L7.4398 3.19043L16.5398 8.45043Z" fill="#565E6B"/>
</g>
<defs>
<clipPath id="clip0_206_848">
<rect width="21.5" height="23.57" fill="white"/>
</clipPath>
</defs>
</svg>
