<svg width="24" height="23" viewBox="0 0 24 23" fill="none" xmlns="http://www.w3.org/2000/svg">
<g id="Calque 1">
<g id="Group">
<path id="Vector" d="M23.6899 17.74C23.5399 16.98 22.7299 16.3 22.7599 14.77C22.7799 13.8 23.2699 13.04 23.5899 12.16C23.9299 11.24 23.7999 10.22 23.4499 9.32004C23.1099 8.45004 22.6899 7.61004 22.2199 6.80004C21.7499 6.00004 21.2099 5.23004 20.8699 4.36004C20.6199 3.74004 20.8699 2.67004 20.8699 2.67004C21.0999 2.66004 21.2899 2.47004 21.2899 2.23004C21.2899 1.99004 21.0999 1.80004 20.8699 1.79004C20.8399 1.79004 17.7999 1.79004 17.7999 1.79004C17.5399 1.81004 17.3499 2.00004 17.3499 2.24004C17.3499 2.48004 17.5399 2.67004 17.7699 2.68004C17.7699 2.68004 18.0099 3.75004 17.7699 4.37004C17.4599 5.17004 16.5299 6.70004 15.8699 8.24004L15.5099 9.57004L15.8999 8.13004H3.35988L1.62988 14.45H2.55988L3.95988 22.43H23.6799C23.6799 22.43 23.9099 18.9 23.6799 17.75L23.6899 17.74Z" fill="#E6ECF7"/>
<path id="Vector_2" d="M14.74 6.91016L13.02 13.2302H0.5L2.23 6.91016H14.74Z" stroke="#1B1F24" stroke-linecap="round" stroke-linejoin="round"/>
<path id="Vector_3" d="M13.8299 21.2105H2.82993L1.42993 13.2305" stroke="#1B1F24" stroke-linecap="round" stroke-linejoin="round"/>
<path id="Vector_4" d="M14.7199 7.02031C15.3899 5.48031 16.3099 3.96031 16.6199 3.15031C16.8599 2.53031 16.6199 1.46031 16.6199 1.46031C16.3899 1.45031 16.1999 1.26031 16.1999 1.02031C16.1999 0.780312 16.3899 0.590312 16.6499 0.570312C16.6499 0.570312 19.6899 0.570312 19.7199 0.570312C19.9499 0.580312 20.1399 0.780312 20.1399 1.01031C20.1399 1.24031 19.9499 1.44031 19.7199 1.45031C19.7199 1.45031 19.4699 2.52031 19.7199 3.14031C20.0599 4.01031 20.5999 4.78031 21.0699 5.58031C21.5399 6.38031 21.9599 7.23031 22.2999 8.10031C22.6499 9.00031 22.7799 10.0203 22.4399 10.9403C22.0999 11.8603 21.6299 12.5803 21.6099 13.5503C21.5799 15.0803 22.3899 15.7603 22.5399 16.5203C22.7699 17.6603 22.5399 21.2003 22.5399 21.2003H13.8199C13.8199 21.2003 13.5599 17.5703 13.8199 16.4003C13.9699 15.6903 14.7099 15.0803 14.7499 13.6503C14.7899 12.2903 13.9799 11.4103 13.8199 10.6403C13.8099 10.5703 13.7899 10.4803 13.7799 10.3803" stroke="#1B1F24" stroke-linecap="round" stroke-linejoin="round"/>
<path id="Vector_5" d="M21.1901 19.7005C19.1901 19.7005 17.1901 19.7005 15.1901 19.7005C15.2201 18.5405 14.9101 17.3505 15.2701 16.2505C15.4001 15.8605 15.6101 15.5005 15.7201 15.1005C15.8301 14.7205 15.8501 14.3105 15.7701 13.9205C15.6901 13.5305 15.3701 13.2005 15.6101 12.8605C16.0101 12.3005 16.9701 12.2005 17.5301 12.5205C18.0601 12.8205 18.4101 13.4305 18.9901 13.6105C19.4101 13.7405 19.8801 13.6105 20.2501 13.3705C20.6001 13.1405 20.8001 13.2705 20.6801 13.6605C20.5401 14.1205 20.4801 14.6005 20.6001 15.0705C20.7001 15.4705 20.9301 15.8305 21.0701 16.2205C21.4601 17.3205 21.1401 18.5205 21.1801 19.6905L21.1901 19.7005Z" fill="#565E6B"/>
</g>
</g>
</svg>
