<svg width="80" height="80" viewBox="0 0 80 80" fill="none" xmlns="http://www.w3.org/2000/svg">
<path d="M39.9998 35.4997L21.1665 16.6663L43.3332 2.83301L63.8332 16.6663L39.9998 35.4997Z" fill="#FFC200"/>
<path d="M39.9998 35.4997L21.1665 16.6663L28.3332 7.83301L63.8332 16.6663L39.9998 35.4997Z" fill="#FFCB05"/>
<path d="M51 73.333H29C25.6667 73.333 22.8333 70.9997 22.3333 67.6663L15 18.333H65L57.5 67.6663C57 70.9997 54.1667 73.333 51 73.333Z" fill="#3F9BF2"/>
<path d="M63.3335 21.6667H16.6668C14.8335 21.6667 13.3335 20.1667 13.3335 18.3333C13.3335 16.5 14.8335 15 16.6668 15H63.3335C65.1668 15 66.6668 16.5 66.6668 18.3333C66.6668 20.1667 65.1668 21.6667 63.3335 21.6667Z" fill="#0544AB"/>
</svg>
