<svg width="375" height="304" viewBox="0 0 375 304" fill="none" xmlns="http://www.w3.org/2000/svg">
<path d="M161.979 89.5261C121.376 95.9244 90.4826 59.0234 123.863 31.6223C143.774 15.272 151.664 37.1579 177.37 37.8152C189.308 38.1233 203.989 19.3596 213.37 35.9563C222.75 52.5531 220.315 80.3444 161.989 89.5363L161.979 89.5261Z" fill="#FFE48C"/>
<path d="M173.774 271.269C187.973 294.87 273.966 246.569 249.277 226.542C231.617 212.215 155.569 240.992 173.774 271.269Z" fill="#FFE48C"/>
<path d="M62.3218 236.874C76.8081 266.041 157.705 265.856 193.469 202.746C203.897 184.341 211.531 232.427 246.37 216.076C281.199 199.726 315.123 162.846 302.137 127.228C285.503 81.618 210.842 80.0569 151.171 103.052C88.4177 127.228 43.1917 198.36 62.3218 236.884V236.874Z" fill="#FFE48C"/>
<path d="M287.682 35.3713C284.528 36.3778 283.942 37.1995 283.233 41.6567C282.524 37.1995 281.939 36.3778 278.784 35.3713C281.939 34.3649 282.524 33.5432 283.233 29.0859C283.942 33.5432 284.528 34.3649 287.682 35.3713Z" fill="#0544A8"/>
<path d="M249.401 154.516C247.346 155.173 246.966 155.707 246.503 158.614C246.041 155.707 245.661 155.173 243.606 154.516C245.661 153.858 246.041 153.324 246.503 150.418C246.966 153.324 247.346 153.858 249.401 154.516Z" fill="#0544A8"/>
<path d="M104.188 157.362C102.134 158.019 101.753 158.553 101.291 161.459C100.829 158.553 100.449 158.019 98.3938 157.362C100.449 156.704 100.829 156.17 101.291 153.264C101.753 156.17 102.134 156.704 104.188 157.362Z" fill="#0544A8"/>
<path d="M275.733 55.1929C267 57.3804 265.89 59.1572 264.534 73.2685C263.178 59.1572 262.079 57.3804 253.336 55.1929C262.069 53.0053 263.178 51.2285 264.534 37.1172C265.89 51.2285 266.99 53.0053 275.733 55.1929Z" fill="#0544A8"/>
<path d="M191.805 56.2813C191.805 56.9591 191.24 57.5137 190.541 57.5137C189.842 57.5137 189.277 56.9591 189.277 56.2813C189.277 55.6034 189.842 55.0488 190.541 55.0488C191.24 55.0488 191.805 55.6034 191.805 56.2813Z" fill="#0544A8"/>
<path d="M225.01 246.127C225.01 246.805 224.445 247.359 223.747 247.359C223.048 247.359 222.483 246.805 222.483 246.127C222.483 245.449 223.048 244.895 223.747 244.895C224.445 244.895 225.01 245.449 225.01 246.127Z" fill="#0544A8"/>
<path d="M77.5068 78.5473C77.5068 78.876 77.2396 79.1327 76.9006 79.1327C76.5616 79.1327 76.2944 78.8657 76.2944 78.5473C76.2944 78.2289 76.5616 77.9619 76.9006 77.9619C77.2396 77.9619 77.5068 78.2289 77.5068 78.5473Z" fill="#0544A8"/>
<path d="M201.606 50.9721C201.606 51.3008 201.339 51.5575 201 51.5575C200.661 51.5575 200.394 51.2905 200.394 50.9721C200.394 50.6537 200.661 50.3867 201 50.3867C201.339 50.3867 201.606 50.6537 201.606 50.9721Z" fill="#0544A8"/>
<path d="M248.168 256.244C248.168 256.572 247.901 256.829 247.562 256.829C247.223 256.829 246.956 256.562 246.956 256.244C246.956 255.925 247.223 255.658 247.562 255.658C247.901 255.658 248.168 255.925 248.168 256.244Z" fill="#0544A8"/>
<path d="M104.795 191.294C104.795 191.623 104.527 191.88 104.188 191.88C103.849 191.88 103.582 191.613 103.582 191.294C103.582 190.976 103.849 190.709 104.188 190.709C104.527 190.709 104.795 190.976 104.795 191.294Z" fill="#0544A8"/>
<path d="M112.377 155.05C112.377 155.379 112.11 155.636 111.77 155.636C111.431 155.636 111.164 155.369 111.164 155.05C111.164 154.732 111.431 154.465 111.77 154.465C112.11 154.465 112.377 154.732 112.377 155.05Z" fill="#0544A8"/>
<path d="M153.781 229.028C153.781 229.356 153.514 229.613 153.175 229.613C152.836 229.613 152.569 229.346 152.569 229.028C152.569 228.709 152.836 228.442 153.175 228.442C153.514 228.442 153.781 228.709 153.781 229.028Z" fill="#0544A8"/>
<path d="M153.174 51.5678C153.174 51.8965 152.907 52.1532 152.568 52.1532C152.229 52.1532 151.962 51.8862 151.962 51.5678C151.962 51.2494 152.229 50.9824 152.568 50.9824C152.907 50.9824 153.174 51.2494 153.174 51.5678Z" fill="#0544A8"/>
<path d="M82.921 54.803C84.0444 54.803 84.9552 53.3868 84.9552 51.6398C84.9552 49.8928 84.0444 48.4766 82.921 48.4766C81.7975 48.4766 80.8867 49.8928 80.8867 51.6398C80.8867 53.3868 81.7975 54.803 82.921 54.803Z" fill="#FFE48C"/>
<path d="M190.603 274.874C191.726 274.874 192.637 273.458 192.637 271.711C192.637 269.964 191.726 268.548 190.603 268.548C189.479 268.548 188.568 269.964 188.568 271.711C188.568 273.458 189.479 274.874 190.603 274.874Z" fill="#FFE48C"/>
<path d="M271.89 119.763C272.651 119.763 273.267 119.165 273.267 118.428C273.267 117.691 272.651 117.093 271.89 117.093C271.13 117.093 270.514 117.691 270.514 118.428C270.514 119.165 271.13 119.763 271.89 119.763Z" fill="#FFE48C"/>
<path d="M87.8215 266.36C88.5819 266.36 89.1982 265.762 89.1982 265.025C89.1982 264.287 88.5819 263.689 87.8215 263.689C87.0612 263.689 86.4448 264.287 86.4448 265.025C86.4448 265.762 87.0612 266.36 87.8215 266.36Z" fill="#FFE48C"/>
<path d="M169.058 35.3409C169.421 35.3409 169.715 35.0512 169.715 34.6939C169.715 34.3366 169.421 34.0469 169.058 34.0469C168.695 34.0469 168.4 34.3366 168.4 34.6939C168.4 35.0512 168.695 35.3409 169.058 35.3409Z" fill="#FFE48C"/>
<path d="M294.277 72.1295C294.277 72.4889 293.979 72.7765 293.62 72.7765C293.26 72.7765 292.962 72.4889 292.962 72.1295C292.962 71.77 293.26 71.4824 293.62 71.4824C293.979 71.4824 294.277 71.77 294.277 72.1295Z" fill="#FFE48C"/>
<path d="M95.517 271.711C95.517 272.071 95.219 272.359 94.8594 272.359C94.4998 272.359 94.2019 272.071 94.2019 271.711C94.2019 271.352 94.4998 271.064 94.8594 271.064C95.219 271.064 95.517 271.352 95.517 271.711Z" fill="#FFE48C"/>
<path d="M49.7977 213.941C49.7977 214.3 49.4998 214.588 49.1402 214.588C48.7806 214.588 48.4827 214.3 48.4827 213.941C48.4827 213.582 48.7806 213.294 49.1402 213.294C49.4998 213.294 49.7977 213.582 49.7977 213.941Z" fill="#FFE48C"/>
<path d="M258.924 170.641C258.924 171.001 258.626 171.288 258.267 171.288C257.907 171.288 257.609 171.001 257.609 170.641C257.609 170.282 257.907 169.994 258.267 169.994C258.626 169.994 258.924 170.282 258.924 170.641Z" fill="#FFE48C"/>
<path d="M242.168 123.212C241.572 115.119 249.041 111.483 250.335 114.8C251.712 118.323 244.613 120.583 242.168 123.212Z" fill="#0544A8"/>
<g style="mix-blend-mode:screen" opacity="0.3">
<path d="M245.558 116.69C246.01 117.84 249.103 115.088 248.25 114.626C247.408 114.163 245.137 115.653 245.558 116.69Z" fill="#0544A8"/>
</g>
<path d="M242.527 119.648C242.527 119.648 242.476 119.648 242.445 119.638C242.291 119.597 242.198 119.432 242.25 119.278C242.938 116.834 244.51 114.78 246.462 113.815C246.606 113.743 246.78 113.804 246.852 113.938C246.924 114.082 246.863 114.256 246.719 114.328C244.911 115.232 243.452 117.142 242.804 119.443C242.774 119.566 242.65 119.648 242.527 119.648Z" fill="#0544A8"/>
<path d="M250.5 115.725C249.801 118.056 244.808 120.428 242.27 120.531C242.137 121.363 242.096 122.257 242.168 123.212C244.387 120.819 250.469 118.734 250.5 115.725Z" fill="#0544A8"/>
<path d="M84.9554 188.418C76.7362 185.132 69.8116 191.263 72.4931 193.605C75.339 196.09 81.6472 189.825 84.9554 188.418Z" fill="#0544A8"/>
<path d="M71.9382 192.598C71.9999 192.968 72.1745 193.317 72.5033 193.595C75.3492 196.08 81.6574 189.815 84.9656 188.408C81.6574 188.48 74.4862 194.57 71.9382 192.588V192.598Z" fill="#0544A8"/>
<g style="mix-blend-mode:screen" opacity="0.3">
<path d="M73.2842 191.407C73.8288 192.157 77.0445 190.37 76.0068 189.856C74.9692 189.343 72.7192 190.626 73.2842 191.407Z" fill="#0544A8"/>
</g>
<path d="M75.3492 188.819C75.2465 188.819 75.1335 188.757 75.0924 188.654C75.0205 188.511 75.0924 188.336 75.2259 188.275C77.1677 187.35 79.4999 187.001 81.7807 187.289C81.9348 187.309 82.0479 187.453 82.0273 187.607C82.0068 187.761 81.8629 187.874 81.7088 187.853C79.541 187.576 77.3218 187.905 75.4828 188.788C75.4417 188.809 75.4006 188.819 75.3595 188.819H75.3492Z" fill="#0544A8"/>
<path d="M113.239 227.547C111.781 227.989 113.558 229.663 112.972 230.218C111.647 231.471 110.846 233.884 113.671 234.316C116.599 234.757 118.017 226.089 113.239 227.547Z" fill="#0544A8"/>
<path d="M113.671 233.689C112.448 233.504 111.904 232.95 111.791 232.272C111.647 233.206 112.089 234.069 113.671 234.305C115.305 234.552 116.466 231.964 116.342 229.879C116.229 231.82 115.14 233.915 113.671 233.689Z" fill="#0544A8"/>
<g style="mix-blend-mode:screen" opacity="0.3">
<path d="M113.794 228.051C113.209 228.431 115.335 229.243 115.407 228.975C115.489 228.708 114.842 227.363 113.794 228.051Z" fill="#0544A8"/>
</g>
<path d="M103.387 221.591C159.555 227.148 217.048 227.836 234.072 225.823C234.072 225.823 244.777 225.361 247.305 223.081C249.041 221.519 242.774 163.801 240.853 144.718C238.921 125.646 235.685 84.627 236.271 77.0989C236.856 69.5708 239.938 54.9973 236.764 53.9086C231.596 52.1319 191.219 50.4989 178.736 51.454C166.253 52.3989 121.469 53.3643 121.469 53.3643C121.469 53.3643 112.551 124.424 110.466 139.932C108.637 153.51 102.411 205.724 100.901 218.49C100.716 220.041 101.846 221.448 103.397 221.602L103.387 221.591Z" fill="#0544A8"/>
<path d="M170.671 188.522C191.887 188.522 209.086 171.329 209.086 150.121C209.086 128.913 191.887 111.721 170.671 111.721C149.456 111.721 132.257 128.913 132.257 150.121C132.257 171.329 149.456 188.522 170.671 188.522Z" fill="#FFC200"/>
<path d="M247.315 223.081C249.051 221.52 242.784 163.801 240.863 144.719C238.931 125.647 235.695 84.6272 236.281 77.0991C236.65 72.3748 237.996 64.8775 238.171 59.6807C237.462 52.9126 232.027 54.6586 232.027 60.7283C232.027 63.8299 233.353 67.1369 232.51 71.204C231.873 74.2234 231.472 77.5818 231.472 77.5818C231.472 77.5818 197.466 75.4148 176.301 75.3429C156.924 75.271 135.483 76.0104 118.726 75.1888C118.603 76.185 118.469 77.2018 118.346 78.2391C139.027 79.8515 175.037 76.8218 186.431 77.5818C199.007 78.424 233.137 79.9748 233.137 79.9748C233.137 79.9748 232.798 126.643 234.082 144.955C236.085 173.373 234.103 196.265 234.082 225.802C234.082 225.802 244.787 225.34 247.315 223.06V223.081Z" fill="#042A60"/>
<path d="M234.092 222.845C233.897 222.845 233.743 222.691 233.743 222.496C233.794 213.704 234 205.457 234.205 197.488C234.647 180.131 235.058 163.729 233.743 145.006C232.469 126.89 232.788 80.4681 232.798 79.9957C232.798 79.8005 232.952 79.6465 233.147 79.6465C233.342 79.6465 233.496 79.8005 233.496 79.9957C233.496 80.4578 233.168 126.869 234.442 144.955C235.757 163.719 235.346 180.131 234.914 197.508C234.709 205.478 234.503 213.725 234.452 222.506C234.452 222.701 234.298 222.855 234.103 222.855L234.092 222.845Z" fill="#0A62E0"/>
<path d="M231.462 77.9418C231.462 77.9418 231.452 77.9418 231.442 77.9418C231.103 77.9213 197.198 75.7748 176.291 75.7029C169.633 75.6824 162.627 75.7543 155.856 75.8159C144.555 75.9289 132.873 76.0521 122.805 75.7132C122.609 75.7132 122.466 75.5489 122.466 75.3537C122.466 75.1586 122.651 75.0148 122.825 75.0148C132.883 75.3537 144.555 75.2305 155.846 75.1175C162.616 75.0456 169.623 74.9737 176.291 75.0045C196.109 75.0764 227.589 77.0072 231.154 77.2332C231.267 76.3089 231.637 73.5975 232.151 71.1532C232.685 68.6164 232.346 66.4083 232.027 64.2721C231.842 63.0499 231.668 61.8997 231.668 60.7597C231.668 57.3808 233.291 55.3267 234.894 55.0494C236.24 54.8132 237.411 55.7272 238.037 57.4937C238.099 57.6786 238.007 57.8737 237.822 57.9354C237.637 57.997 237.442 57.9045 237.38 57.7197C236.877 56.3024 235.983 55.5526 235.017 55.7272C233.733 55.9532 232.366 57.7916 232.366 60.7494C232.366 61.8381 232.541 62.9678 232.716 64.1591C233.034 66.2543 233.394 68.637 232.839 71.2867C232.212 74.2548 231.811 77.6029 231.811 77.6337C231.791 77.8083 231.637 77.9418 231.462 77.9418Z" fill="#0A62E0"/>
<g style="mix-blend-mode:color-burn" opacity="0.25">
<path d="M115.736 98.8296C117.462 98.8296 124.469 98.9015 124.048 100.627C123.565 102.589 124.181 107.744 127.541 109.182C127.541 109.182 127.849 114.461 133.695 114.42C133.695 114.42 141.791 62.3804 144.503 62.1956C147.216 62.0107 154.561 67.7518 156.195 69.5183C157.829 71.2848 159.277 77.5702 161.763 79.9221C164.25 82.274 170.866 81.8221 173.353 79.1415L153.637 52.5312C137.907 53.0242 121.469 53.3734 121.469 53.3734C121.469 53.3734 118.603 76.2248 115.736 98.8399V98.8296Z" fill="#131111"/>
</g>
<g style="mix-blend-mode:color-burn" opacity="0.25">
<path d="M240.729 216.722C238.274 217.39 236.733 206.965 234.421 202.58C234.421 202.58 214.859 209.913 208.972 207.263L212.085 199.14C212.085 199.14 198.421 200.752 193.9 203.237C189.38 205.723 176.209 220.245 176.209 220.245C176.209 220.245 172.366 215.408 170.805 209.821C169.253 204.234 173.712 191.252 173.712 191.252C173.712 191.252 160.633 201.933 159.873 204.1C159.113 206.277 159.74 216.753 159.74 216.753C159.74 216.753 116.383 222.792 101.774 210.94C101.394 214.093 101.085 216.681 100.88 218.478C100.695 220.029 101.825 221.436 103.377 221.59C159.544 227.147 217.037 227.835 234.061 225.822C234.061 225.822 244.767 225.36 247.294 223.08C248.024 222.422 247.346 211.875 246.164 198.451C245.62 206.257 243.544 215.962 240.709 216.722H240.729Z" fill="#131111"/>
</g>
<path d="M103.027 200.99C103.027 200.99 102.997 200.99 102.986 200.99C102.791 200.97 102.658 200.795 102.678 200.6C105.36 178.211 108.822 149.505 110.116 139.882C110.661 135.794 111.729 127.527 113.291 115.305C113.312 115.11 113.497 114.977 113.682 115.007C113.877 115.028 114.01 115.202 113.979 115.398C112.418 127.63 111.349 135.897 110.805 139.985C109.51 149.608 106.048 178.313 103.366 200.692C103.346 200.867 103.192 201 103.017 201L103.027 200.99Z" fill="white"/>
<path d="M236.764 54.2582C236.764 54.2582 236.692 54.2582 236.651 54.2376C231.637 52.5122 191.599 50.8176 178.757 51.8036C176.353 51.9884 172.551 52.1836 167.456 52.389C167.25 52.389 167.096 52.2452 167.096 52.0501C167.096 51.8549 167.24 51.6906 167.435 51.6906C172.521 51.4852 176.312 51.2901 178.706 51.1052C191.589 50.1295 231.822 51.8344 236.877 53.5803C237.062 53.642 237.154 53.8371 237.093 54.022C237.041 54.1657 236.908 54.2582 236.764 54.2582Z" fill="white"/>
<mask id="mask0_1078_1908" style="mask-type:luminance" maskUnits="userSpaceOnUse" x="0" y="0" width="375" height="304">
<path d="M375 304H0V0H375V304Z" fill="white"/>
</mask>
<g mask="url(#mask0_1078_1908)">
<path d="M376.068 204.09V250.163C338.948 254.271 297.637 251.847 287.044 253.377C249.308 258.81 221.609 252.854 221.609 252.854C216.174 253.839 211.52 251.282 211.52 251.282C205.233 252.001 202.716 248.797 202.716 248.797C198.226 250.83 193.561 249.146 191.835 247.102C190.438 245.449 189.976 243.59 189.976 243.59C189.976 243.59 168.698 226.664 167.435 223.07C166.171 219.485 163.674 206.822 164.537 203.197C165.421 199.571 173.722 191.242 173.722 191.242C177.544 191.899 180.195 195.648 179.496 198.216C178.798 200.783 175.089 204.172 174.77 206.689C174.575 208.229 177.092 216.148 177.709 217.329C178.561 218.962 183.39 222.721 183.39 222.721C182.322 219.958 183.308 218.469 183.308 218.469C183.308 218.469 194.589 205.395 198.072 203.546C202.007 201.451 212.096 199.119 212.096 199.119C213.452 200.783 214.52 204.861 211.551 206.607C208.582 208.352 205.418 208.938 203.363 210.232C200.846 211.824 196.87 218.962 196.952 219.568C197.034 220.184 197.517 221.139 197.517 221.139C197.517 221.139 205.952 214.515 210.154 212.912C214.89 211.105 227.702 209.842 227.702 209.842C232.829 212.851 227.209 217.729 227.209 217.729L228.75 217.37C230.784 218.284 232.048 222.104 226.623 225.339L234.092 225.812C234.092 225.812 244.798 225.339 247.325 223.07C247.767 222.669 247.685 218.592 247.294 212.419C261.041 213.108 276.883 218.777 280.746 218.376C284.609 217.965 376.068 204.09 376.068 204.09Z" fill="#5B453B"/>
<g style="mix-blend-mode:color-burn" opacity="0.25">
<path d="M189.976 243.6L183.38 222.752C183.38 222.752 182.527 222.084 181.469 221.19C183.206 227.969 184.459 233.915 184.274 238.968C187.541 241.669 189.976 243.6 189.976 243.61V243.6Z" fill="#131111"/>
<path d="M376.069 238.004C335.846 245.86 290.456 249.958 290.301 246.569C289.315 225.125 282.627 223.184 282.627 223.184C288.226 233.238 285.329 247.812 285.329 247.812C253.48 256.274 221.497 247.73 202.88 246.826C200.168 246.692 194.435 248.592 189.976 243.591C189.976 243.591 190.438 245.46 191.836 247.103C193.562 249.137 198.226 250.821 202.716 248.798C202.716 248.798 205.233 252.002 211.521 251.283C211.521 251.283 216.175 253.84 221.61 252.854C221.61 252.854 249.308 258.811 287.045 253.378C297.637 251.848 338.959 254.272 376.069 250.164V238.004Z" fill="#131111"/>
<path d="M203.353 210.242C205.408 208.948 208.572 208.363 211.541 206.617C213.041 205.734 213.514 204.255 213.432 202.786C213.175 204.645 203.754 207.182 202.223 208.671C200.692 210.15 194.712 216.959 194.671 219.106C194.63 221.242 195.986 222.741 195.986 222.741L197.507 221.149C197.507 221.149 197.024 220.194 196.942 219.578C196.86 218.972 200.836 211.834 203.353 210.242Z" fill="#131111"/>
<path d="M240.945 225.134C237.514 225.679 234.082 225.822 234.082 225.822L226.613 225.35C223.901 227.435 219.442 229.376 219.442 229.376C222.082 231.358 223.5 236.986 223.5 236.986C226.428 234.675 240.873 231.389 240.945 225.124V225.134Z" fill="#131111"/>
<path d="M209.373 224.302C210.38 223.275 227.209 217.739 227.209 217.739C227.209 217.739 229.736 215.541 229.849 213.189C227.569 216.496 224.425 217.01 218.63 218.263C213.329 219.413 209.23 221.632 208.582 222.494C208.069 223.172 208.685 225.781 208.993 226.911C208.839 226.212 208.695 225 209.384 224.302H209.373Z" fill="#131111"/>
<path d="M208.983 226.911C209.055 227.23 209.127 227.445 209.127 227.445C209.127 227.445 209.065 227.24 208.983 226.911Z" fill="#131111"/>
</g>
<path d="M222.349 219.188C222.349 219.188 223.109 221.242 224.948 222.351C225.185 222.495 228.585 221.088 228.853 220.04C229.12 218.993 228.606 217.524 226.294 218.007C223.983 218.489 222.349 219.188 222.349 219.188Z" fill="#957C67"/>
<path d="M220.644 211.403C220.222 211.701 221.856 214.607 223.027 214.833C224.198 215.059 227.065 214.617 228.37 213.672C229.675 212.738 229.048 210.355 227.209 210.314C225.37 210.273 221.168 211.033 220.644 211.403Z" fill="#957C67"/>
<path d="M204.555 201.153C204.719 202.365 205.469 203.895 206.651 204.091C207.832 204.286 212.414 202.488 212.969 201.698C213.524 200.917 213.257 199.151 212.096 199.13C210.935 199.109 204.555 201.143 204.555 201.143V201.153Z" fill="#957C67"/>
<path d="M168.308 197.24C169.746 198.103 171.842 198.884 172.952 197.908C174.061 196.922 176.034 194.755 176.188 193.461C176.383 191.941 174.904 190.801 173.712 191.263C172.52 191.725 168.298 197.251 168.298 197.251L168.308 197.24Z" fill="#957C67"/>
<path d="M223.51 237.348C223.356 237.348 223.212 237.245 223.171 237.081C223.161 237.019 221.671 231.073 219.277 229.686C219.164 229.624 219.103 229.501 219.103 229.368C219.103 229.234 219.185 229.121 219.308 229.07C219.359 229.049 224.014 226.872 226.418 225.075C226.572 224.962 226.787 224.993 226.911 225.147C227.024 225.301 226.993 225.516 226.839 225.64C224.846 227.129 221.466 228.813 220.15 229.45C222.483 231.401 223.798 236.68 223.859 236.916C223.911 237.101 223.787 237.296 223.603 237.337C223.572 237.337 223.551 237.337 223.52 237.337L223.51 237.348Z" fill="#131111"/>
<path d="M224.949 236.731C224.846 236.731 224.743 236.68 224.671 236.598C224.558 236.444 224.589 236.228 224.743 236.105C229.88 232.213 246.863 230.888 247.582 230.826C247.788 230.806 247.942 230.96 247.962 231.144C247.973 231.34 247.829 231.504 247.644 231.524C247.469 231.535 230.147 232.89 225.164 236.66C225.103 236.711 225.031 236.731 224.949 236.731Z" fill="#131111"/>
<path d="M211.489 237.501C211.489 237.501 211.469 237.501 211.459 237.501C211.263 237.481 211.119 237.316 211.14 237.121C211.222 236.094 210.637 234.174 210.02 232.15C209.024 228.905 208.006 225.557 209.096 224.099C210.431 222.312 225.411 217.906 227.116 217.413C227.301 217.361 227.496 217.464 227.548 217.649C227.599 217.834 227.496 218.029 227.311 218.08C220.715 220.001 210.565 223.297 209.661 224.509C208.777 225.69 209.846 229.152 210.698 231.945C211.335 234.04 211.941 236.022 211.849 237.183C211.839 237.368 211.685 237.501 211.5 237.501H211.489Z" fill="#131111"/>
<path d="M200.167 236.689C200.024 236.689 199.89 236.597 199.839 236.453C198.164 231.719 195.359 223.687 195.421 223.143C195.493 222.527 196.746 221.356 197.281 220.883C197.424 220.75 197.64 220.77 197.774 220.914C197.897 221.058 197.887 221.284 197.743 221.407C196.9 222.157 196.15 222.989 196.109 223.225C196.161 223.8 198.822 231.503 200.486 236.217C200.548 236.402 200.455 236.597 200.27 236.659C200.229 236.669 200.188 236.679 200.157 236.679L200.167 236.689Z" fill="#131111"/>
<path d="M189.781 243.027C189.637 243.027 189.493 242.934 189.452 242.791C189.411 242.647 184.859 228.679 183.051 222.846C182.989 222.661 183.092 222.466 183.277 222.414C183.462 222.353 183.657 222.466 183.709 222.64C185.517 228.464 190.058 242.431 190.109 242.575C190.171 242.76 190.068 242.955 189.883 243.017C189.842 243.027 189.811 243.037 189.77 243.037L189.781 243.027Z" fill="#131111"/>
<path d="M285.329 248.172C285.329 248.172 285.298 248.172 285.277 248.172C285.082 248.141 284.948 247.967 284.979 247.782C285.01 247.566 287.989 225.957 279.873 220.946C279.709 220.843 279.657 220.627 279.76 220.463C279.863 220.299 280.079 220.247 280.243 220.35C288.75 225.598 285.811 246.97 285.678 247.874C285.657 248.049 285.503 248.172 285.329 248.172Z" fill="#131111"/>
<path d="M240.123 225.885C239.517 225.885 238.89 225.865 238.233 225.834C238.037 225.834 237.894 225.659 237.904 225.464C237.904 225.269 238.058 225.115 238.274 225.135C249.544 225.711 253.777 220.781 253.818 220.729C253.942 220.586 254.157 220.565 254.311 220.688C254.455 220.812 254.476 221.027 254.352 221.181C254.188 221.387 250.325 225.885 240.123 225.885Z" fill="#131111"/>
<path d="M280.294 218.747C278.476 218.747 275.106 217.935 270.606 216.857C264.123 215.296 255.246 213.17 247.264 212.769C247.068 212.769 246.925 212.595 246.935 212.4C246.935 212.204 247.089 212.04 247.305 212.071C255.349 212.471 264.267 214.618 270.77 216.179C275.455 217.309 279.154 218.192 280.705 218.028C284.517 217.617 375.103 203.886 376.017 203.742C376.202 203.711 376.387 203.844 376.418 204.029C376.449 204.224 376.315 204.399 376.13 204.43C375.216 204.574 284.609 218.305 280.788 218.716C280.644 218.736 280.479 218.736 280.305 218.736L280.294 218.747Z" fill="white"/>
<path d="M168.493 62.2691C166.911 59.4345 150.216 47.4901 147.144 47.295C129.586 46.1653 114.298 50.9718 114.298 50.9718C114.298 50.9718 108.37 48.9588 102.205 50.982C98.6404 52.1528 80.6095 63.1523 77.291 66.2026C73.9725 69.2528 52.5513 100.803 48.7602 102.241C37.9109 106.339 -5.21924 120.43 -5.21924 120.43V173.866C55.4588 142.562 75.9041 125.544 75.9041 125.544C88.4691 120.697 92.4657 114.432 97.3253 113.282C110.24 110.211 114.524 108.249 114.524 108.249L117.318 86.8869C117.318 86.8869 126.134 89.6496 126.668 90.3377C126.976 90.7485 128.681 94.5485 130.089 97.6912C129.123 99.2112 127.243 102.179 126.791 103.073C125.507 105.64 127.685 108.013 130.315 107.571C129.925 108.804 129.657 109.933 129.77 110.58C130.377 114.144 133.685 114.422 133.685 114.422C133.685 114.422 139.88 103.36 139.747 99.8891C139.685 98.2766 139.418 97.6604 139.418 97.6604C139.418 97.6604 144.853 90.4815 144.349 88.1707C143.866 85.942 143.27 85.0485 143.27 85.0485C143.27 85.0485 145.818 67.6507 144.503 62.1869C143.979 60.0096 141.668 58.7464 141.668 58.7464C141.668 58.7464 144.442 58.5718 145.264 58.6642C148.017 58.9928 156.75 64.5799 158.558 66.942C160.356 69.2939 163.387 77.0685 165.175 78.3215C169.346 81.2588 173.353 79.1328 173.353 79.1328C173.353 79.1328 169.798 64.5799 168.503 62.2691H168.493Z" fill="#5B453B"/>
<g style="mix-blend-mode:color-burn" opacity="0.25">
<path d="M144.534 56.0972C141.123 54.9059 125.856 51.1572 119.558 49.627C116.25 50.3664 114.288 50.9826 114.288 50.9826C135.781 54.3718 141.647 58.7572 141.647 58.7572C141.647 58.7572 144.421 58.5826 145.243 58.6751C147.996 59.0037 156.729 64.5907 158.538 66.9529C160.336 69.3048 163.366 77.0794 165.154 78.3324C166.449 79.2464 167.723 79.6675 168.873 79.8113C166.068 76.9459 162.524 67.1994 160.644 65.3199C158.548 63.2248 148.86 57.5967 144.534 56.087V56.0972Z" fill="#131111"/>
<path d="M109.325 88.2329C109.325 88.2329 109.068 91.0059 104.024 92.4848C104.486 95.5453 102.534 99.4788 101.63 103.073C100.644 107.038 96.4931 109.749 92.3013 111.197C88.1095 112.635 74.7945 123.593 69.1643 125.216C69.1643 125.216 59.3424 126.644 50.3732 112.039C50.8972 120.05 55.654 124.045 55.2225 125.216C53.2602 130.526 27.8013 142.439 -5.21924 156.14V173.866C55.4588 142.563 75.9041 125.545 75.9041 125.545C88.4691 120.697 92.4657 114.432 97.3253 113.282C110.24 110.211 114.524 108.25 114.524 108.25L117.318 86.8875L112.767 85.4805C112.767 85.4805 111.134 87.4524 109.325 88.2329Z" fill="#131111"/>
<path d="M130.089 97.6816C129.123 99.2016 127.243 102.17 126.791 103.063C125.507 105.631 127.685 108.003 130.315 107.562C133.51 102.437 131.723 100.927 130.089 97.6816Z" fill="#131111"/>
</g>
<path d="M69.1129 125.522C62.6814 125.522 56.3937 122.729 49.3458 111.041C49.243 110.877 49.2944 110.661 49.4691 110.558C49.6335 110.456 49.8492 110.507 49.952 110.682C59.7122 126.878 68.2602 125.389 75.1335 124.197C75.3287 124.167 75.5033 124.29 75.5341 124.485C75.565 124.67 75.4417 124.855 75.2465 124.885C73.1711 125.245 71.1369 125.522 69.1129 125.522Z" fill="#131111"/>
<path d="M139.418 98.008C139.284 98.008 139.161 97.9361 139.099 97.8128C139.038 97.6793 132.596 84.369 131.055 82.428C128.887 79.6961 111.873 73.7804 111.699 73.729C111.514 73.6674 111.421 73.462 111.483 73.2874C111.545 73.1026 111.74 73.0101 111.925 73.0717C112.634 73.3182 129.298 79.1107 131.599 81.9966C133.192 83.9993 139.459 96.9604 139.726 97.515C139.808 97.6896 139.736 97.895 139.562 97.9772C139.51 97.9977 139.459 98.008 139.408 98.008H139.418Z" fill="#131111"/>
<path d="M143.26 85.1705C143.126 85.1705 143.003 85.0986 142.942 84.9651C140.486 79.5013 135.493 68.8202 134.168 67.4954C132.811 66.1294 119.476 62.5862 114.462 61.3435C114.277 61.2921 114.164 61.1073 114.205 60.9224C114.257 60.7375 114.441 60.6246 114.626 60.6656C116.496 61.1278 132.914 65.2565 134.661 67.0024C136.407 68.7586 143.291 84.0305 143.578 84.6878C143.661 84.8624 143.578 85.0678 143.404 85.15C143.352 85.1705 143.311 85.1808 143.26 85.1808V85.1705Z" fill="#131111"/>
<path d="M141.657 59.0943C141.596 59.0943 141.534 59.0738 141.472 59.0429C136.253 55.7975 124.335 52.8808 117.534 51.8538C117.339 51.8229 117.216 51.6483 117.246 51.4532C117.277 51.2581 117.452 51.1246 117.647 51.1656C124.51 52.2132 136.551 55.1608 141.853 58.4575C142.017 58.5602 142.068 58.7759 141.966 58.9402C141.904 59.0429 141.781 59.1046 141.668 59.1046L141.657 59.0943Z" fill="#131111"/>
<path d="M117.318 87.2343C117.318 87.2343 117.246 87.2343 117.216 87.2137L109.479 84.8105C109.294 84.7489 109.192 84.5537 109.253 84.3689C109.315 84.184 109.51 84.0813 109.695 84.1429L117.431 86.5462C117.616 86.6078 117.719 86.8029 117.657 86.9878C117.606 87.1418 117.472 87.2343 117.329 87.2343H117.318Z" fill="#131111"/>
<path d="M105.082 89.3502C103.49 89.3502 101.784 89.0627 100.13 88.354C99.9555 88.2821 99.8733 88.0767 99.9452 87.8918C100.017 87.7172 100.223 87.6351 100.408 87.707C104.866 89.607 109.952 88.3129 111.216 86.5156C111.329 86.3616 111.545 86.3205 111.699 86.4335C111.853 86.5464 111.894 86.7621 111.781 86.9162C110.866 88.2205 108.205 89.3399 105.082 89.3399V89.3502Z" fill="#131111"/>
<path d="M99.2157 93.3149C98.8766 93.3149 98.6609 93.3149 98.6198 93.3149C98.4246 93.3149 98.2808 93.1506 98.2808 92.9555C98.2808 92.7603 98.4554 92.596 98.6403 92.6165C98.7123 92.6165 105.719 92.8528 107.568 90.2647C107.681 90.1106 107.897 90.0695 108.051 90.1825C108.205 90.2955 108.247 90.5111 108.133 90.6652C106.387 93.0992 101.024 93.3149 99.2054 93.3149H99.2157Z" fill="#131111"/>
<path d="M101.63 103.42C101.63 103.42 101.62 103.42 101.609 103.42C101.414 103.41 101.27 103.246 101.281 103.051C101.332 102.291 101.692 101.366 102.113 100.288C102.811 98.501 103.685 96.2826 103.664 93.6226C103.664 93.4275 103.818 93.2734 104.013 93.2734C104.209 93.2734 104.363 93.4275 104.363 93.6226C104.383 96.4059 103.479 98.7064 102.76 100.545C102.359 101.572 102.01 102.455 101.969 103.102C101.959 103.287 101.805 103.431 101.62 103.431L101.63 103.42Z" fill="#131111"/>
<path d="M130.325 107.868C130.253 107.868 130.192 107.848 130.13 107.806C129.966 107.704 129.925 107.478 130.038 107.324C130.613 106.471 132.051 103.986 131.856 102.764C131.599 101.213 129.801 97.8751 129.781 97.8443C129.688 97.6697 129.75 97.4643 129.925 97.3719C130.099 97.2794 130.305 97.3411 130.397 97.5157C130.469 97.6594 132.267 100.987 132.545 102.651C132.832 104.397 130.716 107.581 130.623 107.714C130.551 107.817 130.449 107.868 130.336 107.868H130.325Z" fill="#131111"/>
<path d="M136.705 108.587C136.705 108.587 135.308 107.611 134.486 108.094C133.664 108.587 132.452 112.223 132.452 112.675C132.452 113.126 133.685 114.41 133.685 114.41L136.705 108.587Z" fill="#957C67"/>
<path d="M171.236 70.9985C171.236 70.9985 167.969 71.245 167.938 72.0564C167.907 72.878 169.51 78.6396 169.808 78.958C170.106 79.2867 172.613 79.8104 173.342 79.1223C173.805 78.6807 171.236 70.9883 171.236 70.9883V70.9985Z" fill="#957C67"/>
<path d="M-5.21923 120.779C-5.36307 120.779 -5.5069 120.686 -5.548 120.542C-5.60964 120.358 -5.5069 120.162 -5.32197 120.101C-4.89046 119.957 37.9212 105.969 48.6472 101.922C50.8767 101.08 60.2773 88.263 67.1404 78.9068C71.7636 72.6008 75.7602 67.1576 77.065 65.9559C80.4246 62.8749 98.4349 51.8651 102.103 50.6635C107.918 48.7532 113.445 50.3451 114.308 50.6122C115.716 50.1911 130.52 45.8878 147.175 46.9559C150.596 47.1716 167.229 59.3008 168.801 62.1046C168.894 62.2689 168.832 62.4846 168.668 62.577C168.503 62.6695 168.288 62.6078 168.195 62.4435C166.592 59.5781 149.866 47.8186 147.134 47.6441C129.832 46.5349 114.565 51.2592 114.411 51.3105C114.339 51.3311 114.267 51.3311 114.195 51.3105C114.134 51.29 108.298 49.3592 102.329 51.3208C98.8253 52.4711 80.7534 63.5116 77.5479 66.4695C76.2945 67.6197 72.3184 73.0424 67.7157 79.3176C58.428 91.9808 51.1541 101.727 48.9041 102.58C38.1472 106.626 -4.67471 120.614 -5.10622 120.758C-5.14731 120.768 -5.17813 120.779 -5.21923 120.779Z" fill="white"/>
</g>
</svg>
