<svg width="48" height="48" viewBox="0 0 48 48" fill="none" xmlns="http://www.w3.org/2000/svg">
<g clip-path="url(#clip0_42_729)">
<path d="M17.3403 25.7688L22.8289 20.2802L9.2317 6.69952C6.21378 9.73402 6.21378 14.6257 9.2317 17.6602L17.3403 25.7522V25.7688ZM30.4732 22.27C33.4414 23.6463 37.6034 22.668 40.6877 19.6003C44.3855 15.9025 45.0985 10.5963 42.263 7.74419C39.4275 4.89209 34.1212 5.6217 30.4069 9.31947C27.3226 12.4037 26.3609 16.5658 27.7372 19.534L8.83373 38.4374L11.5698 41.1734L24.9182 27.8747L38.2501 41.2066L40.9862 38.4706L27.6543 25.1387L30.5064 22.2866L30.4732 22.27Z" fill="#ECF5FE"/>
<path d="M27.5047 22.6518C30.4729 24.0281 34.6349 23.0498 37.7192 19.9821C41.417 16.2844 42.13 10.9781 39.2945 8.12602C36.459 5.27392 31.1527 6.00353 27.4384 9.70131C24.3541 12.7856 23.3924 16.9476 24.7687 19.9158L5.86523 38.8192L8.60126 41.5553L21.9497 28.2565L35.2816 41.5884L38.0177 38.8524L24.6858 25.5205L27.5379 22.6684L27.5047 22.6518Z" stroke="#0544AB" stroke-miterlimit="10"/>
<path d="M14.372 26.1669L19.8607 20.6783L6.26344 7.09766C3.24552 10.1322 3.24552 15.0238 6.26344 18.0583L14.372 26.1503V26.1669Z" fill="#FFC200"/>
</g>
<defs>
<clipPath id="clip0_42_729">
<rect width="48.0001" height="48" fill="white"/>
</clipPath>
</defs>
</svg>
