<svg width="98" height="83" viewBox="0 0 98 83" fill="none" xmlns="http://www.w3.org/2000/svg">
<g clip-path="url(#clip0_3860_2743)">
<path opacity="0.3" d="M97.491 70.8838C97.9458 62.7846 76.6036 54.9568 49.8219 53.3998C23.0403 51.8427 0.960785 57.1462 0.506028 65.2453C0.0512705 73.3445 21.3935 81.1724 48.1751 82.7294C74.9568 84.2864 97.0363 78.9829 97.491 70.8838Z" fill="#999999"/>
<path d="M10.5708 21.5801L3.54817 67.2599C3.54817 67.2599 3.16645 68.7565 4.69615 69.0621C6.22585 69.3677 7.03982 68.488 7.03982 68.488L18.4747 24.2905L10.5736 21.5801H10.5708Z" fill="#BA8B08"/>
<path d="M71.2733 24.1962L82.8345 76.7106C82.8345 76.7106 83.3846 77.873 85.0013 77.5931C86.6181 77.3132 86.4581 76.0309 86.4581 76.0309L79.6825 22.374L71.2705 24.199L71.2733 24.1962Z" fill="#B78F36"/>
<path d="M76.7943 24.5789C78.0545 24.5789 79.2109 25.033 80.1147 25.787L79.6825 22.374L71.2705 24.199L72.0368 27.6806C72.8676 25.8527 74.6808 24.5818 76.7915 24.5818L76.7943 24.5789Z" fill="#AB752A"/>
<path d="M40.5732 25.5737L41.7212 53.7401C41.7212 53.7401 41.6819 55.0254 42.5633 55.1025C43.4446 55.1796 44.5505 55.1425 45.3532 53.8172L48.2975 24.7939L40.5732 25.5708V25.5737Z" fill="#914913"/>
<path d="M13.2856 24.0162C15.1184 24.0162 16.7912 24.7102 18.0711 25.8498L18.4753 24.2876L10.5742 21.5771L10.083 24.7731C11.0485 24.2875 12.1376 24.0162 13.2856 24.0162Z" fill="#AB752A"/>
<path d="M91.9543 8.76562C92.7991 8.76562 93.484 9.4625 93.484 10.3222V17.1367C93.484 22.6832 72.6716 27.1815 46.9978 27.1815C21.3241 27.1815 0.511719 22.6832 0.511719 17.1367C0.511719 16.9768 0.52856 16.8226 0.562241 16.6655C0.565048 16.6512 0.567855 16.6398 0.567855 16.6255V9.5796C0.567855 9.1312 0.924317 8.76848 1.36498 8.76848H91.9515L91.9543 8.76562Z" fill="#9F591C"/>
<path d="M46.9978 19.5069C72.6714 19.5069 93.484 15.1401 93.484 9.75345C93.484 4.36677 72.6714 0 46.9978 0C21.3243 0 0.511719 4.36677 0.511719 9.75345C0.511719 15.1401 21.3243 19.5069 46.9978 19.5069Z" fill="#FFC200"/>
</g>
<defs>
<clipPath id="clip0_3860_2743">
<rect width="97" height="83" fill="white" transform="translate(0.5)"/>
</clipPath>
</defs>
</svg>
