<svg width="24" height="24" viewBox="0 0 24 24" fill="none" xmlns="http://www.w3.org/2000/svg">
<g clip-path="url(#clip0_40_396)">
<path d="M9.12008 4.52985C8.82008 4.52985 8.58008 4.28985 8.58008 3.98985C8.58008 3.75985 8.73008 3.54985 8.95008 3.47985C10.9601 2.83985 13.1301 2.82985 15.1501 3.47985C15.4301 3.55985 15.6001 3.85985 15.5101 4.14985C15.4201 4.43985 15.1301 4.59985 14.8401 4.50985H14.8201C13.0201 3.93985 11.0901 3.93985 9.29008 4.50985C9.24008 4.52985 9.18008 4.53985 9.12008 4.53985" fill="#0544AB"/>
<path d="M18.63 8.17014L19.36 7.44014C19.57 7.23014 19.57 6.89014 19.36 6.68014C19.15 6.47014 18.81 6.47014 18.6 6.68014L17.95 7.33014C14.89 4.04014 9.75002 3.85014 6.46002 6.91014C3.17002 9.97014 2.98002 15.1101 6.04002 18.4001C9.10002 21.6901 14.24 21.8801 17.53 18.8201C20.51 16.0501 20.98 11.4901 18.63 8.17014ZM12 14.7201C11.27 14.7201 10.68 14.1301 10.68 13.3901C10.68 12.9101 10.94 12.4601 11.36 12.2301V8.71014C11.37 8.36014 11.67 8.08014 12.02 8.09014C12.36 8.10014 12.63 8.37014 12.64 8.71014V12.2301C13.28 12.5801 13.51 13.3901 13.16 14.0301C12.93 14.4501 12.48 14.7201 12 14.7201Z" fill="#0544AB"/>
</g>
<defs>
<clipPath id="clip0_40_396">
<rect width="24" height="24" fill="white"/>
</clipPath>
</defs>
</svg>
