<svg width="24" height="24" viewBox="0 0 24 24" fill="none" xmlns="http://www.w3.org/2000/svg">
<path d="M12.139 0.772461C2.15271 0.772461 2.23146 10.0068 2.23146 10.1531C2.23146 14.1731 2.43959 19.3068 3.30209 23.25H20.7002C21.5627 19.305 21.769 14.1731 21.769 10.155C21.7671 10.0068 22.1252 0.772461 12.139 0.772461Z" fill="#543930"/>
<path d="M11.9998 3.6748C7.81102 3.6748 3.93164 6.78918 3.93164 13.3948C3.93164 18.6992 7.21664 21.8379 10.076 22.8504C10.7585 23.0923 11.4166 23.2142 11.9998 23.2142C12.5791 23.2142 13.2335 23.0942 13.9123 22.8561C16.7754 21.8492 20.0679 18.7086 20.0679 13.3967C20.0679 6.78918 16.1885 3.6748 11.9998 3.6748Z" fill="#FFCA28"/>
<path d="M3.55284 22.6703C3.66534 22.9009 3.78722 23.0903 3.91097 23.2497H5.24597C5.11284 21.4197 4.79972 16.9384 4.75472 14.5553C4.74159 13.8447 4.52597 11.2122 6.01097 10.8803C11.456 9.65594 14.5366 6.76844 14.5366 6.76844C15.3372 8.51781 17.8422 10.2241 18.7422 10.8728C19.481 11.4053 19.3778 13.5991 19.3628 14.5328L18.6822 23.2497H20.1147C20.2422 23.0903 20.3678 22.9009 20.4822 22.6703C21.2041 21.2041 21.2266 10.1547 21.2266 10.1547C21.2266 10.1547 21.4741 1.49219 12.0185 1.49219C2.56284 1.49219 2.77284 10.1547 2.77284 10.1547C2.77284 10.1547 2.85347 21.2303 3.55284 22.6703Z" fill="#543930"/>
<path d="M12.139 0.772461C2.15271 0.772461 2.23146 10.0068 2.23146 10.1531C2.23146 12.0431 2.27646 14.1768 2.41521 16.32L4.05209 16.3162C4.03896 15.6056 4.53584 11.2106 6.02084 10.8768C11.4658 9.65246 14.5465 6.76496 14.5465 6.76496C15.3471 8.51434 17.8521 10.2206 18.7521 10.8693C19.4908 11.4018 19.7927 15.3862 19.7777 16.32H21.5796L21.5852 16.2825C21.7202 14.1525 21.7671 12.03 21.7671 10.1531C21.7671 10.0068 22.1252 0.772461 12.139 0.772461Z" fill="url(#paint0_radial_3685_4212)"/>
<path d="M12.9284 16.3429C12.9022 16.3316 12.8778 16.326 12.8516 16.3223H11.1491C11.1228 16.326 11.0966 16.3316 11.0722 16.3429C10.9184 16.4048 10.8322 16.566 10.9053 16.7348C10.9784 16.9054 11.3178 17.3835 12.0003 17.3835C12.6828 17.3835 13.0222 16.9054 13.0953 16.7348C13.1684 16.5641 13.0822 16.4048 12.9284 16.3429Z" fill="#E59600"/>
<path d="M8.0434 15.3342C8.69786 15.3342 9.2284 14.7843 9.2284 14.1061C9.2284 13.4278 8.69786 12.8779 8.0434 12.8779C7.38894 12.8779 6.8584 13.4278 6.8584 14.1061C6.8584 14.7843 7.38894 15.3342 8.0434 15.3342Z" fill="#404040"/>
<path d="M15.9555 15.3342C16.61 15.3342 17.1405 14.7843 17.1405 14.1061C17.1405 13.4278 16.61 12.8779 15.9555 12.8779C15.3011 12.8779 14.7705 13.4278 14.7705 14.1061C14.7705 14.7843 15.3011 15.3342 15.9555 15.3342Z" fill="#404040"/>
<path d="M9.80433 11.9011C9.57933 11.603 9.05621 11.168 8.04371 11.168C7.03121 11.168 6.50808 11.603 6.28308 11.9011C6.18371 12.0342 6.20808 12.1861 6.27746 12.278C6.34121 12.3642 6.53058 12.443 6.74058 12.3717C6.95058 12.3005 7.35933 12.0886 8.04371 12.0848C8.72808 12.0905 9.13871 12.3005 9.34683 12.3717C9.55683 12.443 9.74621 12.3642 9.80996 12.278C9.87933 12.1861 9.90371 12.0342 9.80433 11.9011ZM17.7187 11.9011C17.4937 11.603 16.9706 11.168 15.9581 11.168C14.9456 11.168 14.4225 11.603 14.1975 11.9011C14.0981 12.0342 14.1225 12.1861 14.1918 12.278C14.2556 12.3642 14.445 12.443 14.655 12.3717C14.865 12.3005 15.2737 12.0886 15.9581 12.0848C16.6425 12.0905 17.0531 12.3005 17.2612 12.3717C17.4712 12.443 17.6606 12.3642 17.7243 12.278C17.7918 12.1861 17.8181 12.0342 17.7187 11.9011Z" fill="#6D4C41"/>
<path d="M14.0248 18.3117C13.2579 18.7674 10.7454 18.7674 9.97854 18.3117C9.53791 18.0492 9.08791 18.4505 9.27166 18.8499C9.45166 19.2436 10.8223 20.1549 12.0073 20.1549C13.1923 20.1549 14.546 19.2436 14.726 18.8499C14.9098 18.4486 14.4654 18.0492 14.0248 18.3117Z" fill="#795548"/>
<path d="M20.7277 23.2334C21.5771 19.294 21.7815 14.1959 21.7815 10.1984C21.7815 10.0521 22.1415 0.802734 12.1383 0.802734C2.13522 0.802734 2.21584 10.0521 2.21584 10.1984C2.21584 14.1959 2.42022 19.294 3.26959 23.2334H20.7277Z" fill="url(#paint1_radial_3685_4212)"/>
<defs>
<radialGradient id="paint0_radial_3685_4212" cx="0" cy="0" r="1" gradientUnits="userSpaceOnUse" gradientTransform="translate(12.0816 15.2856) scale(12.1249 14.7135)">
<stop offset="0.794" stop-color="#6D4C41" stop-opacity="0"/>
<stop offset="1" stop-color="#6D4C41"/>
</radialGradient>
<radialGradient id="paint1_radial_3685_4212" cx="0" cy="0" r="1" gradientUnits="userSpaceOnUse" gradientTransform="translate(11.9998 14.3552) scale(11.5937 13.7976)">
<stop offset="0.794" stop-color="#6D4C41" stop-opacity="0"/>
<stop offset="1" stop-color="#6D4C41"/>
</radialGradient>
</defs>
</svg>
