<svg width="16" height="16" viewBox="0 0 16 16" fill="none" xmlns="http://www.w3.org/2000/svg">
<g clip-path="url(#clip0_5118_2182)">
<path d="M11.728 12.528C10.6817 13.5755 9.30448 14.2278 7.83108 14.3738C6.35769 14.5198 4.87925 14.1504 3.64767 13.3286C2.41608 12.5067 1.50754 11.2833 1.07683 9.86675C0.646118 8.45017 0.719892 6.92807 1.28558 5.55979C1.85127 4.1915 2.87387 3.06168 4.17916 2.36281C5.48445 1.66394 6.99168 1.43926 8.44405 1.72706C9.89643 2.01485 11.2041 2.79731 12.1442 3.94113C13.0844 5.08494 13.5989 6.51935 13.6 7.99996H12C12.001 6.8894 11.6169 5.81286 10.9131 4.95379C10.2093 4.09472 9.22937 3.50628 8.14032 3.28873C7.05128 3.07118 5.9205 3.23799 4.94066 3.76074C3.96083 4.28348 3.19257 5.12982 2.76681 6.15552C2.34105 7.18122 2.28412 8.32282 2.60574 9.38579C2.92735 10.4488 3.6076 11.3673 4.53057 11.985C5.45354 12.6026 6.56212 12.8811 7.6674 12.7729C8.77269 12.6648 9.80628 12.1768 10.592 11.392L11.728 12.528ZM9.60005 7.99996H16L12.8 11.2L9.60005 7.99996Z" fill="#1B1F24"/>
</g>
<defs>
<clipPath id="clip0_5118_2182">
<rect width="16" height="16" fill="white"/>
</clipPath>
</defs>
</svg>
