<svg width="28" height="28" viewBox="0 0 28 28" fill="none" xmlns="http://www.w3.org/2000/svg">
<path d="M6.41669 25.6668C5.95002 25.6668 5.54169 25.4918 5.19169 25.1418C4.84169 24.7918 4.66669 24.3835 4.66669 23.9168V8.75016C4.66669 8.2835 4.84169 7.87516 5.19169 7.52516C5.54169 7.17516 5.95002 7.00016 6.41669 7.00016H9.62502V6.7085C9.62502 5.4835 10.0479 4.44808 10.8938 3.60225C11.7396 2.75641 12.775 2.3335 14 2.3335C15.225 2.3335 16.2604 2.75641 17.1063 3.60225C17.9521 4.44808 18.375 5.4835 18.375 6.7085V7.00016H21.5834C22.05 7.00016 22.4584 7.17516 22.8084 7.52516C23.1584 7.87516 23.3334 8.2835 23.3334 8.75016V23.9168C23.3334 24.3835 23.1584 24.7918 22.8084 25.1418C22.4584 25.4918 22.05 25.6668 21.5834 25.6668H6.41669ZM6.41669 23.9168H21.5834V8.75016H18.375V11.3752C18.375 11.6279 18.2924 11.837 18.1271 12.0022C17.9618 12.1675 17.7528 12.2502 17.5 12.2502C17.2472 12.2502 17.0382 12.1675 16.8729 12.0022C16.7077 11.837 16.625 11.6279 16.625 11.3752V8.75016H11.375V11.3752C11.375 11.6279 11.2924 11.837 11.1271 12.0022C10.9618 12.1675 10.7528 12.2502 10.5 12.2502C10.2472 12.2502 10.0382 12.1675 9.87294 12.0022C9.70766 11.837 9.62502 11.6279 9.62502 11.3752V8.75016H6.41669V23.9168ZM11.375 7.00016H16.625V6.7085C16.625 5.96961 16.3722 5.34739 15.8667 4.84183C15.3611 4.33627 14.7389 4.0835 14 4.0835C13.2611 4.0835 12.6389 4.33627 12.1334 4.84183C11.6278 5.34739 11.375 5.96961 11.375 6.7085V7.00016ZM6.41669 23.9168V8.75016V23.9168Z" fill="black"/>
</svg>
