<svg width="48" height="48" viewBox="0 0 48 48" fill="none" xmlns="http://www.w3.org/2000/svg">
<g clip-path="url(#clip0_771_1487)">
<path d="M48 24C48 37.25 37.25 48 24 48C10.75 48 0 37.25 0 24C0 10.75 10.75 0 24 0C37.25 0 48 10.74 48 24Z" fill="#F9C017"/>
<mask id="mask0_771_1487" style="mask-type:luminance" maskUnits="userSpaceOnUse" x="0" y="0" width="48" height="48">
<path d="M48 24C48 37.25 37.25 48 24 48C10.75 48 0 37.25 0 24C0 10.75 10.75 0 24 0C37.25 0 48 10.74 48 24Z" fill="white"/>
</mask>
<g mask="url(#mask0_771_1487)">
<path d="M35.2497 20.4202C33.7097 17.6402 35.6397 16.0002 33.6397 12.1802C31.6497 8.36023 29.3197 7.16023 29.3197 7.16023C29.3197 7.16023 29.3197 7.17023 29.3197 7.18023C28.0397 6.15023 26.4297 5.49023 24.3997 5.49023C22.1597 5.49023 19.9197 6.48023 18.9197 7.16023C18.9197 7.16023 16.5997 8.36023 14.5997 12.1802C12.6097 15.9902 14.5397 17.6402 12.9897 20.4202C11.4497 23.2002 11.9597 29.0802 13.3297 31.5602C14.6297 33.9202 14.0297 38.8402 20.0897 35.9802C22.8797 35.3702 25.7397 35.4302 27.7597 35.8002C34.2097 39.0302 33.5597 33.9702 34.8897 31.5602C36.2597 29.0802 36.7797 23.2002 35.2297 20.4202H35.2497Z" fill="#07061C"/>
<path d="M40.7298 70.79V39.15C40.7298 32.53 33.3698 29.44 26.8798 28.1L23.5598 28.04L20.9398 28.1C14.1898 29.49 7.52979 32.01 7.52979 38.54V70.78H40.7298V70.79Z" fill="#0544A8"/>
<path d="M26.9597 22.7102H20.9297V28.8702C20.9297 29.7502 21.2997 30.7402 24.1597 30.7402C25.9697 30.7402 26.7697 29.9002 26.9497 29.1702V22.7002L26.9597 22.7102Z" fill="#8C4B33"/>
<path d="M33.4598 17.1109C33.4598 17.7909 32.9098 18.3409 32.2298 18.3409C31.5498 18.3409 30.9998 17.7909 30.9998 17.1109C30.9998 16.4309 31.5498 15.8809 32.2298 15.8809C32.9098 15.8809 33.4598 16.4309 33.4598 17.1109Z" fill="#8C4B33"/>
<path d="M17.2498 17.1109C17.2498 17.7909 16.6998 18.3409 16.0198 18.3409C15.3398 18.3409 14.7898 17.7909 14.7898 17.1109C14.7898 16.4309 15.3398 15.8809 16.0198 15.8809C16.6998 15.8809 17.2498 16.4309 17.2498 17.1109Z" fill="#8C4B33"/>
<path d="M32.0697 18.1407C32.0697 22.7107 28.1497 25.8407 24.1297 25.8407C20.1097 25.8407 16.1897 22.6007 16.1897 17.9607V13.8207C16.1897 9.46066 19.7497 5.93066 24.1297 5.93066C28.5197 5.93066 32.0697 9.46066 32.0697 13.8207V18.1407Z" fill="#8C4B33"/>
<path d="M28.4597 16.0703C28.2997 16.0703 28.1597 16.1303 28.0597 16.2503C27.9697 16.3503 27.9297 16.4803 27.9297 16.6103C27.9297 16.8803 28.1097 17.1503 28.4597 17.1503C28.6197 17.1503 28.7597 17.0903 28.8597 16.9803C28.9397 16.8803 28.9897 16.7503 28.9897 16.6203C28.9897 16.3503 28.8097 16.0803 28.4597 16.0803V16.0703Z" fill="#1D2953"/>
<path d="M19.5097 16.0703C19.3497 16.0703 19.2097 16.1303 19.1097 16.2503C19.0297 16.3503 18.9797 16.4803 18.9797 16.6103C18.9797 16.8803 19.1597 17.1503 19.5097 17.1503C19.6697 17.1503 19.8097 17.0903 19.9097 16.9803C19.9997 16.8803 20.0397 16.7503 20.0397 16.6203C20.0397 16.3503 19.8597 16.0803 19.5097 16.0803V16.0703Z" fill="#1D2953"/>
<path d="M21.0598 20.3604C21.0898 21.4804 22.2998 22.7304 23.9698 22.7104C25.6298 22.7304 26.8398 21.4704 26.8698 20.3604C25.1998 21.7604 22.7298 21.7604 21.0598 20.3604Z" fill="white"/>
<path d="M24.8698 19.8098C24.8098 19.8098 24.7598 19.8098 24.7098 19.8098C24.6198 19.8098 24.5398 19.7198 24.5498 19.6198C24.5498 19.5298 24.6298 19.4498 24.7298 19.4598C25.0798 19.4898 25.3398 19.3998 25.3698 19.3198C25.3798 19.2898 25.3498 19.1698 25.0598 18.9798C24.1998 18.3998 24.0998 16.3598 24.0898 16.2698C24.0898 16.1798 24.1598 16.0998 24.2598 16.0898C24.3598 16.0898 24.4298 16.1598 24.4398 16.2598C24.4598 16.7998 24.6598 18.2898 25.2598 18.6998C25.6298 18.9498 25.7798 19.1998 25.6998 19.4398C25.5998 19.7098 25.2398 19.8198 24.8698 19.8198V19.8098Z" fill="#1D2953"/>
<path d="M30.4298 19.1504C30.4298 19.8204 29.5998 20.3604 28.5898 20.3604C27.5798 20.3604 26.7498 19.8204 26.7498 19.1504C26.7498 18.4804 27.5798 17.9404 28.5898 17.9404C29.5998 17.9404 30.4298 18.4804 30.4298 19.1504Z" fill="#802D2A"/>
<path d="M21.5098 19.1504C21.5098 19.8204 20.6798 20.3604 19.6698 20.3604C18.6598 20.3604 17.8298 19.8204 17.8298 19.1504C17.8298 18.4804 18.6598 17.9404 19.6698 17.9404C20.6798 17.9404 21.5098 18.4804 21.5098 19.1504Z" fill="#802D2A"/>
<path d="M32.9098 12.2503C32.9098 12.1603 30.9698 7.79027 29.1798 7.21027C27.3898 6.63027 26.9898 5.90027 26.1098 5.82027C25.2298 5.73027 24.1198 5.82027 24.1198 5.82027C24.1198 5.82027 23.0098 5.73027 22.1298 5.82027C21.2498 5.91027 20.8498 6.63027 19.0598 7.21027C17.2698 7.79027 15.3298 12.1603 15.3298 12.2503C15.3298 12.3403 15.5698 15.5303 15.5698 15.5303C15.5698 15.5303 15.2898 15.8903 16.1798 15.9003C17.0698 15.9003 17.0798 16.6303 17.4398 14.0803C17.6498 12.5703 19.1198 11.5103 20.6098 11.8503C22.5198 12.2903 24.1098 10.9603 24.1098 10.9603C24.1098 10.9603 25.6998 12.2903 27.6098 11.8503C29.1098 11.5103 30.5698 12.5703 30.7798 14.0803C31.1398 16.6303 31.1498 15.9003 32.0398 15.9003C32.9298 15.9003 32.6498 15.5303 32.6498 15.5303C32.6498 15.5303 32.8898 12.3303 32.8898 12.2503H32.9098Z" fill="#07061C"/>
<path d="M26.8698 27.2898C26.8698 27.2898 25.1298 26.4798 24.4298 28.6098L23.9898 30.8098L23.5298 28.6098C22.8298 26.4898 21.1098 27.2898 21.1098 27.2898L18.9998 28.6098C20.4498 31.3498 23.7398 31.3098 23.9898 31.2998C24.2498 31.2998 27.5298 31.3498 28.9798 28.6098L26.8698 27.2898Z" fill="white"/>
<path d="M31.1399 38.9802C31.2199 38.9802 31.6099 39.0702 31.8699 39.1402C32.1699 39.2202 32.4699 39.3102 32.7699 39.4102C33.3699 39.6102 33.9699 39.8502 34.5399 40.1302C35.6799 40.6702 36.7299 41.3502 37.6199 42.1302C39.4099 43.7002 40.5799 45.7102 41.0899 48.1202C41.2199 48.7202 41.3099 49.3502 41.3599 49.9902L41.5299 52.4002L41.8499 57.2802L42.4499 67.0602L42.6799 70.7802H50.5999V66.6502L50.1899 56.8302L49.9699 51.9102L49.8499 49.4202C49.7899 48.4302 49.6699 47.4302 49.4799 46.4302C48.7699 42.4202 46.5999 38.4102 43.4999 35.6202C41.9699 34.2102 40.2599 33.0602 38.4699 32.1602C37.5799 31.7102 36.6599 31.3102 35.7199 30.9702C35.2499 30.8002 34.7699 30.6502 34.2799 30.5002C33.7499 30.3502 33.3599 30.2402 32.6299 30.1002L32.4599 30.0702C32.3599 30.0502 32.2499 30.0302 32.1399 30.0202C29.6699 29.7402 27.4499 31.5202 27.1699 33.9802C26.8899 36.4502 28.6699 38.6702 31.1299 38.9502L31.1399 38.9802Z" fill="#0544A8"/>
<path d="M5.5599 70.7904L5.7899 67.0704L6.3999 57.2904L6.7199 52.4104L6.8899 50.0004C6.9399 49.3604 7.0299 48.7304 7.1599 48.1304C7.6699 45.7104 8.8399 43.7104 10.6299 42.1404C11.5199 41.3604 12.5699 40.6804 13.7099 40.1404C14.2799 39.8704 14.8799 39.6304 15.4799 39.4204C15.7799 39.3204 16.0799 39.2304 16.3799 39.1504C16.6399 39.0804 17.0399 38.9904 17.1099 38.9904C19.5799 38.7104 21.3499 36.4904 21.0699 34.0204C20.7899 31.5504 18.5699 29.7804 16.0999 30.0604C15.9899 30.0704 15.8799 30.0904 15.7799 30.1104L15.6099 30.1404C14.8799 30.2804 14.4799 30.3904 13.9599 30.5404C13.4699 30.6804 12.9899 30.8404 12.5199 31.0104C11.5799 31.3504 10.6699 31.7404 9.7699 32.2004C7.9799 33.1004 6.2699 34.2504 4.7399 35.6604C1.6399 38.4504 -0.530098 42.4604 -1.2401 46.4704C-1.4301 47.4704 -1.5501 48.4704 -1.6101 49.4604L-1.7301 51.9504L-1.9501 56.8704L-2.3501 66.6904V70.8204H5.5499L5.5599 70.7904Z" fill="#0544A8"/>
</g>
</g>
<defs>
<clipPath id="clip0_771_1487">
<rect width="48" height="48" fill="white"/>
</clipPath>
</defs>
</svg>
