<svg width="14" height="13" viewBox="0 0 14 13" fill="none" xmlns="http://www.w3.org/2000/svg">
<path d="M13.4331 12.2497C13.3892 12.3258 13.3261 12.3889 13.25 12.4328C13.174 12.4767 13.0878 12.4998 13 12.4997H0.999976C0.912251 12.4997 0.826094 12.4765 0.750155 12.4326C0.674217 12.3886 0.611171 12.3255 0.567347 12.2495C0.523524 12.1735 0.500466 12.0873 0.500488 11.9996C0.500511 11.9119 0.523613 11.8257 0.567476 11.7497C1.51935 10.1041 2.98623 8.92412 4.6981 8.36475C3.85133 7.86066 3.19344 7.09255 2.82547 6.17837C2.45749 5.26419 2.39978 4.2545 2.66119 3.30435C2.9226 2.35419 3.48868 1.51612 4.27249 0.918825C5.05631 0.321532 6.01452 -0.00195312 6.99998 -0.00195312C7.98543 -0.00195312 8.94365 0.321532 9.72746 0.918825C10.5113 1.51612 11.0774 2.35419 11.3388 3.30435C11.6002 4.2545 11.5425 5.26419 11.1745 6.17837C10.8065 7.09255 10.1486 7.86066 9.30185 8.36475C11.0137 8.92412 12.4806 10.1041 13.4325 11.7497C13.4765 11.8257 13.4997 11.9119 13.4998 11.9997C13.4999 12.0874 13.4769 12.1737 13.4331 12.2497Z" fill="#565E6B"/>
</svg>
